<svg xmlns="http://www.w3.org/2000/svg" width="4300" height="3316" viewBox="0 0 4300 3316" role="img" aria-label="현재 CASE · 이전 실행/종료 확인 중 CASE 감시"><title>BG-02 현재 CASE · 이전 실행/종료 확인 중 CASE 감시</title><defs><marker id="req" viewBox="0 0 10 10" refX="9" refY="5" markerWidth="7" markerHeight="7" orient="auto-start-reverse"><path d="M0 0 L10 5 L0 10 z" fill="#16a34a"/></marker><marker id="ret" viewBox="0 0 10 10" refX="9" refY="5" markerWidth="7" markerHeight="7" orient="auto-start-reverse"><path d="M0 0 L10 5 L0 10" fill="none" stroke="#0284c7" stroke-width="1.5"/></marker></defs><rect width="100%" height="100%" fill="white"/><g font-family="Noto Sans CJK KR, sans-serif"><text x="2150.0" y="40" text-anchor="middle" font-size="27" fill="#0f172a" font-weight="700">BG-02 · 현재 CASE · 이전 실행/종료 확인 중 CASE 감시</text><text x="2150.0" y="71" text-anchor="middle" font-size="15" fill="#475569">Monitor thread | #20 운영 반영 · 함수 요청은 실선 → / 반환은 점선 ← / 시간은 위에서 아래로</text><text x="2150.0" y="97" text-anchor="middle" font-size="14" fill="#475569">진입: run_once 완료 후 poll_seconds 대기</text><path d="M150.0,155 V3206" stroke="#cbd5e1" stroke-dasharray="5 5"/><rect x="40.0" y="112" width="220" height="42" fill="#16a34a"/><text x="150.0" y="139" text-anchor="middle" font-size="15" fill="white" font-weight="700">사용자 / Monitor thread</text><rect x="40.0" y="3206" width="220" height="42" fill="#16a34a"/><text x="150.0" y="3233" text-anchor="middle" font-size="15" fill="white" font-weight="700">사용자 / Monitor thread</text><path d="M453.0769230769231,155 V3206" stroke="#cbd5e1" stroke-dasharray="5 5"/><rect x="343.0769230769231" y="112" width="220" height="42" fill="#16a34a"/><text x="453.0769230769231" y="139" text-anchor="middle" font-size="15" fill="white" font-weight="700">Monitor</text><rect x="343.0769230769231" y="3206" width="220" height="42" fill="#16a34a"/><text x="453.0769230769231" y="3233" text-anchor="middle" font-size="15" fill="white" font-weight="700">Monitor</text><path d="M756.1538461538462,155 V3206" stroke="#cbd5e1" stroke-dasharray="5 5"/><rect x="646.1538461538462" y="112" width="220" height="42" fill="#16a34a"/><text x="756.1538461538462" y="139" text-anchor="middle" font-size="15" fill="white" font-weight="700">catalog</text><rect x="646.1538461538462" y="3206" width="220" height="42" fill="#16a34a"/><text x="756.1538461538462" y="3233" text-anchor="middle" font-size="15" fill="white" font-weight="700">catalog</text><path d="M1059.2307692307693,155 V3206" stroke="#cbd5e1" stroke-dasharray="5 5"/><rect x="949.2307692307693" y="112" width="220" height="42" fill="#16a34a"/><text x="1059.2307692307693" y="139" text-anchor="middle" font-size="15" fill="white" font-weight="700">processes</text><rect x="949.2307692307693" y="3206" width="220" height="42" fill="#16a34a"/><text x="1059.2307692307693" y="3233" text-anchor="middle" font-size="15" fill="white" font-weight="700">processes</text><path d="M1362.3076923076924,155 V3206" stroke="#cbd5e1" stroke-dasharray="5 5"/><rect x="1252.3076923076924" y="112" width="220" height="42" fill="#16a34a"/><text x="1362.3076923076924" y="139" text-anchor="middle" font-size="15" fill="white" font-weight="700">subprocess</text><rect x="1252.3076923076924" y="3206" width="220" height="42" fill="#16a34a"/><text x="1362.3076923076924" y="3233" text-anchor="middle" font-size="15" fill="white" font-weight="700">subprocess</text><path d="M1665.3846153846155,155 V3206" stroke="#cbd5e1" stroke-dasharray="5 5"/><rect x="1555.3846153846155" y="112" width="220" height="42" fill="#16a34a"/><text x="1665.3846153846155" y="139" text-anchor="middle" font-size="15" fill="white" font-weight="700">ofps 프로세스</text><rect x="1555.3846153846155" y="3206" width="220" height="42" fill="#16a34a"/><text x="1665.3846153846155" y="3233" text-anchor="middle" font-size="15" fill="white" font-weight="700">ofps 프로세스</text><path d="M1968.4615384615386,155 V3206" stroke="#cbd5e1" stroke-dasharray="5 5"/><rect x="1858.4615384615386" y="112" width="220" height="42" fill="#16a34a"/><text x="1968.4615384615386" y="139" text-anchor="middle" font-size="15" fill="white" font-weight="700">SQLite Store</text><rect x="1858.4615384615386" y="3206" width="220" height="42" fill="#16a34a"/><text x="1968.4615384615386" y="3233" text-anchor="middle" font-size="15" fill="white" font-weight="700">SQLite Store</text><path d="M2271.5384615384614,155 V3206" stroke="#cbd5e1" stroke-dasharray="5 5"/><rect x="2161.5384615384614" y="112" width="220" height="42" fill="#16a34a"/><text x="2271.5384615384614" y="139" text-anchor="middle" font-size="15" fill="white" font-weight="700">tickets</text><rect x="2161.5384615384614" y="3206" width="220" height="42" fill="#16a34a"/><text x="2271.5384615384614" y="3233" text-anchor="middle" font-size="15" fill="white" font-weight="700">tickets</text><path d="M2574.6153846153848,155 V3206" stroke="#cbd5e1" stroke-dasharray="5 5"/><rect x="2464.6153846153848" y="112" width="220" height="42" fill="#16a34a"/><text x="2574.6153846153848" y="139" text-anchor="middle" font-size="15" fill="white" font-weight="700">Scheduler</text><rect x="2464.6153846153848" y="3206" width="220" height="42" fill="#16a34a"/><text x="2574.6153846153848" y="3233" text-anchor="middle" font-size="15" fill="white" font-weight="700">Scheduler</text><path d="M2877.6923076923076,155 V3206" stroke="#cbd5e1" stroke-dasharray="5 5"/><rect x="2767.6923076923076" y="112" width="220" height="42" fill="#16a34a"/><text x="2877.6923076923076" y="139" text-anchor="middle" font-size="15" fill="white" font-weight="700">monitor</text><rect x="2767.6923076923076" y="3206" width="220" height="42" fill="#16a34a"/><text x="2877.6923076923076" y="3233" text-anchor="middle" font-size="15" fill="white" font-weight="700">monitor</text><path d="M3180.769230769231,155 V3206" stroke="#cbd5e1" stroke-dasharray="5 5"/><rect x="3070.769230769231" y="112" width="220" height="42" fill="#16a34a"/><text x="3180.769230769231" y="139" text-anchor="middle" font-size="15" fill="white" font-weight="700">logs</text><rect x="3070.769230769231" y="3206" width="220" height="42" fill="#16a34a"/><text x="3180.769230769231" y="3233" text-anchor="middle" font-size="15" fill="white" font-weight="700">logs</text><path d="M3483.846153846154,155 V3206" stroke="#cbd5e1" stroke-dasharray="5 5"/><rect x="3373.846153846154" y="112" width="220" height="42" fill="#16a34a"/><text x="3483.846153846154" y="139" text-anchor="middle" font-size="15" fill="white" font-weight="700">outcomes</text><rect x="3373.846153846154" y="3206" width="220" height="42" fill="#16a34a"/><text x="3483.846153846154" y="3233" text-anchor="middle" font-size="15" fill="white" font-weight="700">outcomes</text><path d="M3786.923076923077,155 V3206" stroke="#cbd5e1" stroke-dasharray="5 5"/><rect x="3676.923076923077" y="112" width="220" height="42" fill="#16a34a"/><text x="3786.923076923077" y="139" text-anchor="middle" font-size="15" fill="white" font-weight="700">jobs</text><rect x="3676.923076923077" y="3206" width="220" height="42" fill="#16a34a"/><text x="3786.923076923077" y="3233" text-anchor="middle" font-size="15" fill="white" font-weight="700">jobs</text><path d="M4090.0,155 V3206" stroke="#cbd5e1" stroke-dasharray="5 5"/><rect x="3980.0" y="112" width="220" height="42" fill="#16a34a"/><text x="4090.0" y="139" text-anchor="middle" font-size="15" fill="white" font-weight="700">Tk 이벤트 loop</text><rect x="3980.0" y="3206" width="220" height="42" fill="#16a34a"/><text x="4090.0" y="3233" text-anchor="middle" font-size="15" fill="white" font-weight="700">Tk 이벤트 loop</text><rect x="20" y="1832" width="4260" height="902" fill="none" stroke="#7c3aed" stroke-width="2"/><rect x="447.0769230769231" y="198" width="12" height="2764" fill="#f0fdf4" stroke="#86efac"/><rect x="447.0769230769231" y="236" width="12" height="2668" fill="#f0fdf4" stroke="#86efac"/><rect x="1053.2307692307693" y="370" width="12" height="1062" fill="#f0fdf4" stroke="#86efac"/><rect x="447.0769230769231" y="2084" width="12" height="590" fill="#f0fdf4" stroke="#86efac"/><rect x="1053.2307692307693" y="904" width="12" height="470" fill="#f0fdf4" stroke="#86efac"/><rect x="1356.3076923076924" y="490" width="12" height="358" fill="#f0fdf4" stroke="#86efac"/><rect x="1659.3846153846155" y="592" width="12" height="218" fill="#f0fdf4" stroke="#86efac"/><rect x="1053.2307692307693" y="1096" width="12" height="104" fill="#f0fdf4" stroke="#86efac"/><rect x="1659.3846153846155" y="694" width="12" height="58" fill="#f0fdf4" stroke="#86efac"/><rect x="1053.2307692307693" y="962" width="12" height="58" fill="#f0fdf4" stroke="#86efac"/><rect x="1053.2307692307693" y="1258" width="12" height="58" fill="#f0fdf4" stroke="#86efac"/><rect x="750.1538461538462" y="294" width="12" height="38" fill="#f0fdf4" stroke="#86efac"/><rect x="1962.4615384615386" y="1470" width="12" height="38" fill="#f0fdf4" stroke="#86efac"/><rect x="2265.5384615384614" y="1546" width="12" height="38" fill="#f0fdf4" stroke="#86efac"/><rect x="2568.6153846153848" y="1622" width="12" height="38" fill="#f0fdf4" stroke="#86efac"/><rect x="1962.4615384615386" y="1698" width="12" height="38" fill="#f0fdf4" stroke="#86efac"/><rect x="1962.4615384615386" y="1774" width="12" height="38" fill="#f0fdf4" stroke="#86efac"/><rect x="750.1538461538462" y="1914" width="12" height="38" fill="#f0fdf4" stroke="#86efac"/><rect x="2871.6923076923076" y="1990" width="12" height="38" fill="#f0fdf4" stroke="#86efac"/><rect x="2871.6923076923076" y="2142" width="12" height="38" fill="#f0fdf4" stroke="#86efac"/><rect x="2871.6923076923076" y="2218" width="12" height="38" fill="#f0fdf4" stroke="#86efac"/><rect x="3174.769230769231" y="2294" width="12" height="38" fill="#f0fdf4" stroke="#86efac"/><rect x="3477.846153846154" y="2370" width="12" height="38" fill="#f0fdf4" stroke="#86efac"/><rect x="1962.4615384615386" y="2446" width="12" height="38" fill="#f0fdf4" stroke="#86efac"/><rect x="3780.923076923077" y="2522" width="12" height="38" fill="#f0fdf4" stroke="#86efac"/><rect x="4084.0" y="2598" width="12" height="38" fill="#f0fdf4" stroke="#86efac"/><rect x="2568.6153846153848" y="2752" width="12" height="38" fill="#f0fdf4" stroke="#86efac"/><rect x="2265.5384615384614" y="2828" width="12" height="38" fill="#f0fdf4" stroke="#86efac"/><path d="M156.0,198 H446.0769230769231" fill="none" stroke="#16a34a" stroke-width="1.8" marker-end="url(#req)"/><text x="301.53846153846155" y="194" text-anchor="middle" font-size="15" fill="#111827">monitor.Monitor.run_once()</text><path d="M459.0769230769231,236 H563.0769230769231 V254 H459.0769230769231" fill="none" stroke="#16a34a" stroke-width="1.8" marker-end="url(#req)"/><text x="465.0769230769231" y="232" text-anchor="start" font-size="15" fill="#111827">monitor.Monitor.tick()</text><path d="M459.0769230769231,294 H749.1538461538462" fill="none" stroke="#16a34a" stroke-width="1.8" marker-end="url(#req)"/><a href="D-01.svg" target="_blank"><text x="604.6153846153846" y="290" text-anchor="middle" font-size="15" fill="#111827">catalog.ticket_index(config)</text></a><path d="M750.1538461538462,332 H460.0769230769231" fill="none" stroke="#0284c7" stroke-width="1.8" stroke-dasharray="6 4" marker-end="url(#ret)"/><text x="604.6153846153846" y="328" text-anchor="middle" font-size="15" fill="#0284c7">index</text><path d="M459.0769230769231,370 H1052.2307692307693" fill="none" stroke="#16a34a" stroke-width="1.8" marker-end="url(#req)"/><a href="D-04.svg" target="_blank"><text x="756.1538461538462" y="366" text-anchor="middle" font-size="15" fill="#111827">processes.snapshot(ofps_command)</text></a><rect x="32" y="392" width="4236" height="38" rx="3" fill="#fffbeb" stroke="#fcd34d"/><text x="2150.0" y="413" text-anchor="middle" font-size="14" fill="#854d0e">SNAPSHOT_LOCK 획득 대기 → subprocess 실행 중 보유 → 해제 → parse</text><path d="M1065.2307692307693,490 H1355.3076923076924" fill="none" stroke="#16a34a" stroke-width="1.8" marker-end="url(#req)"/><text x="1210.769230769231" y="450" text-anchor="middle" font-size="15" fill="#111827">subprocess.run(command,</text><text x="1210.769230769231" y="468" text-anchor="middle" font-size="15" fill="#111827">env=managed_scan_environment(),</text><text x="1210.769230769231" y="486" text-anchor="middle" font-size="15" fill="#111827">timeout=45)</text><rect x="32" y="512" width="4236" height="38" rx="3" fill="#fffbeb" stroke="#fcd34d"/><text x="2150.0" y="533" text-anchor="middle" font-size="14" fill="#854d0e">SNAPSHOT_LOCK 안: 대기 시간 제한 없음; run 시간만 45초</text><path d="M1368.3076923076924,592 H1658.3846153846155" fill="none" stroke="#16a34a" stroke-width="1.8" marker-end="url(#req)"/><text x="1513.8461538461538" y="570" text-anchor="middle" font-size="15" fill="#111827">scan_and_sync(새 프로세스;</text><text x="1513.8461538461538" y="588" text-anchor="middle" font-size="15" fill="#111827">CFD_BOT_OFPS_MANAGED=1)</text><rect x="32" y="614" width="4236" height="38" rx="3" fill="#fffbeb" stroke="#fcd34d"/><text x="2150.0" y="635" text-anchor="middle" font-size="14" fill="#854d0e">managed 모드: 내부 ticket sync 생략; scan 자체는 실행</text><path d="M1671.3846153846155,694 H1775.3846153846155 V712 H1671.3846153846155" fill="none" stroke="#16a34a" stroke-width="1.8" marker-end="url(#req)"/><text x="1677.3846153846155" y="672" text-anchor="start" font-size="15" fill="#111827">scan_once(records_file; /proc</text><text x="1677.3846153846155" y="690" text-anchor="start" font-size="15" fill="#111827">/ ps 탐색)</text><path d="M1671.3846153846155,752 H1775.3846153846155 V770 H1671.3846153846155" fill="none" stroke="#0284c7" stroke-width="1.8" stroke-dasharray="6 4" marker-end="url(#ret)"/><text x="1677.3846153846155" y="748" text-anchor="start" font-size="15" fill="#0284c7">ENGINE / CASE / process table</text><path d="M1659.3846153846155,810 H1369.3076923076924" fill="none" stroke="#0284c7" stroke-width="1.8" stroke-dasharray="6 4" marker-end="url(#ret)"/><text x="1513.8461538461538" y="806" text-anchor="middle" font-size="15" fill="#0284c7">stdout / stderr / exit code</text><path d="M1356.3076923076924,848 H1066.2307692307693" fill="none" stroke="#0284c7" stroke-width="1.8" stroke-dasharray="6 4" marker-end="url(#ret)"/><text x="1210.769230769231" y="844" text-anchor="middle" font-size="15" fill="#0284c7">CompletedProcess</text><path d="M1065.2307692307693,904 H1169.2307692307693 V922 H1065.2307692307693" fill="none" stroke="#16a34a" stroke-width="1.8" marker-end="url(#req)"/><text x="1071.2307692307693" y="882" text-anchor="start" font-size="15" fill="#111827">processes.parse_snapshot(stdout;</text><text x="1071.2307692307693" y="900" text-anchor="start" font-size="15" fill="#111827">lock 해제 후)</text><path d="M1065.2307692307693,962 H1169.2307692307693 V980 H1065.2307692307693" fill="none" stroke="#16a34a" stroke-width="1.8" marker-end="url(#req)"/><text x="1071.2307692307693" y="958" text-anchor="start" font-size="15" fill="#111827">processes.identity(PID)</text><path d="M1065.2307692307693,1020 H1169.2307692307693 V1038 H1065.2307692307693" fill="none" stroke="#0284c7" stroke-width="1.8" stroke-dasharray="6 4" marker-end="url(#ret)"/><text x="1071.2307692307693" y="1016" text-anchor="start" font-size="15" fill="#0284c7">boot:pid:starttick | None</text><path d="M1065.2307692307693,1096 H1169.2307692307693 V1114 H1065.2307692307693" fill="none" stroke="#16a34a" stroke-width="1.8" marker-end="url(#req)"/><text x="1071.2307692307693" y="1074" text-anchor="start" font-size="15" fill="#111827">processes.owner_label(supervisor</text><text x="1071.2307692307693" y="1092" text-anchor="start" font-size="15" fill="#111827">또는 첫 PID)</text><rect x="32" y="1138" width="4236" height="38" rx="3" fill="#fffbeb" stroke="#fcd34d"/><text x="2150.0" y="1159" text-anchor="middle" font-size="14" fill="#854d0e">/proc 조상 최대 64단계, 환경/TTY 확인</text><path d="M1065.2307692307693,1200 H1169.2307692307693 V1218 H1065.2307692307693" fill="none" stroke="#0284c7" stroke-width="1.8" stroke-dasharray="6 4" marker-end="url(#ret)"/><text x="1071.2307692307693" y="1196" text-anchor="start" font-size="15" fill="#0284c7">str</text><path d="M1065.2307692307693,1258 H1169.2307692307693 V1276 H1065.2307692307693" fill="none" stroke="#16a34a" stroke-width="1.8" marker-end="url(#req)"/><text x="1071.2307692307693" y="1254" text-anchor="start" font-size="15" fill="#111827">processes.cpu_layout(ProcessRecord)</text><path d="M1065.2307692307693,1316 H1169.2307692307693 V1334 H1065.2307692307693" fill="none" stroke="#0284c7" stroke-width="1.8" stroke-dasharray="6 4" marker-end="url(#ret)"/><text x="1071.2307692307693" y="1312" text-anchor="start" font-size="15" fill="#0284c7">(core_count, cpu_ranges)</text><path d="M1065.2307692307693,1374 H1169.2307692307693 V1392 H1065.2307692307693" fill="none" stroke="#0284c7" stroke-width="1.8" stroke-dasharray="6 4" marker-end="url(#ret)"/><text x="1071.2307692307693" y="1370" text-anchor="start" font-size="15" fill="#0284c7">dict[root, ProcessRecord]</text><path d="M1053.2307692307693,1432 H460.0769230769231" fill="none" stroke="#0284c7" stroke-width="1.8" stroke-dasharray="6 4" marker-end="url(#ret)"/><text x="756.1538461538462" y="1428" text-anchor="middle" font-size="15" fill="#0284c7">{raw, cases}</text><path d="M459.0769230769231,1470 H1961.4615384615386" fill="none" stroke="#16a34a" stroke-width="1.8" marker-end="url(#req)"/><text x="1210.769230769231" y="1466" text-anchor="middle" font-size="15" fill="#111827">storage.Store.put(snapshot / monitor_error)</text><path d="M1962.4615384615386,1508 H460.0769230769231" fill="none" stroke="#0284c7" stroke-width="1.8" stroke-dasharray="6 4" marker-end="url(#ret)"/><text x="1210.769230769231" y="1504" text-anchor="middle" font-size="15" fill="#0284c7">None</text><path d="M459.0769230769231,1546 H2264.5384615384614" fill="none" stroke="#16a34a" stroke-width="1.8" marker-end="url(#req)"/><text x="1362.3076923076924" y="1542" text-anchor="middle" font-size="15" fill="#111827">tickets.accept_submissions(config,store)</text><path d="M2265.5384615384614,1584 H460.0769230769231" fill="none" stroke="#0284c7" stroke-width="1.8" stroke-dasharray="6 4" marker-end="url(#ret)"/><text x="1362.3076923076924" y="1580" text-anchor="middle" font-size="15" fill="#0284c7">None</text><path d="M459.0769230769231,1622 H2567.6153846153848" fill="none" stroke="#16a34a" stroke-width="1.8" marker-end="url(#req)"/><text x="1513.8461538461538" y="1618" text-anchor="middle" font-size="15" fill="#111827">jobs.Scheduler.recover()</text><path d="M2568.6153846153848,1660 H460.0769230769231" fill="none" stroke="#0284c7" stroke-width="1.8" stroke-dasharray="6 4" marker-end="url(#ret)"/><text x="1513.8461538461538" y="1656" text-anchor="middle" font-size="15" fill="#0284c7">None</text><path d="M459.0769230769231,1698 H1961.4615384615386" fill="none" stroke="#16a34a" stroke-width="1.8" marker-end="url(#req)"/><text x="1210.769230769231" y="1694" text-anchor="middle" font-size="15" fill="#111827">storage.Store.jobs(LIVE)</text><path d="M1962.4615384615386,1736 H460.0769230769231" fill="none" stroke="#0284c7" stroke-width="1.8" stroke-dasharray="6 4" marker-end="url(#ret)"/><text x="1210.769230769231" y="1732" text-anchor="middle" font-size="15" fill="#0284c7">managed jobs</text><path d="M459.0769230769231,1774 H1961.4615384615386" fill="none" stroke="#16a34a" stroke-width="1.8" marker-end="url(#req)"/><text x="1210.769230769231" y="1770" text-anchor="middle" font-size="15" fill="#111827">storage.Store.tracked_observations()</text><path d="M1962.4615384615386,1812 H460.0769230769231" fill="none" stroke="#0284c7" stroke-width="1.8" stroke-dasharray="6 4" marker-end="url(#ret)"/><text x="1210.769230769231" y="1808" text-anchor="middle" font-size="15" fill="#0284c7">persisted pending roots</text><text x="2150.0" y="1855" text-anchor="middle" font-size="14" fill="#6d28d9" font-weight="700">loop · 현재 snapshot roots ∪ tracked roots − managed roots</text><path d="M459.0769230769231,1914 H749.1538461538462" fill="none" stroke="#16a34a" stroke-width="1.8" marker-end="url(#req)"/><text x="604.6153846153846" y="1892" text-anchor="middle" font-size="15" fill="#111827">catalog.TicketIndex.lookup(canonical</text><text x="604.6153846153846" y="1910" text-anchor="middle" font-size="15" fill="#111827">full root)</text><path d="M750.1538461538462,1952 H460.0769230769231" fill="none" stroke="#0284c7" stroke-width="1.8" stroke-dasharray="6 4" marker-end="url(#ret)"/><text x="604.6153846153846" y="1948" text-anchor="middle" font-size="15" fill="#0284c7">Ticket | None</text><path d="M459.0769230769231,1990 H2870.6923076923076" fill="none" stroke="#16a34a" stroke-width="1.8" marker-end="url(#req)"/><text x="1665.3846153846152" y="1986" text-anchor="middle" font-size="15" fill="#111827">monitor.automatic_case(미등록 root)</text><path d="M2871.6923076923076,2028 H460.0769230769231" fill="none" stroke="#0284c7" stroke-width="1.8" stroke-dasharray="6 4" marker-end="url(#ret)"/><text x="1665.3846153846152" y="2024" text-anchor="middle" font-size="15" fill="#0284c7">automatic Case</text><path d="M459.0769230769231,2084 H563.0769230769231 V2102 H459.0769230769231" fill="none" stroke="#16a34a" stroke-width="1.8" marker-end="url(#req)"/><text x="465.0769230769231" y="2062" text-anchor="start" font-size="15" fill="#111827">monitor.Monitor.observe(case,record</text><text x="465.0769230769231" y="2080" text-anchor="start" font-size="15" fill="#111827">| None)</text><path d="M459.0769230769231,2142 H2870.6923076923076" fill="none" stroke="#16a34a" stroke-width="1.8" marker-end="url(#req)"/><text x="1665.3846153846152" y="2138" text-anchor="middle" font-size="15" fill="#111827">monitor.observed_identity(record)</text><path d="M2871.6923076923076,2180 H460.0769230769231" fill="none" stroke="#0284c7" stroke-width="1.8" stroke-dasharray="6 4" marker-end="url(#ret)"/><text x="1665.3846153846152" y="2176" text-anchor="middle" font-size="15" fill="#0284c7">supervisor/process identities</text><path d="M459.0769230769231,2218 H2870.6923076923076" fill="none" stroke="#16a34a" stroke-width="1.8" marker-end="url(#req)"/><text x="1665.3846153846152" y="2214" text-anchor="middle" font-size="15" fill="#111827">monitor.new_execution(previous identities,current)</text><path d="M2871.6923076923076,2256 H460.0769230769231" fill="none" stroke="#0284c7" stroke-width="1.8" stroke-dasharray="6 4" marker-end="url(#ret)"/><text x="1665.3846153846152" y="2252" text-anchor="middle" font-size="15" fill="#0284c7">bool: same path restart</text><path d="M459.0769230769231,2294 H3173.769230769231" fill="none" stroke="#16a34a" stroke-width="1.8" marker-end="url(#req)"/><text x="1816.9230769230771" y="2290" text-anchor="middle" font-size="15" fill="#111827">logs.recent_case_log(대상 case / 종료 확인 시 final=True)</text><path d="M3174.769230769231,2332 H460.0769230769231" fill="none" stroke="#0284c7" stroke-width="1.8" stroke-dasharray="6 4" marker-end="url(#ret)"/><text x="1816.9230769230771" y="2328" text-anchor="middle" font-size="15" fill="#0284c7">(telemetry,path)</text><path d="M459.0769230769231,2370 H3476.846153846154" fill="none" stroke="#16a34a" stroke-width="1.8" marker-end="url(#req)"/><a href="D-12.svg" target="_blank"><text x="1968.4615384615386" y="2366" text-anchor="middle" font-size="15" fill="#111827">outcomes.decide(missing 임계 도달 / 최신 로그)</text></a><path d="M3477.846153846154,2408 H460.0769230769231" fill="none" stroke="#0284c7" stroke-width="1.8" stroke-dasharray="6 4" marker-end="url(#ret)"/><text x="1968.4615384615386" y="2404" text-anchor="middle" font-size="15" fill="#0284c7">(status,reason)</text><path d="M459.0769230769231,2446 H1961.4615384615386" fill="none" stroke="#16a34a" stroke-width="1.8" marker-end="url(#req)"/><text x="1210.769230769231" y="2442" text-anchor="middle" font-size="15" fill="#111827">storage.Store.put(observed:root; trigger가 tracking/변경 기록)</text><path d="M1962.4615384615386,2484 H460.0769230769231" fill="none" stroke="#0284c7" stroke-width="1.8" stroke-dasharray="6 4" marker-end="url(#ret)"/><text x="1210.769230769231" y="2480" text-anchor="middle" font-size="15" fill="#0284c7">None</text><path d="M459.0769230769231,2522 H3779.923076923077" fill="none" stroke="#16a34a" stroke-width="1.8" marker-end="url(#req)"/><text x="2120.0" y="2518" text-anchor="middle" font-size="15" fill="#111827">jobs.terminal_event(terminal observed)</text><path d="M3780.923076923077,2560 H460.0769230769231" fill="none" stroke="#0284c7" stroke-width="1.8" stroke-dasharray="6 4" marker-end="url(#ret)"/><text x="2120.0" y="2556" text-anchor="middle" font-size="15" fill="#0284c7">None</text><path d="M459.0769230769231,2598 H4083.0" fill="none" stroke="#16a34a" stroke-width="1.8" marker-end="url(#req)"/><text x="2271.5384615384614" y="2594" text-anchor="middle" font-size="15" fill="#111827">storage.Store.finish_observation(outbox 성공한 terminal root,run id)</text><path d="M4084.0,2636 H460.0769230769231" fill="none" stroke="#0284c7" stroke-width="1.8" stroke-dasharray="6 4" marker-end="url(#ret)"/><text x="2271.5384615384614" y="2632" text-anchor="middle" font-size="15" fill="#0284c7">None</text><path d="M459.0769230769231,2674 H563.0769230769231 V2692 H459.0769230769231" fill="none" stroke="#0284c7" stroke-width="1.8" stroke-dasharray="6 4" marker-end="url(#ret)"/><text x="465.0769230769231" y="2670" text-anchor="start" font-size="15" fill="#0284c7">None</text><path d="M459.0769230769231,2752 H2567.6153846153848" fill="none" stroke="#16a34a" stroke-width="1.8" marker-end="url(#req)"/><text x="1513.8461538461538" y="2748" text-anchor="middle" font-size="15" fill="#111827">jobs.Scheduler.tick(snapshot.cases)</text><path d="M2568.6153846153848,2790 H460.0769230769231" fill="none" stroke="#0284c7" stroke-width="1.8" stroke-dasharray="6 4" marker-end="url(#ret)"/><text x="1513.8461538461538" y="2786" text-anchor="middle" font-size="15" fill="#0284c7">None</text><path d="M459.0769230769231,2828 H2264.5384615384614" fill="none" stroke="#16a34a" stroke-width="1.8" marker-end="url(#req)"/><a href="D-15.svg" target="_blank"><text x="1362.3076923076924" y="2824" text-anchor="middle" font-size="15" fill="#111827">tickets.sync_ticket_states(config,store,snapshot)</text></a><path d="M2265.5384615384614,2866 H460.0769230769231" fill="none" stroke="#0284c7" stroke-width="1.8" stroke-dasharray="6 4" marker-end="url(#ret)"/><text x="1362.3076923076924" y="2862" text-anchor="middle" font-size="15" fill="#0284c7">None</text><path d="M459.0769230769231,2904 H563.0769230769231 V2922 H459.0769230769231" fill="none" stroke="#0284c7" stroke-width="1.8" stroke-dasharray="6 4" marker-end="url(#ret)"/><text x="465.0769230769231" y="2900" text-anchor="start" font-size="15" fill="#0284c7">None</text><path d="M447.0769230769231,2962 H157.0" fill="none" stroke="#0284c7" stroke-width="1.8" stroke-dasharray="6 4" marker-end="url(#ret)"/><text x="301.53846153846155" y="2958" text-anchor="middle" font-size="15" fill="#0284c7">bool</text><rect x="24" y="2994" width="4252" height="77" fill="#fff1f2" stroke="#fda4af"/><text x="42" y="3016" text-anchor="start" font-size="15" fill="#9f1239" font-weight="700">alt [오류 / 거절 분기]</text><text x="42" y="3041" text-anchor="start" font-size="14" fill="#9f1239">scan 실패는 missing 증가 없음; state/outbox 사이 실패는 persisted tracking으로 재시도</text><text x="2150.0" y="3111" text-anchor="middle" font-size="15" fill="#065f46" font-weight="700">최종 응답: 종료 확정·outbox 완료 대상은 다음 tick 감시에서 제외; 새 실행 identity 구분</text></g></svg>
