<svg xmlns="http://www.w3.org/2000/svg" width="1780" height="1022" viewBox="0 0 1780 1022" role="img" aria-label="폼 변환과 티켓 검증"><title>D-11 폼 변환과 티켓 검증</title><defs><marker id="req" viewBox="0 0 10 10" refX="9" refY="5" markerWidth="7" markerHeight="7" orient="auto-start-reverse"><path d="M0 0 L10 5 L0 10 z" fill="#16a34a"/></marker><marker id="ret" viewBox="0 0 10 10" refX="9" refY="5" markerWidth="7" markerHeight="7" orient="auto-start-reverse"><path d="M0 0 L10 5 L0 10" fill="none" stroke="#0284c7" stroke-width="1.5"/></marker></defs><rect width="100%" height="100%" fill="white"/><g font-family="Noto Sans CJK KR, sans-serif"><text x="890.0" y="40" text-anchor="middle" font-size="27" fill="#0f172a" font-weight="700">D-11 · 폼 변환과 티켓 검증</text><text x="890.0" y="71" text-anchor="middle" font-size="15" fill="#475569">공용 | #20 운영 반영 · 함수 요청은 실선 → / 반환은 점선 ← / 시간은 위에서 아래로</text><text x="890.0" y="97" text-anchor="middle" font-size="14" fill="#475569">진입: TicketService.validate(values, name, current)</text><path d="M150.0,155 V912" stroke="#cbd5e1" stroke-dasharray="5 5"/><rect x="40.0" y="112" width="220" height="42" fill="#16a34a"/><text x="150.0" y="139" text-anchor="middle" font-size="15" fill="white" font-weight="700">사용자 / 공용</text><rect x="40.0" y="912" width="220" height="42" fill="#16a34a"/><text x="150.0" y="939" text-anchor="middle" font-size="15" fill="white" font-weight="700">사용자 / 공용</text><path d="M505.0,155 V912" stroke="#cbd5e1" stroke-dasharray="5 5"/><rect x="395.0" y="112" width="220" height="42" fill="#16a34a"/><text x="505.0" y="139" text-anchor="middle" font-size="15" fill="white" font-weight="700">TicketService</text><rect x="395.0" y="912" width="220" height="42" fill="#16a34a"/><text x="505.0" y="939" text-anchor="middle" font-size="15" fill="white" font-weight="700">TicketService</text><path d="M860.0,155 V912" stroke="#cbd5e1" stroke-dasharray="5 5"/><rect x="750.0" y="112" width="220" height="42" fill="#16a34a"/><text x="860.0" y="139" text-anchor="middle" font-size="15" fill="white" font-weight="700">editor</text><rect x="750.0" y="912" width="220" height="42" fill="#16a34a"/><text x="860.0" y="939" text-anchor="middle" font-size="15" fill="white" font-weight="700">editor</text><path d="M1215.0,155 V912" stroke="#cbd5e1" stroke-dasharray="5 5"/><rect x="1105.0" y="112" width="220" height="42" fill="#16a34a"/><text x="1215.0" y="139" text-anchor="middle" font-size="15" fill="white" font-weight="700">config</text><rect x="1105.0" y="912" width="220" height="42" fill="#16a34a"/><text x="1215.0" y="939" text-anchor="middle" font-size="15" fill="white" font-weight="700">config</text><path d="M1570.0,155 V912" stroke="#cbd5e1" stroke-dasharray="5 5"/><rect x="1460.0" y="112" width="220" height="42" fill="#16a34a"/><text x="1570.0" y="139" text-anchor="middle" font-size="15" fill="white" font-weight="700">catalog</text><rect x="1460.0" y="912" width="220" height="42" fill="#16a34a"/><text x="1570.0" y="939" text-anchor="middle" font-size="15" fill="white" font-weight="700">catalog</text><rect x="499.0" y="216" width="12" height="452" fill="#f0fdf4" stroke="#86efac"/><rect x="854.0" y="394" width="12" height="160" fill="#f0fdf4" stroke="#86efac"/><rect x="854.0" y="254" width="12" height="84" fill="#f0fdf4" stroke="#86efac"/><rect x="1209.0" y="478" width="12" height="38" fill="#f0fdf4" stroke="#86efac"/><rect x="1564.0" y="592" width="12" height="38" fill="#f0fdf4" stroke="#86efac"/><path d="M156.0,216 H498.0" fill="none" stroke="#16a34a" stroke-width="1.8" marker-end="url(#req)"/><text x="327.5" y="194" text-anchor="middle" font-size="15" fill="#111827">editor.TicketService.validate(values,</text><text x="327.5" y="212" text-anchor="middle" font-size="15" fill="#111827">name, current)</text><path d="M511.0,254 H853.0" fill="none" stroke="#16a34a" stroke-width="1.8" marker-end="url(#req)"/><text x="682.5" y="250" text-anchor="middle" font-size="15" fill="#111827">editor.form_document(FormValues)</text><rect x="32" y="276" width="1716" height="38" rx="3" fill="#fffbeb" stroke="#fcd34d"/><text x="890.0" y="297" text-anchor="middle" font-size="14" fill="#854d0e">필드 변환·execution source·monitor opt-in·자동 exports 끄기</text><path d="M854.0,338 H512.0" fill="none" stroke="#0284c7" stroke-width="1.8" stroke-dasharray="6 4" marker-end="url(#ret)"/><text x="682.5" y="334" text-anchor="middle" font-size="15" fill="#0284c7">document</text><path d="M511.0,394 H853.0" fill="none" stroke="#16a34a" stroke-width="1.8" marker-end="url(#req)"/><text x="682.5" y="372" text-anchor="middle" font-size="15" fill="#111827">editor.validate_document(json text,</text><text x="682.5" y="390" text-anchor="middle" font-size="15" fill="#111827">tickets_dir)</text><rect x="32" y="416" width="1716" height="38" rx="3" fill="#fffbeb" stroke="#fcd34d"/><text x="890.0" y="437" text-anchor="middle" font-size="14" fill="#854d0e">임시 파일 실제 생성/삭제; *.json catalog에 미노출</text><path d="M866.0,478 H1208.0" fill="none" stroke="#16a34a" stroke-width="1.8" marker-end="url(#req)"/><text x="1037.5" y="474" text-anchor="middle" font-size="15" fill="#111827">config.load_case(숨겨진 .tmp 파일)</text><path d="M1209.0,516 H867.0" fill="none" stroke="#0284c7" stroke-width="1.8" stroke-dasharray="6 4" marker-end="url(#ret)"/><text x="1037.5" y="512" text-anchor="middle" font-size="15" fill="#0284c7">검증된 Ticket</text><path d="M854.0,554 H512.0" fill="none" stroke="#0284c7" stroke-width="1.8" stroke-dasharray="6 4" marker-end="url(#ret)"/><text x="682.5" y="550" text-anchor="middle" font-size="15" fill="#0284c7">document</text><path d="M511.0,592 H1563.0" fill="none" stroke="#16a34a" stroke-width="1.8" marker-end="url(#req)"/><a href="D-01.svg" target="_blank"><text x="1037.5" y="588" text-anchor="middle" font-size="15" fill="#111827">catalog.folder_index(동일 type/root 중복 검사: cached documents)</text></a><path d="M1564.0,630 H512.0" fill="none" stroke="#0284c7" stroke-width="1.8" stroke-dasharray="6 4" marker-end="url(#ret)"/><text x="1037.5" y="626" text-anchor="middle" font-size="15" fill="#0284c7">TicketIndex</text><path d="M499.0,668 H157.0" fill="none" stroke="#0284c7" stroke-width="1.8" stroke-dasharray="6 4" marker-end="url(#ret)"/><text x="327.5" y="664" text-anchor="middle" font-size="15" fill="#0284c7">document</text><rect x="24" y="700" width="1732" height="77" fill="#fff1f2" stroke="#fda4af"/><text x="42" y="722" text-anchor="start" font-size="15" fill="#9f1239" font-weight="700">alt [오류 / 거절 분기]</text><text x="42" y="747" text-anchor="start" font-size="14" fill="#9f1239">ConfigError/ValueError/OSError; validation .tmp는 finally 삭제</text><text x="890.0" y="817" text-anchor="middle" font-size="15" fill="#065f46" font-weight="700">최종 응답: 정규화할 JSON 원문; 저장은 수행하지 않음</text></g></svg>
