<svg xmlns="http://www.w3.org/2000/svg" width="2060" height="1614" viewBox="0 0 2060 1614" role="img" aria-label="결과 파일 조회"><title>UC-06-tg 결과 파일 조회</title><defs><marker id="req" viewBox="0 0 10 10" refX="9" refY="5" markerWidth="7" markerHeight="7" orient="auto-start-reverse"><path d="M0 0 L10 5 L0 10 z" fill="#16a34a"/></marker><marker id="ret" viewBox="0 0 10 10" refX="9" refY="5" markerWidth="7" markerHeight="7" orient="auto-start-reverse"><path d="M0 0 L10 5 L0 10" fill="none" stroke="#0284c7" stroke-width="1.5"/></marker></defs><rect width="100%" height="100%" fill="white"/><g font-family="Noto Sans CJK KR, sans-serif"><text x="1030.0" y="40" text-anchor="middle" font-size="27" fill="#0f172a" font-weight="700">UC-06-tg · 결과 파일 조회</text><text x="1030.0" y="71" text-anchor="middle" font-size="15" fill="#475569">Telegram | #20 운영 반영 · 함수 요청은 실선 → / 반환은 점선 ← / 시간은 위에서 아래로</text><text x="1030.0" y="97" text-anchor="middle" font-size="14" fill="#475569">진입: export:case-id[:name]</text><path d="M150.0,155 V1504" stroke="#cbd5e1" stroke-dasharray="5 5"/><rect x="40.0" y="112" width="220" height="42" fill="#16a34a"/><text x="150.0" y="139" text-anchor="middle" font-size="15" fill="white" font-weight="700">사용자 / Telegram</text><rect x="40.0" y="1504" width="220" height="42" fill="#16a34a"/><text x="150.0" y="1531" text-anchor="middle" font-size="15" fill="white" font-weight="700">사용자 / Telegram</text><path d="M490.0,155 V1504" stroke="#cbd5e1" stroke-dasharray="5 5"/><rect x="380.0" y="112" width="220" height="42" fill="#16a34a"/><text x="490.0" y="139" text-anchor="middle" font-size="15" fill="white" font-weight="700">Bot</text><rect x="380.0" y="1504" width="220" height="42" fill="#16a34a"/><text x="490.0" y="1531" text-anchor="middle" font-size="15" fill="white" font-weight="700">Bot</text><path d="M830.0,155 V1504" stroke="#cbd5e1" stroke-dasharray="5 5"/><rect x="720.0" y="112" width="220" height="42" fill="#16a34a"/><text x="830.0" y="139" text-anchor="middle" font-size="15" fill="white" font-weight="700">artifacts</text><rect x="720.0" y="1504" width="220" height="42" fill="#16a34a"/><text x="830.0" y="1531" text-anchor="middle" font-size="15" fill="white" font-weight="700">artifacts</text><path d="M1170.0,155 V1504" stroke="#cbd5e1" stroke-dasharray="5 5"/><rect x="1060.0" y="112" width="220" height="42" fill="#16a34a"/><text x="1170.0" y="139" text-anchor="middle" font-size="15" fill="white" font-weight="700">Telegram client</text><rect x="1060.0" y="1504" width="220" height="42" fill="#16a34a"/><text x="1170.0" y="1531" text-anchor="middle" font-size="15" fill="white" font-weight="700">Telegram client</text><path d="M1510.0,155 V1504" stroke="#cbd5e1" stroke-dasharray="5 5"/><rect x="1400.0" y="112" width="220" height="42" fill="#16a34a"/><text x="1510.0" y="139" text-anchor="middle" font-size="15" fill="white" font-weight="700">Telegram Bot API</text><rect x="1400.0" y="1504" width="220" height="42" fill="#16a34a"/><text x="1510.0" y="1531" text-anchor="middle" font-size="15" fill="white" font-weight="700">Telegram Bot API</text><path d="M1850.0,155 V1504" stroke="#cbd5e1" stroke-dasharray="5 5"/><rect x="1740.0" y="112" width="220" height="42" fill="#16a34a"/><text x="1850.0" y="139" text-anchor="middle" font-size="15" fill="white" font-weight="700">telegram_receipts</text><rect x="1740.0" y="1504" width="220" height="42" fill="#16a34a"/><text x="1850.0" y="1531" text-anchor="middle" font-size="15" fill="white" font-weight="700">telegram_receipts</text><rect x="484.0" y="198" width="12" height="1062" fill="#f0fdf4" stroke="#86efac"/><rect x="484.0" y="300" width="12" height="902" fill="#f0fdf4" stroke="#86efac"/><rect x="484.0" y="434" width="12" height="710" fill="#f0fdf4" stroke="#86efac"/><rect x="1164.0" y="492" width="12" height="358" fill="#f0fdf4" stroke="#86efac"/><rect x="1164.0" y="594" width="12" height="198" fill="#f0fdf4" stroke="#86efac"/><rect x="484.0" y="906" width="12" height="180" fill="#f0fdf4" stroke="#86efac"/><rect x="1504.0" y="670" width="12" height="84" fill="#f0fdf4" stroke="#86efac"/><rect x="1844.0" y="964" width="12" height="84" fill="#f0fdf4" stroke="#86efac"/><rect x="824.0" y="358" width="12" height="38" fill="#f0fdf4" stroke="#86efac"/><path d="M156.0,198 H483.0" fill="none" stroke="#16a34a" stroke-width="1.8" marker-end="url(#req)"/><text x="320.0" y="194" text-anchor="middle" font-size="15" fill="#111827">bot.Bot.handle(update)</text><rect x="32" y="220" width="1996" height="38" rx="3" fill="#fffbeb" stroke="#fcd34d"/><text x="1030.0" y="241" text-anchor="middle" font-size="14" fill="#854d0e">sender/chat 인증 → ACK thread → 수신 ID journal; 비편집 idle session 쓰기 생략</text><path d="M496.0,300 H600.0 V318 H496.0" fill="none" stroke="#16a34a" stroke-width="1.8" marker-end="url(#req)"/><text x="502.0" y="278" text-anchor="start" font-size="15" fill="#111827">bot.Bot.dispatch(chat, action,</text><text x="502.0" y="296" text-anchor="start" font-size="15" fill="#111827">request_key, user)</text><path d="M496.0,358 H823.0" fill="none" stroke="#16a34a" stroke-width="1.8" marker-end="url(#req)"/><a href="D-10.svg" target="_blank"><text x="660.0" y="354" text-anchor="middle" font-size="15" fill="#111827">artifacts.export_files(case,export)</text></a><path d="M824.0,396 H497.0" fill="none" stroke="#0284c7" stroke-width="1.8" stroke-dasharray="6 4" marker-end="url(#ret)"/><text x="660.0" y="392" text-anchor="middle" font-size="15" fill="#0284c7">Path[]</text><path d="M496.0,434 H600.0 V452 H496.0" fill="none" stroke="#16a34a" stroke-width="1.8" marker-end="url(#req)"/><text x="502.0" y="430" text-anchor="start" font-size="15" fill="#111827">bot.Bot.file(파일마다 chat,item)</text><path d="M496.0,492 H1163.0" fill="none" stroke="#16a34a" stroke-width="1.8" marker-end="url(#req)"/><text x="830.0" y="488" text-anchor="middle" font-size="15" fill="#111827">telegram.Telegram.file(chat,item)</text><rect x="32" y="514" width="1996" height="38" rx="3" fill="#fffbeb" stroke="#fcd34d"/><text x="1030.0" y="535" text-anchor="middle" font-size="14" fill="#854d0e">photo 400이면 document 재시도</text><path d="M1176.0,594 H1280.0 V612 H1176.0" fill="none" stroke="#16a34a" stroke-width="1.8" marker-end="url(#req)"/><text x="1182.0" y="572" text-anchor="start" font-size="15" fill="#111827">telegram.Telegram.call(sendPhoto/Document,</text><text x="1182.0" y="590" text-anchor="start" font-size="15" fill="#111827">timeout=90)</text><path d="M1176.0,670 H1503.0" fill="none" stroke="#16a34a" stroke-width="1.8" marker-end="url(#req)"/><text x="1340.0" y="648" text-anchor="middle" font-size="15" fill="#111827">urllib.request.urlopen(HTTPS Telegram</text><text x="1340.0" y="666" text-anchor="middle" font-size="15" fill="#111827">Bot API; timeout)</text><rect x="32" y="692" width="1996" height="38" rx="3" fill="#fffbeb" stroke="#fcd34d"/><text x="1030.0" y="713" text-anchor="middle" font-size="14" fill="#854d0e">실제 외부 HTTP 요청; token은 표시하지 않음</text><path d="M1504.0,754 H1177.0" fill="none" stroke="#0284c7" stroke-width="1.8" stroke-dasharray="6 4" marker-end="url(#ret)"/><text x="1340.0" y="750" text-anchor="middle" font-size="15" fill="#0284c7">HTTP response JSON</text><path d="M1176.0,792 H1280.0 V810 H1176.0" fill="none" stroke="#0284c7" stroke-width="1.8" stroke-dasharray="6 4" marker-end="url(#ret)"/><text x="1182.0" y="788" text-anchor="start" font-size="15" fill="#0284c7">Message</text><path d="M1164.0,850 H497.0" fill="none" stroke="#0284c7" stroke-width="1.8" stroke-dasharray="6 4" marker-end="url(#ret)"/><text x="830.0" y="846" text-anchor="middle" font-size="15" fill="#0284c7">Message</text><path d="M496.0,906 H600.0 V924 H496.0" fill="none" stroke="#16a34a" stroke-width="1.8" marker-end="url(#req)"/><text x="502.0" y="884" text-anchor="start" font-size="15" fill="#111827">bot.Bot._remember(chat,</text><text x="502.0" y="902" text-anchor="start" font-size="15" fill="#111827">result)</text><path d="M496.0,964 H1843.0" fill="none" stroke="#16a34a" stroke-width="1.8" marker-end="url(#req)"/><text x="1170.0" y="960" text-anchor="middle" font-size="15" fill="#111827">telegram_receipts.TelegramReceipts.remember_message(chat, message_id, date)</text><rect x="32" y="986" width="1996" height="38" rx="3" fill="#fffbeb" stroke="#fcd34d"/><text x="1030.0" y="1007" text-anchor="middle" font-size="14" fill="#854d0e">복구 journal 기록; DB 잠금은 업로드/다음 polling을 막지 않음</text><path d="M1844.0,1048 H497.0" fill="none" stroke="#0284c7" stroke-width="1.8" stroke-dasharray="6 4" marker-end="url(#ret)"/><text x="1170.0" y="1044" text-anchor="middle" font-size="15" fill="#0284c7">None</text><path d="M496.0,1086 H600.0 V1104 H496.0" fill="none" stroke="#0284c7" stroke-width="1.8" stroke-dasharray="6 4" marker-end="url(#ret)"/><text x="502.0" y="1082" text-anchor="start" font-size="15" fill="#0284c7">None</text><path d="M496.0,1144 H600.0 V1162 H496.0" fill="none" stroke="#0284c7" stroke-width="1.8" stroke-dasharray="6 4" marker-end="url(#ret)"/><text x="502.0" y="1140" text-anchor="start" font-size="15" fill="#0284c7">Message</text><path d="M496.0,1202 H600.0 V1220 H496.0" fill="none" stroke="#0284c7" stroke-width="1.8" stroke-dasharray="6 4" marker-end="url(#ret)"/><text x="502.0" y="1198" text-anchor="start" font-size="15" fill="#0284c7">None</text><path d="M484.0,1260 H157.0" fill="none" stroke="#0284c7" stroke-width="1.8" stroke-dasharray="6 4" marker-end="url(#ret)"/><text x="320.0" y="1256" text-anchor="middle" font-size="15" fill="#0284c7">None</text><rect x="24" y="1292" width="2012" height="77" fill="#fff1f2" stroke="#fda4af"/><text x="42" y="1314" text-anchor="start" font-size="15" fill="#9f1239" font-weight="700">alt [오류 / 거절 분기]</text><text x="42" y="1339" text-anchor="start" font-size="14" fill="#9f1239">입력/파일 오류 → 오류 메시지; TelegramError 등은 serve 경고 후 offset 진행</text><text x="1030.0" y="1409" text-anchor="middle" font-size="15" fill="#065f46" font-weight="700">최종 응답: 메시지/패널 반영 → handle 반환 → offset journal → 다음 polling; SQLite는 background batch</text></g></svg>
