<svg xmlns="http://www.w3.org/2000/svg" width="1600" height="1252" viewBox="0 0 1600 1252" role="img" aria-label="편집기 기동"><title>UC-01-gui 편집기 기동</title><defs><marker id="req" viewBox="0 0 10 10" refX="9" refY="5" markerWidth="7" markerHeight="7" orient="auto-start-reverse"><path d="M0 0 L10 5 L0 10 z" fill="#16a34a"/></marker><marker id="ret" viewBox="0 0 10 10" refX="9" refY="5" markerWidth="7" markerHeight="7" orient="auto-start-reverse"><path d="M0 0 L10 5 L0 10" fill="none" stroke="#0284c7" stroke-width="1.5"/></marker></defs><rect width="100%" height="100%" fill="white"/><g font-family="Noto Sans CJK KR, sans-serif"><text x="800.0" y="40" text-anchor="middle" font-size="27" fill="#0f172a" font-weight="700">UC-01-gui · 편집기 기동</text><text x="800.0" y="71" text-anchor="middle" font-size="15" fill="#475569">cfd-ticket-gui | #20 운영 반영 · 함수 요청은 실선 → / 반환은 점선 ← / 시간은 위에서 아래로</text><text x="800.0" y="97" text-anchor="middle" font-size="14" fill="#475569">진입: Tk event → __init__</text><path d="M150.0,155 V1142" stroke="#cbd5e1" stroke-dasharray="5 5"/><rect x="40.0" y="112" width="220" height="42" fill="#16a34a"/><text x="150.0" y="139" text-anchor="middle" font-size="15" fill="white" font-weight="700">사용자 / cfd-ticket-gui</text><rect x="40.0" y="1142" width="220" height="42" fill="#16a34a"/><text x="150.0" y="1169" text-anchor="middle" font-size="15" fill="white" font-weight="700">사용자 / cfd-ticket-gui</text><path d="M563.3333333333333,155 V1142" stroke="#cbd5e1" stroke-dasharray="5 5"/><rect x="453.33333333333326" y="112" width="220" height="42" fill="#16a34a"/><text x="563.3333333333333" y="139" text-anchor="middle" font-size="15" fill="white" font-weight="700">TicketEditor</text><rect x="453.33333333333326" y="1142" width="220" height="42" fill="#16a34a"/><text x="563.3333333333333" y="1169" text-anchor="middle" font-size="15" fill="white" font-weight="700">TicketEditor</text><path d="M976.6666666666666,155 V1142" stroke="#cbd5e1" stroke-dasharray="5 5"/><rect x="866.6666666666666" y="112" width="220" height="42" fill="#16a34a"/><text x="976.6666666666666" y="139" text-anchor="middle" font-size="15" fill="white" font-weight="700">TicketService</text><rect x="866.6666666666666" y="1142" width="220" height="42" fill="#16a34a"/><text x="976.6666666666666" y="1169" text-anchor="middle" font-size="15" fill="white" font-weight="700">TicketService</text><path d="M1390.0,155 V1142" stroke="#cbd5e1" stroke-dasharray="5 5"/><rect x="1280.0" y="112" width="220" height="42" fill="#16a34a"/><text x="1390.0" y="139" text-anchor="middle" font-size="15" fill="white" font-weight="700">TicketRunner</text><rect x="1280.0" y="1142" width="220" height="42" fill="#16a34a"/><text x="1390.0" y="1169" text-anchor="middle" font-size="15" fill="white" font-weight="700">TicketRunner</text><rect x="557.3333333333333" y="198" width="12" height="700" fill="#f0fdf4" stroke="#86efac"/><rect x="557.3333333333333" y="282" width="12" height="250" fill="#f0fdf4" stroke="#86efac"/><rect x="557.3333333333333" y="590" width="12" height="250" fill="#f0fdf4" stroke="#86efac"/><rect x="557.3333333333333" y="340" width="12" height="134" fill="#f0fdf4" stroke="#86efac"/><rect x="557.3333333333333" y="648" width="12" height="134" fill="#f0fdf4" stroke="#86efac"/><rect x="970.6666666666666" y="398" width="12" height="38" fill="#f0fdf4" stroke="#86efac"/><rect x="1384.0" y="706" width="12" height="38" fill="#f0fdf4" stroke="#86efac"/><path d="M156.0,198 H556.3333333333333" fill="none" stroke="#16a34a" stroke-width="1.8" marker-end="url(#req)"/><text x="356.66666666666663" y="194" text-anchor="middle" font-size="15" fill="#111827">gui.TicketEditor.__init__(event 또는 현재 폼)</text><rect x="32" y="220" width="1536" height="38" rx="3" fill="#fffbeb" stroke="#fcd34d"/><text x="800.0" y="241" text-anchor="middle" font-size="14" fill="#854d0e">gui.launch → Tk 생성 → TicketEditor → root.mainloop</text><path d="M569.3333333333333,282 H673.3333333333333 V300 H569.3333333333333" fill="none" stroke="#16a34a" stroke-width="1.8" marker-end="url(#req)"/><text x="575.3333333333333" y="278" text-anchor="start" font-size="15" fill="#111827">gui.TicketEditor.new()</text><path d="M569.3333333333333,340 H673.3333333333333 V358 H569.3333333333333" fill="none" stroke="#16a34a" stroke-width="1.8" marker-end="url(#req)"/><text x="575.3333333333333" y="336" text-anchor="start" font-size="15" fill="#111827">gui.TicketEditor.refresh()</text><path d="M569.3333333333333,398 H969.6666666666666" fill="none" stroke="#16a34a" stroke-width="1.8" marker-end="url(#req)"/><text x="770.0" y="394" text-anchor="middle" font-size="15" fill="#111827">editor.TicketService.listing()</text><path d="M970.6666666666666,436 H570.3333333333333" fill="none" stroke="#0284c7" stroke-width="1.8" stroke-dasharray="6 4" marker-end="url(#ret)"/><text x="770.0" y="432" text-anchor="middle" font-size="15" fill="#0284c7">names</text><path d="M569.3333333333333,474 H673.3333333333333 V492 H569.3333333333333" fill="none" stroke="#0284c7" stroke-width="1.8" stroke-dasharray="6 4" marker-end="url(#ret)"/><text x="575.3333333333333" y="470" text-anchor="start" font-size="15" fill="#0284c7">None</text><path d="M569.3333333333333,532 H673.3333333333333 V550 H569.3333333333333" fill="none" stroke="#0284c7" stroke-width="1.8" stroke-dasharray="6 4" marker-end="url(#ret)"/><text x="575.3333333333333" y="528" text-anchor="start" font-size="15" fill="#0284c7">None</text><path d="M569.3333333333333,590 H673.3333333333333 V608 H569.3333333333333" fill="none" stroke="#16a34a" stroke-width="1.8" marker-end="url(#req)"/><text x="575.3333333333333" y="586" text-anchor="start" font-size="15" fill="#111827">gui.TicketEditor.poll_execution()</text><path d="M569.3333333333333,648 H673.3333333333333 V666 H569.3333333333333" fill="none" stroke="#16a34a" stroke-width="1.8" marker-end="url(#req)"/><text x="575.3333333333333" y="644" text-anchor="start" font-size="15" fill="#111827">gui.TicketEditor.update_execution_button()</text><path d="M569.3333333333333,706 H1383.0" fill="none" stroke="#16a34a" stroke-width="1.8" marker-end="url(#req)"/><text x="976.6666666666666" y="702" text-anchor="middle" font-size="15" fill="#111827">ticket_run.TicketRunner.state(name, fresh=False)</text><path d="M1384.0,744 H570.3333333333333" fill="none" stroke="#0284c7" stroke-width="1.8" stroke-dasharray="6 4" marker-end="url(#ret)"/><text x="976.6666666666666" y="740" text-anchor="middle" font-size="15" fill="#0284c7">RunState</text><path d="M569.3333333333333,782 H673.3333333333333 V800 H569.3333333333333" fill="none" stroke="#0284c7" stroke-width="1.8" stroke-dasharray="6 4" marker-end="url(#ret)"/><text x="575.3333333333333" y="778" text-anchor="start" font-size="15" fill="#0284c7">None</text><path d="M569.3333333333333,840 H673.3333333333333 V858 H569.3333333333333" fill="none" stroke="#0284c7" stroke-width="1.8" stroke-dasharray="6 4" marker-end="url(#ret)"/><text x="575.3333333333333" y="836" text-anchor="start" font-size="15" fill="#0284c7">None</text><path d="M557.3333333333333,898 H157.0" fill="none" stroke="#0284c7" stroke-width="1.8" stroke-dasharray="6 4" marker-end="url(#ret)"/><text x="356.66666666666663" y="894" text-anchor="middle" font-size="15" fill="#0284c7">None</text><rect x="24" y="930" width="1552" height="77" fill="#fff1f2" stroke="#fda4af"/><text x="42" y="952" text-anchor="start" font-size="15" fill="#9f1239" font-weight="700">alt [오류 / 거절 분기]</text><text x="42" y="977" text-anchor="start" font-size="14" fill="#9f1239">ValueError/OSError → messagebox; 초안 유지</text><text x="800.0" y="1047" text-anchor="middle" font-size="15" fill="#065f46" font-weight="700">최종 응답: Tk status / widget / dialog 반영</text></g></svg>
