<svg xmlns="http://www.w3.org/2000/svg" width="1600" height="1060" viewBox="0 0 1600 1060" role="img" aria-label="새 티켓"><title>UC-08-gui 새 티켓</title><defs><marker id="req" viewBox="0 0 10 10" refX="9" refY="5" markerWidth="7" markerHeight="7" orient="auto-start-reverse"><path d="M0 0 L10 5 L0 10 z" fill="#16a34a"/></marker><marker id="ret" viewBox="0 0 10 10" refX="9" refY="5" markerWidth="7" markerHeight="7" orient="auto-start-reverse"><path d="M0 0 L10 5 L0 10" fill="none" stroke="#0284c7" stroke-width="1.5"/></marker></defs><rect width="100%" height="100%" fill="white"/><g font-family="Noto Sans CJK KR, sans-serif"><text x="800.0" y="40" text-anchor="middle" font-size="27" fill="#0f172a" font-weight="700">UC-08-gui · 새 티켓</text><text x="800.0" y="71" text-anchor="middle" font-size="15" fill="#475569">cfd-ticket-gui | #20 운영 반영 · 함수 요청은 실선 → / 반환은 점선 ← / 시간은 위에서 아래로</text><text x="800.0" y="97" text-anchor="middle" font-size="14" fill="#475569">진입: Tk event → new</text><path d="M150.0,155 V950" stroke="#cbd5e1" stroke-dasharray="5 5"/><rect x="40.0" y="112" width="220" height="42" fill="#16a34a"/><text x="150.0" y="139" text-anchor="middle" font-size="15" fill="white" font-weight="700">사용자 / cfd-ticket-gui</text><rect x="40.0" y="950" width="220" height="42" fill="#16a34a"/><text x="150.0" y="977" text-anchor="middle" font-size="15" fill="white" font-weight="700">사용자 / cfd-ticket-gui</text><path d="M770.0,155 V950" stroke="#cbd5e1" stroke-dasharray="5 5"/><rect x="660.0" y="112" width="220" height="42" fill="#16a34a"/><text x="770.0" y="139" text-anchor="middle" font-size="15" fill="white" font-weight="700">TicketEditor</text><rect x="660.0" y="950" width="220" height="42" fill="#16a34a"/><text x="770.0" y="977" text-anchor="middle" font-size="15" fill="white" font-weight="700">TicketEditor</text><path d="M1390.0,155 V950" stroke="#cbd5e1" stroke-dasharray="5 5"/><rect x="1280.0" y="112" width="220" height="42" fill="#16a34a"/><text x="1390.0" y="139" text-anchor="middle" font-size="15" fill="white" font-weight="700">editor</text><rect x="1280.0" y="950" width="220" height="42" fill="#16a34a"/><text x="1390.0" y="977" text-anchor="middle" font-size="15" fill="white" font-weight="700">editor</text><rect x="764.0" y="198" width="12" height="508" fill="#f0fdf4" stroke="#86efac"/><rect x="764.0" y="398" width="12" height="134" fill="#f0fdf4" stroke="#86efac"/><rect x="764.0" y="282" width="12" height="58" fill="#f0fdf4" stroke="#86efac"/><rect x="764.0" y="590" width="12" height="58" fill="#f0fdf4" stroke="#86efac"/><rect x="1384.0" y="456" width="12" height="38" fill="#f0fdf4" stroke="#86efac"/><path d="M156.0,198 H763.0" fill="none" stroke="#16a34a" stroke-width="1.8" marker-end="url(#req)"/><text x="460.0" y="194" text-anchor="middle" font-size="15" fill="#111827">gui.TicketEditor.new(event 또는 현재 폼)</text><rect x="32" y="220" width="1536" height="38" rx="3" fill="#fffbeb" stroke="#fcd34d"/><text x="800.0" y="241" text-anchor="middle" font-size="14" fill="#854d0e">GUI new는 TicketService.new 대신 공용 TEMPLATE/form_values 사용</text><path d="M776.0,282 H880.0 V300 H776.0" fill="none" stroke="#16a34a" stroke-width="1.8" marker-end="url(#req)"/><text x="782.0" y="278" text-anchor="start" font-size="15" fill="#111827">gui.TicketEditor.confirm_switch()</text><path d="M776.0,340 H880.0 V358 H776.0" fill="none" stroke="#0284c7" stroke-width="1.8" stroke-dasharray="6 4" marker-end="url(#ret)"/><text x="782.0" y="336" text-anchor="start" font-size="15" fill="#0284c7">bool</text><path d="M776.0,398 H880.0 V416 H776.0" fill="none" stroke="#16a34a" stroke-width="1.8" marker-end="url(#req)"/><text x="782.0" y="394" text-anchor="start" font-size="15" fill="#111827">gui.TicketEditor.set_form(TEMPLATE)</text><path d="M776.0,456 H1383.0" fill="none" stroke="#16a34a" stroke-width="1.8" marker-end="url(#req)"/><text x="1080.0" y="452" text-anchor="middle" font-size="15" fill="#111827">editor.form_values(data,tickets_dir)</text><path d="M1384.0,494 H777.0" fill="none" stroke="#0284c7" stroke-width="1.8" stroke-dasharray="6 4" marker-end="url(#ret)"/><text x="1080.0" y="490" text-anchor="middle" font-size="15" fill="#0284c7">FormValues</text><path d="M776.0,532 H880.0 V550 H776.0" fill="none" stroke="#0284c7" stroke-width="1.8" stroke-dasharray="6 4" marker-end="url(#ret)"/><text x="782.0" y="528" text-anchor="start" font-size="15" fill="#0284c7">None</text><path d="M776.0,590 H880.0 V608 H776.0" fill="none" stroke="#16a34a" stroke-width="1.8" marker-end="url(#req)"/><text x="782.0" y="586" text-anchor="start" font-size="15" fill="#111827">gui.TicketEditor.refresh()</text><path d="M776.0,648 H880.0 V666 H776.0" fill="none" stroke="#0284c7" stroke-width="1.8" stroke-dasharray="6 4" marker-end="url(#ret)"/><text x="782.0" y="644" text-anchor="start" font-size="15" fill="#0284c7">None</text><path d="M764.0,706 H157.0" fill="none" stroke="#0284c7" stroke-width="1.8" stroke-dasharray="6 4" marker-end="url(#ret)"/><text x="460.0" y="702" text-anchor="middle" font-size="15" fill="#0284c7">None</text><rect x="24" y="738" width="1552" height="77" fill="#fff1f2" stroke="#fda4af"/><text x="42" y="760" text-anchor="start" font-size="15" fill="#9f1239" font-weight="700">alt [오류 / 거절 분기]</text><text x="42" y="785" text-anchor="start" font-size="14" fill="#9f1239">ValueError/OSError → messagebox; 초안 유지</text><text x="800.0" y="855" text-anchor="middle" font-size="15" fill="#065f46" font-weight="700">최종 응답: Tk status / widget / dialog 반영</text></g></svg>
