<svg xmlns="http://www.w3.org/2000/svg" width="6260" height="5686" viewBox="0 0 6260 5686" role="img" aria-label="즉시 실행·이름 있는 대기열 등록"><title>UC-18-tg 즉시 실행·이름 있는 대기열 등록</title><defs><marker id="req" viewBox="0 0 10 10" refX="9" refY="5" markerWidth="7" markerHeight="7" orient="auto-start-reverse"><path d="M0 0 L10 5 L0 10 z" fill="#16a34a"/></marker><marker id="ret" viewBox="0 0 10 10" refX="9" refY="5" markerWidth="7" markerHeight="7" orient="auto-start-reverse"><path d="M0 0 L10 5 L0 10" fill="none" stroke="#0284c7" stroke-width="1.5"/></marker></defs><rect width="100%" height="100%" fill="white"/><g font-family="Noto Sans CJK KR, sans-serif"><text x="3130.0" y="40" text-anchor="middle" font-size="27" fill="#0f172a" font-weight="700">UC-18-tg · 즉시 실행·이름 있는 대기열 등록</text><text x="3130.0" y="71" text-anchor="middle" font-size="15" fill="#475569">Telegram | #24 현재 head 기반 admission 반영 · 함수 요청은 실선 → / 반환은 점선 ← / 시간은 위에서 아래로</text><text x="3130.0" y="97" text-anchor="middle" font-size="14" fill="#475569">진입: runstate / runreview / runyes</text><path d="M150.0,155 V5576" stroke="#cbd5e1" stroke-dasharray="5 5"/><rect x="40.0" y="112" width="220" height="42" fill="#16a34a"/><text x="150.0" y="139" text-anchor="middle" font-size="15" fill="white" font-weight="700">사용자 / Telegram</text><rect x="40.0" y="5576" width="220" height="42" fill="#16a34a"/><text x="150.0" y="5603" text-anchor="middle" font-size="15" fill="white" font-weight="700">사용자 / Telegram</text><path d="M641.6666666666667,155 V5576" stroke="#cbd5e1" stroke-dasharray="5 5"/><rect x="531.6666666666667" y="112" width="220" height="42" fill="#16a34a"/><text x="641.6666666666667" y="139" text-anchor="middle" font-size="15" fill="white" font-weight="700">Bot</text><rect x="531.6666666666667" y="5576" width="220" height="42" fill="#16a34a"/><text x="641.6666666666667" y="5603" text-anchor="middle" font-size="15" fill="white" font-weight="700">Bot</text><path d="M1133.3333333333335,155 V5576" stroke="#cbd5e1" stroke-dasharray="5 5"/><rect x="1023.3333333333335" y="112" width="220" height="42" fill="#16a34a"/><text x="1133.3333333333335" y="139" text-anchor="middle" font-size="15" fill="white" font-weight="700">TicketChat</text><rect x="1023.3333333333335" y="5576" width="220" height="42" fill="#16a34a"/><text x="1133.3333333333335" y="5603" text-anchor="middle" font-size="15" fill="white" font-weight="700">TicketChat</text><path d="M1625.0,155 V5576" stroke="#cbd5e1" stroke-dasharray="5 5"/><rect x="1515.0" y="112" width="220" height="42" fill="#16a34a"/><text x="1625.0" y="139" text-anchor="middle" font-size="15" fill="white" font-weight="700">TicketRunner</text><rect x="1515.0" y="5576" width="220" height="42" fill="#16a34a"/><text x="1625.0" y="5603" text-anchor="middle" font-size="15" fill="white" font-weight="700">TicketRunner</text><path d="M2116.666666666667,155 V5576" stroke="#cbd5e1" stroke-dasharray="5 5"/><rect x="2006.666666666667" y="112" width="220" height="42" fill="#16a34a"/><text x="2116.666666666667" y="139" text-anchor="middle" font-size="15" fill="white" font-weight="700">processes</text><rect x="2006.666666666667" y="5576" width="220" height="42" fill="#16a34a"/><text x="2116.666666666667" y="5603" text-anchor="middle" font-size="15" fill="white" font-weight="700">processes</text><path d="M2608.3333333333335,155 V5576" stroke="#cbd5e1" stroke-dasharray="5 5"/><rect x="2498.3333333333335" y="112" width="220" height="42" fill="#16a34a"/><text x="2608.3333333333335" y="139" text-anchor="middle" font-size="15" fill="white" font-weight="700">subprocess</text><rect x="2498.3333333333335" y="5576" width="220" height="42" fill="#16a34a"/><text x="2608.3333333333335" y="5603" text-anchor="middle" font-size="15" fill="white" font-weight="700">subprocess</text><path d="M3100.0,155 V5576" stroke="#cbd5e1" stroke-dasharray="5 5"/><rect x="2990.0" y="112" width="220" height="42" fill="#16a34a"/><text x="3100.0" y="139" text-anchor="middle" font-size="15" fill="white" font-weight="700">ofps 프로세스</text><rect x="2990.0" y="5576" width="220" height="42" fill="#16a34a"/><text x="3100.0" y="5603" text-anchor="middle" font-size="15" fill="white" font-weight="700">ofps 프로세스</text><path d="M3591.6666666666665,155 V5576" stroke="#cbd5e1" stroke-dasharray="5 5"/><rect x="3481.6666666666665" y="112" width="220" height="42" fill="#16a34a"/><text x="3591.6666666666665" y="139" text-anchor="middle" font-size="15" fill="white" font-weight="700">SQLite Store</text><rect x="3481.6666666666665" y="5576" width="220" height="42" fill="#16a34a"/><text x="3591.6666666666665" y="5603" text-anchor="middle" font-size="15" fill="white" font-weight="700">SQLite Store</text><path d="M4083.3333333333335,155 V5576" stroke="#cbd5e1" stroke-dasharray="5 5"/><rect x="3973.3333333333335" y="112" width="220" height="42" fill="#16a34a"/><text x="4083.3333333333335" y="139" text-anchor="middle" font-size="15" fill="white" font-weight="700">TicketService</text><rect x="3973.3333333333335" y="5576" width="220" height="42" fill="#16a34a"/><text x="4083.3333333333335" y="5603" text-anchor="middle" font-size="15" fill="white" font-weight="700">TicketService</text><path d="M4575.0,155 V5576" stroke="#cbd5e1" stroke-dasharray="5 5"/><rect x="4465.0" y="112" width="220" height="42" fill="#16a34a"/><text x="4575.0" y="139" text-anchor="middle" font-size="15" fill="white" font-weight="700">tickets</text><rect x="4465.0" y="5576" width="220" height="42" fill="#16a34a"/><text x="4575.0" y="5603" text-anchor="middle" font-size="15" fill="white" font-weight="700">tickets</text><path d="M5066.666666666667,155 V5576" stroke="#cbd5e1" stroke-dasharray="5 5"/><rect x="4956.666666666667" y="112" width="220" height="42" fill="#16a34a"/><text x="5066.666666666667" y="139" text-anchor="middle" font-size="15" fill="white" font-weight="700">config</text><rect x="4956.666666666667" y="5576" width="220" height="42" fill="#16a34a"/><text x="5066.666666666667" y="5603" text-anchor="middle" font-size="15" fill="white" font-weight="700">config</text><path d="M5558.333333333333,155 V5576" stroke="#cbd5e1" stroke-dasharray="5 5"/><rect x="5448.333333333333" y="112" width="220" height="42" fill="#16a34a"/><text x="5558.333333333333" y="139" text-anchor="middle" font-size="15" fill="white" font-weight="700">Telegram client</text><rect x="5448.333333333333" y="5576" width="220" height="42" fill="#16a34a"/><text x="5558.333333333333" y="5603" text-anchor="middle" font-size="15" fill="white" font-weight="700">Telegram client</text><path d="M6050.0,155 V5576" stroke="#cbd5e1" stroke-dasharray="5 5"/><rect x="5940.0" y="112" width="220" height="42" fill="#16a34a"/><text x="6050.0" y="139" text-anchor="middle" font-size="15" fill="white" font-weight="700">Telegram Bot API</text><rect x="5940.0" y="5576" width="220" height="42" fill="#16a34a"/><text x="6050.0" y="5603" text-anchor="middle" font-size="15" fill="white" font-weight="700">Telegram Bot API</text><rect x="635.6666666666667" y="198" width="12" height="5134" fill="#f0fdf4" stroke="#86efac"/><rect x="1127.3333333333335" y="282" width="12" height="5012" fill="#f0fdf4" stroke="#86efac"/><rect x="1127.3333333333335" y="384" width="12" height="4852" fill="#f0fdf4" stroke="#86efac"/><rect x="1619.0" y="1896" width="12" height="2364" fill="#f0fdf4" stroke="#86efac"/><rect x="1619.0" y="488" width="12" height="1294" fill="#f0fdf4" stroke="#86efac"/><rect x="1619.0" y="1934" width="12" height="1244" fill="#f0fdf4" stroke="#86efac"/><rect x="1619.0" y="526" width="12" height="1198" fill="#f0fdf4" stroke="#86efac"/><rect x="2110.666666666667" y="584" width="12" height="1026" fill="#f0fdf4" stroke="#86efac"/><rect x="2110.666666666667" y="2038" width="12" height="1026" fill="#f0fdf4" stroke="#86efac"/><rect x="1127.3333333333335" y="4392" width="12" height="786" fill="#f0fdf4" stroke="#86efac"/><rect x="1127.3333333333335" y="4486" width="12" height="634" fill="#f0fdf4" stroke="#86efac"/><rect x="2110.666666666667" y="1082" width="12" height="470" fill="#f0fdf4" stroke="#86efac"/><rect x="2110.666666666667" y="2536" width="12" height="470" fill="#f0fdf4" stroke="#86efac"/><rect x="1619.0" y="3644" width="12" height="436" fill="#f0fdf4" stroke="#86efac"/><rect x="2602.3333333333335" y="686" width="12" height="340" fill="#f0fdf4" stroke="#86efac"/><rect x="2602.3333333333335" y="2140" width="12" height="340" fill="#f0fdf4" stroke="#86efac"/><rect x="3094.0" y="770" width="12" height="218" fill="#f0fdf4" stroke="#86efac"/><rect x="3094.0" y="2224" width="12" height="218" fill="#f0fdf4" stroke="#86efac"/><rect x="5552.333333333333" y="4800" width="12" height="206" fill="#f0fdf4" stroke="#86efac"/><rect x="1619.0" y="3358" width="12" height="134" fill="#f0fdf4" stroke="#86efac"/><rect x="1127.3333333333335" y="4608" width="12" height="134" fill="#f0fdf4" stroke="#86efac"/><rect x="2110.666666666667" y="1274" width="12" height="104" fill="#f0fdf4" stroke="#86efac"/><rect x="2110.666666666667" y="2728" width="12" height="104" fill="#f0fdf4" stroke="#86efac"/><rect x="1619.0" y="3918" width="12" height="104" fill="#f0fdf4" stroke="#86efac"/><rect x="4569.0" y="3236" width="12" height="84" fill="#f0fdf4" stroke="#86efac"/><rect x="4569.0" y="4138" width="12" height="84" fill="#f0fdf4" stroke="#86efac"/><rect x="6044.0" y="4884" width="12" height="84" fill="#f0fdf4" stroke="#86efac"/><rect x="3094.0" y="872" width="12" height="58" fill="#f0fdf4" stroke="#86efac"/><rect x="2110.666666666667" y="1140" width="12" height="58" fill="#f0fdf4" stroke="#86efac"/><rect x="2110.666666666667" y="1436" width="12" height="58" fill="#f0fdf4" stroke="#86efac"/><rect x="3094.0" y="2326" width="12" height="58" fill="#f0fdf4" stroke="#86efac"/><rect x="2110.666666666667" y="2594" width="12" height="58" fill="#f0fdf4" stroke="#86efac"/><rect x="2110.666666666667" y="2890" width="12" height="58" fill="#f0fdf4" stroke="#86efac"/><rect x="3585.6666666666665" y="1648" width="12" height="38" fill="#f0fdf4" stroke="#86efac"/><rect x="4077.3333333333335" y="1820" width="12" height="38" fill="#f0fdf4" stroke="#86efac"/><rect x="3585.6666666666665" y="3102" width="12" height="38" fill="#f0fdf4" stroke="#86efac"/><rect x="5060.666666666667" y="3416" width="12" height="38" fill="#f0fdf4" stroke="#86efac"/><rect x="4077.3333333333335" y="3550" width="12" height="38" fill="#f0fdf4" stroke="#86efac"/><rect x="3585.6666666666665" y="3748" width="12" height="38" fill="#f0fdf4" stroke="#86efac"/><rect x="3585.6666666666665" y="3824" width="12" height="38" fill="#f0fdf4" stroke="#86efac"/><rect x="4077.3333333333335" y="4298" width="12" height="38" fill="#f0fdf4" stroke="#86efac"/><rect x="3585.6666666666665" y="4666" width="12" height="38" fill="#f0fdf4" stroke="#86efac"/><rect x="635.6666666666667" y="5044" width="12" height="38" fill="#f0fdf4" stroke="#86efac"/><path d="M156.0,198 H634.6666666666667" fill="none" stroke="#16a34a" stroke-width="1.8" marker-end="url(#req)"/><text x="395.83333333333337" y="194" text-anchor="middle" font-size="15" fill="#111827">bot.Bot.handle(update)</text><rect x="32" y="220" width="6196" height="38" rx="3" fill="#fffbeb" stroke="#fcd34d"/><text x="3130.0" y="241" text-anchor="middle" font-size="14" fill="#854d0e">sender/chat 인증; callback ACK는 별도 thread</text><path d="M647.6666666666667,282 H1126.3333333333335" fill="none" stroke="#16a34a" stroke-width="1.8" marker-end="url(#req)"/><text x="887.5000000000001" y="278" text-anchor="middle" font-size="15" fill="#111827">ticket_chat.TicketChat.handle(update)</text><rect x="32" y="304" width="6196" height="38" rx="3" fill="#fffbeb" stroke="#fcd34d"/><text x="3130.0" y="325" text-anchor="middle" font-size="14" fill="#854d0e">진입/입력 명령은 handle에서 직접 분기</text><path d="M1139.3333333333335,384 H1243.3333333333335 V402 H1139.3333333333335" fill="none" stroke="#16a34a" stroke-width="1.8" marker-end="url(#req)"/><text x="1145.3333333333335" y="362" text-anchor="start" font-size="15" fill="#111827">ticket_chat.TicketChat.action(chat,</text><text x="1145.3333333333335" y="380" text-anchor="start" font-size="15" fill="#111827">user, session, op, arg)</text><rect x="32" y="426" width="6196" height="38" rx="3" fill="#fffbeb" stroke="#fcd34d"/><text x="3130.0" y="447" text-anchor="middle" font-size="14" fill="#854d0e">token 확인 후 op 분기; RLock 유지</text><path d="M1139.3333333333335,488 H1618.0" fill="none" stroke="#16a34a" stroke-width="1.8" marker-end="url(#req)"/><text x="1379.1666666666667" y="484" text-anchor="middle" font-size="15" fill="#111827">ticket_run.TicketRunner.state(name,fresh=True)</text><path d="M1631.0,526 H1735.0 V544 H1631.0" fill="none" stroke="#16a34a" stroke-width="1.8" marker-end="url(#req)"/><text x="1637.0" y="522" text-anchor="start" font-size="15" fill="#111827">ticket_run.TicketRunner._snapshot()</text><path d="M1631.0,584 H2109.666666666667" fill="none" stroke="#16a34a" stroke-width="1.8" marker-end="url(#req)"/><a href="D-04.svg" target="_blank"><text x="1870.8333333333335" y="580" text-anchor="middle" font-size="15" fill="#111827">processes.snapshot(ofps_command)</text></a><rect x="32" y="606" width="6196" height="38" rx="3" fill="#fffbeb" stroke="#fcd34d"/><text x="3130.0" y="627" text-anchor="middle" font-size="14" fill="#854d0e">SNAPSHOT_LOCK 획득 대기 → subprocess 실행 중 보유 → 해제 → parse</text><path d="M2122.666666666667,686 H2601.3333333333335" fill="none" stroke="#16a34a" stroke-width="1.8" marker-end="url(#req)"/><text x="2362.5" y="664" text-anchor="middle" font-size="15" fill="#111827">subprocess.run(command, env=managed_scan_environment(),</text><text x="2362.5" y="682" text-anchor="middle" font-size="15" fill="#111827">timeout=45)</text><rect x="32" y="708" width="6196" height="38" rx="3" fill="#fffbeb" stroke="#fcd34d"/><text x="3130.0" y="729" text-anchor="middle" font-size="14" fill="#854d0e">SNAPSHOT_LOCK 안: 대기 시간 제한 없음; run 시간만 45초</text><path d="M2614.3333333333335,770 H3093.0" fill="none" stroke="#16a34a" stroke-width="1.8" marker-end="url(#req)"/><text x="2854.166666666667" y="766" text-anchor="middle" font-size="15" fill="#111827">scan_and_sync(새 프로세스; CFD_BOT_OFPS_MANAGED=1)</text><rect x="32" y="792" width="6196" height="38" rx="3" fill="#fffbeb" stroke="#fcd34d"/><text x="3130.0" y="813" text-anchor="middle" font-size="14" fill="#854d0e">managed 모드: 내부 ticket sync 생략; scan 자체는 실행</text><path d="M3106.0,872 H3210.0 V890 H3106.0" fill="none" stroke="#16a34a" stroke-width="1.8" marker-end="url(#req)"/><text x="3112.0" y="850" text-anchor="start" font-size="15" fill="#111827">scan_once(records_file; /proc</text><text x="3112.0" y="868" text-anchor="start" font-size="15" fill="#111827">/ ps 탐색)</text><path d="M3106.0,930 H3210.0 V948 H3106.0" fill="none" stroke="#0284c7" stroke-width="1.8" stroke-dasharray="6 4" marker-end="url(#ret)"/><text x="3112.0" y="926" text-anchor="start" font-size="15" fill="#0284c7">ENGINE / CASE / process table</text><path d="M3094.0,988 H2615.3333333333335" fill="none" stroke="#0284c7" stroke-width="1.8" stroke-dasharray="6 4" marker-end="url(#ret)"/><text x="2854.166666666667" y="984" text-anchor="middle" font-size="15" fill="#0284c7">stdout / stderr / exit code</text><path d="M2602.3333333333335,1026 H2123.666666666667" fill="none" stroke="#0284c7" stroke-width="1.8" stroke-dasharray="6 4" marker-end="url(#ret)"/><text x="2362.5" y="1022" text-anchor="middle" font-size="15" fill="#0284c7">CompletedProcess</text><path d="M2122.666666666667,1082 H2226.666666666667 V1100 H2122.666666666667" fill="none" stroke="#16a34a" stroke-width="1.8" marker-end="url(#req)"/><text x="2128.666666666667" y="1060" text-anchor="start" font-size="15" fill="#111827">processes.parse_snapshot(stdout;</text><text x="2128.666666666667" y="1078" text-anchor="start" font-size="15" fill="#111827">lock 해제 후)</text><path d="M2122.666666666667,1140 H2226.666666666667 V1158 H2122.666666666667" fill="none" stroke="#16a34a" stroke-width="1.8" marker-end="url(#req)"/><text x="2128.666666666667" y="1136" text-anchor="start" font-size="15" fill="#111827">processes.identity(PID)</text><path d="M2122.666666666667,1198 H2226.666666666667 V1216 H2122.666666666667" fill="none" stroke="#0284c7" stroke-width="1.8" stroke-dasharray="6 4" marker-end="url(#ret)"/><text x="2128.666666666667" y="1194" text-anchor="start" font-size="15" fill="#0284c7">boot:pid:starttick | None</text><path d="M2122.666666666667,1274 H2226.666666666667 V1292 H2122.666666666667" fill="none" stroke="#16a34a" stroke-width="1.8" marker-end="url(#req)"/><text x="2128.666666666667" y="1252" text-anchor="start" font-size="15" fill="#111827">processes.owner_label(supervisor</text><text x="2128.666666666667" y="1270" text-anchor="start" font-size="15" fill="#111827">또는 첫 PID)</text><rect x="32" y="1316" width="6196" height="38" rx="3" fill="#fffbeb" stroke="#fcd34d"/><text x="3130.0" y="1337" text-anchor="middle" font-size="14" fill="#854d0e">/proc 조상 최대 64단계, 환경/TTY 확인</text><path d="M2122.666666666667,1378 H2226.666666666667 V1396 H2122.666666666667" fill="none" stroke="#0284c7" stroke-width="1.8" stroke-dasharray="6 4" marker-end="url(#ret)"/><text x="2128.666666666667" y="1374" text-anchor="start" font-size="15" fill="#0284c7">str</text><path d="M2122.666666666667,1436 H2226.666666666667 V1454 H2122.666666666667" fill="none" stroke="#16a34a" stroke-width="1.8" marker-end="url(#req)"/><text x="2128.666666666667" y="1432" text-anchor="start" font-size="15" fill="#111827">processes.cpu_layout(ProcessRecord)</text><path d="M2122.666666666667,1494 H2226.666666666667 V1512 H2122.666666666667" fill="none" stroke="#0284c7" stroke-width="1.8" stroke-dasharray="6 4" marker-end="url(#ret)"/><text x="2128.666666666667" y="1490" text-anchor="start" font-size="15" fill="#0284c7">(core_count, cpu_ranges)</text><path d="M2122.666666666667,1552 H2226.666666666667 V1570 H2122.666666666667" fill="none" stroke="#0284c7" stroke-width="1.8" stroke-dasharray="6 4" marker-end="url(#ret)"/><text x="2128.666666666667" y="1548" text-anchor="start" font-size="15" fill="#0284c7">dict[root, ProcessRecord]</text><path d="M2110.666666666667,1610 H1632.0" fill="none" stroke="#0284c7" stroke-width="1.8" stroke-dasharray="6 4" marker-end="url(#ret)"/><text x="1870.8333333333335" y="1606" text-anchor="middle" font-size="15" fill="#0284c7">{raw, cases}</text><path d="M1631.0,1648 H3584.6666666666665" fill="none" stroke="#16a34a" stroke-width="1.8" marker-end="url(#req)"/><text x="2608.333333333333" y="1644" text-anchor="middle" font-size="15" fill="#111827">storage.Store.put(snapshot, at 포함 current)</text><path d="M3585.6666666666665,1686 H1632.0" fill="none" stroke="#0284c7" stroke-width="1.8" stroke-dasharray="6 4" marker-end="url(#ret)"/><text x="2608.333333333333" y="1682" text-anchor="middle" font-size="15" fill="#0284c7">None</text><path d="M1631.0,1724 H1735.0 V1742 H1631.0" fill="none" stroke="#0284c7" stroke-width="1.8" stroke-dasharray="6 4" marker-end="url(#ret)"/><text x="1637.0" y="1720" text-anchor="start" font-size="15" fill="#0284c7">Snapshot</text><path d="M1619.0,1782 H1140.3333333333335" fill="none" stroke="#0284c7" stroke-width="1.8" stroke-dasharray="6 4" marker-end="url(#ret)"/><text x="1379.1666666666667" y="1778" text-anchor="middle" font-size="15" fill="#0284c7">RunState + 현재 head capacity/전체 max 안내</text><path d="M1139.3333333333335,1820 H4076.3333333333335" fill="none" stroke="#16a34a" stroke-width="1.8" marker-end="url(#req)"/><a href="D-02.svg" target="_blank"><text x="2608.3333333333335" y="1816" text-anchor="middle" font-size="15" fill="#111827">editor.TicketService.save(dirty draft: values,revision,submit=False)</text></a><path d="M4077.3333333333335,1858 H1140.3333333333335" fill="none" stroke="#0284c7" stroke-width="1.8" stroke-dasharray="6 4" marker-end="url(#ret)"/><text x="2608.3333333333335" y="1854" text-anchor="middle" font-size="15" fill="#0284c7">(name,data)</text><path d="M1139.3333333333335,1896 H1618.0" fill="none" stroke="#16a34a" stroke-width="1.8" marker-end="url(#req)"/><a href="D-03.svg" target="_blank"><text x="1379.1666666666667" y="1892" text-anchor="middle" font-size="15" fill="#111827">ticket_run.TicketRunner.request(name,revision,request_id,mode)</text></a><path d="M1631.0,1934 H1735.0 V1952 H1631.0" fill="none" stroke="#16a34a" stroke-width="1.8" marker-end="url(#req)"/><text x="1637.0" y="1930" text-anchor="start" font-size="15" fill="#111827">ticket_run.TicketRunner._snapshot(config)</text><rect x="32" y="1976" width="6196" height="38" rx="3" fill="#fffbeb" stroke="#fcd34d"/><text x="3130.0" y="1997" text-anchor="middle" font-size="14" fill="#854d0e">flock 이전; scan 실패를 ValueError로 변환</text><path d="M1631.0,2038 H2109.666666666667" fill="none" stroke="#16a34a" stroke-width="1.8" marker-end="url(#req)"/><a href="D-04.svg" target="_blank"><text x="1870.8333333333335" y="2034" text-anchor="middle" font-size="15" fill="#111827">processes.snapshot(ofps_command)</text></a><rect x="32" y="2060" width="6196" height="38" rx="3" fill="#fffbeb" stroke="#fcd34d"/><text x="3130.0" y="2081" text-anchor="middle" font-size="14" fill="#854d0e">SNAPSHOT_LOCK 획득 대기 → subprocess 실행 중 보유 → 해제 → parse</text><path d="M2122.666666666667,2140 H2601.3333333333335" fill="none" stroke="#16a34a" stroke-width="1.8" marker-end="url(#req)"/><text x="2362.5" y="2118" text-anchor="middle" font-size="15" fill="#111827">subprocess.run(command, env=managed_scan_environment(),</text><text x="2362.5" y="2136" text-anchor="middle" font-size="15" fill="#111827">timeout=45)</text><rect x="32" y="2162" width="6196" height="38" rx="3" fill="#fffbeb" stroke="#fcd34d"/><text x="3130.0" y="2183" text-anchor="middle" font-size="14" fill="#854d0e">SNAPSHOT_LOCK 안: 대기 시간 제한 없음; run 시간만 45초</text><path d="M2614.3333333333335,2224 H3093.0" fill="none" stroke="#16a34a" stroke-width="1.8" marker-end="url(#req)"/><text x="2854.166666666667" y="2220" text-anchor="middle" font-size="15" fill="#111827">scan_and_sync(새 프로세스; CFD_BOT_OFPS_MANAGED=1)</text><rect x="32" y="2246" width="6196" height="38" rx="3" fill="#fffbeb" stroke="#fcd34d"/><text x="3130.0" y="2267" text-anchor="middle" font-size="14" fill="#854d0e">managed 모드: 내부 ticket sync 생략; scan 자체는 실행</text><path d="M3106.0,2326 H3210.0 V2344 H3106.0" fill="none" stroke="#16a34a" stroke-width="1.8" marker-end="url(#req)"/><text x="3112.0" y="2304" text-anchor="start" font-size="15" fill="#111827">scan_once(records_file; /proc</text><text x="3112.0" y="2322" text-anchor="start" font-size="15" fill="#111827">/ ps 탐색)</text><path d="M3106.0,2384 H3210.0 V2402 H3106.0" fill="none" stroke="#0284c7" stroke-width="1.8" stroke-dasharray="6 4" marker-end="url(#ret)"/><text x="3112.0" y="2380" text-anchor="start" font-size="15" fill="#0284c7">ENGINE / CASE / process table</text><path d="M3094.0,2442 H2615.3333333333335" fill="none" stroke="#0284c7" stroke-width="1.8" stroke-dasharray="6 4" marker-end="url(#ret)"/><text x="2854.166666666667" y="2438" text-anchor="middle" font-size="15" fill="#0284c7">stdout / stderr / exit code</text><path d="M2602.3333333333335,2480 H2123.666666666667" fill="none" stroke="#0284c7" stroke-width="1.8" stroke-dasharray="6 4" marker-end="url(#ret)"/><text x="2362.5" y="2476" text-anchor="middle" font-size="15" fill="#0284c7">CompletedProcess</text><path d="M2122.666666666667,2536 H2226.666666666667 V2554 H2122.666666666667" fill="none" stroke="#16a34a" stroke-width="1.8" marker-end="url(#req)"/><text x="2128.666666666667" y="2514" text-anchor="start" font-size="15" fill="#111827">processes.parse_snapshot(stdout;</text><text x="2128.666666666667" y="2532" text-anchor="start" font-size="15" fill="#111827">lock 해제 후)</text><path d="M2122.666666666667,2594 H2226.666666666667 V2612 H2122.666666666667" fill="none" stroke="#16a34a" stroke-width="1.8" marker-end="url(#req)"/><text x="2128.666666666667" y="2590" text-anchor="start" font-size="15" fill="#111827">processes.identity(PID)</text><path d="M2122.666666666667,2652 H2226.666666666667 V2670 H2122.666666666667" fill="none" stroke="#0284c7" stroke-width="1.8" stroke-dasharray="6 4" marker-end="url(#ret)"/><text x="2128.666666666667" y="2648" text-anchor="start" font-size="15" fill="#0284c7">boot:pid:starttick | None</text><path d="M2122.666666666667,2728 H2226.666666666667 V2746 H2122.666666666667" fill="none" stroke="#16a34a" stroke-width="1.8" marker-end="url(#req)"/><text x="2128.666666666667" y="2706" text-anchor="start" font-size="15" fill="#111827">processes.owner_label(supervisor</text><text x="2128.666666666667" y="2724" text-anchor="start" font-size="15" fill="#111827">또는 첫 PID)</text><rect x="32" y="2770" width="6196" height="38" rx="3" fill="#fffbeb" stroke="#fcd34d"/><text x="3130.0" y="2791" text-anchor="middle" font-size="14" fill="#854d0e">/proc 조상 최대 64단계, 환경/TTY 확인</text><path d="M2122.666666666667,2832 H2226.666666666667 V2850 H2122.666666666667" fill="none" stroke="#0284c7" stroke-width="1.8" stroke-dasharray="6 4" marker-end="url(#ret)"/><text x="2128.666666666667" y="2828" text-anchor="start" font-size="15" fill="#0284c7">str</text><path d="M2122.666666666667,2890 H2226.666666666667 V2908 H2122.666666666667" fill="none" stroke="#16a34a" stroke-width="1.8" marker-end="url(#req)"/><text x="2128.666666666667" y="2886" text-anchor="start" font-size="15" fill="#111827">processes.cpu_layout(ProcessRecord)</text><path d="M2122.666666666667,2948 H2226.666666666667 V2966 H2122.666666666667" fill="none" stroke="#0284c7" stroke-width="1.8" stroke-dasharray="6 4" marker-end="url(#ret)"/><text x="2128.666666666667" y="2944" text-anchor="start" font-size="15" fill="#0284c7">(core_count, cpu_ranges)</text><path d="M2122.666666666667,3006 H2226.666666666667 V3024 H2122.666666666667" fill="none" stroke="#0284c7" stroke-width="1.8" stroke-dasharray="6 4" marker-end="url(#ret)"/><text x="2128.666666666667" y="3002" text-anchor="start" font-size="15" fill="#0284c7">dict[root, ProcessRecord]</text><path d="M2110.666666666667,3064 H1632.0" fill="none" stroke="#0284c7" stroke-width="1.8" stroke-dasharray="6 4" marker-end="url(#ret)"/><text x="1870.8333333333335" y="3060" text-anchor="middle" font-size="15" fill="#0284c7">{raw, cases}</text><path d="M1631.0,3102 H3584.6666666666665" fill="none" stroke="#16a34a" stroke-width="1.8" marker-end="url(#req)"/><text x="2608.333333333333" y="3098" text-anchor="middle" font-size="15" fill="#111827">storage.Store.put(snapshot, current)</text><path d="M3585.6666666666665,3140 H1632.0" fill="none" stroke="#0284c7" stroke-width="1.8" stroke-dasharray="6 4" marker-end="url(#ret)"/><text x="2608.333333333333" y="3136" text-anchor="middle" font-size="15" fill="#0284c7">None</text><path d="M1631.0,3178 H1735.0 V3196 H1631.0" fill="none" stroke="#0284c7" stroke-width="1.8" stroke-dasharray="6 4" marker-end="url(#ret)"/><text x="1637.0" y="3174" text-anchor="start" font-size="15" fill="#0284c7">Snapshot</text><path d="M1631.0,3236 H4568.0" fill="none" stroke="#16a34a" stroke-width="1.8" marker-end="url(#req)"/><text x="3100.0" y="3232" text-anchor="middle" font-size="15" fill="#111827">tickets.ticket_lock(service.folder)</text><rect x="32" y="3258" width="6196" height="38" rx="3" fill="#fffbeb" stroke="#fcd34d"/><text x="3130.0" y="3279" text-anchor="middle" font-size="14" fill="#854d0e">이하 멤버·상태·revision 검사와 JSON 쓰기 동안 유지</text><path d="M4569.0,3320 H1632.0" fill="none" stroke="#0284c7" stroke-width="1.8" stroke-dasharray="6 4" marker-end="url(#ret)"/><text x="3100.0" y="3316" text-anchor="middle" font-size="15" fill="#0284c7">context manager; with 진입 시 획득</text><path d="M1631.0,3358 H1735.0 V3376 H1631.0" fill="none" stroke="#16a34a" stroke-width="1.8" marker-end="url(#req)"/><text x="1637.0" y="3354" text-anchor="start" font-size="15" fill="#111827">ticket_run.TicketRunner._members(name)</text><path d="M1631.0,3416 H5059.666666666667" fill="none" stroke="#16a34a" stroke-width="1.8" marker-end="url(#req)"/><text x="3345.8333333333335" y="3412" text-anchor="middle" font-size="15" fill="#111827">config.load_case(ticket 및 child paths)</text><path d="M5060.666666666667,3454 H1632.0" fill="none" stroke="#0284c7" stroke-width="1.8" stroke-dasharray="6 4" marker-end="url(#ret)"/><text x="3345.8333333333335" y="3450" text-anchor="middle" font-size="15" fill="#0284c7">Ticket</text><path d="M1631.0,3492 H1735.0 V3510 H1631.0" fill="none" stroke="#0284c7" stroke-width="1.8" stroke-dasharray="6 4" marker-end="url(#ret)"/><text x="1637.0" y="3488" text-anchor="start" font-size="15" fill="#0284c7">(Ticket, list[Case])</text><path d="M1631.0,3550 H4076.3333333333335" fill="none" stroke="#16a34a" stroke-width="1.8" marker-end="url(#req)"/><text x="2854.166666666667" y="3546" text-anchor="middle" font-size="15" fill="#111827">editor.TicketService.revision(expected_revision 있을 때 name)</text><path d="M4077.3333333333335,3588 H1632.0" fill="none" stroke="#0284c7" stroke-width="1.8" stroke-dasharray="6 4" marker-end="url(#ret)"/><text x="2854.166666666667" y="3584" text-anchor="middle" font-size="15" fill="#0284c7">SHA-256</text><path d="M1631.0,3644 H1735.0 V3662 H1631.0" fill="none" stroke="#16a34a" stroke-width="1.8" marker-end="url(#req)"/><text x="1637.0" y="3622" text-anchor="start" font-size="15" fill="#111827">ticket_run.TicketRunner._state(ticket,</text><text x="1637.0" y="3640" text-anchor="start" font-size="15" fill="#111827">members, observed)</text><rect x="32" y="3686" width="6196" height="38" rx="3" fill="#fffbeb" stroke="#fcd34d"/><text x="3130.0" y="3707" text-anchor="middle" font-size="14" fill="#854d0e">running 거절; queued/동일 request_id는 already_queued</text><path d="M1631.0,3748 H3584.6666666666665" fill="none" stroke="#16a34a" stroke-width="1.8" marker-end="url(#req)"/><text x="2608.333333333333" y="3744" text-anchor="middle" font-size="15" fill="#111827">storage.Store.jobs(LIVE + queued)</text><path d="M3585.6666666666665,3786 H1632.0" fill="none" stroke="#0284c7" stroke-width="1.8" stroke-dasharray="6 4" marker-end="url(#ret)"/><text x="2608.333333333333" y="3782" text-anchor="middle" font-size="15" fill="#0284c7">list[Job]</text><path d="M1631.0,3824 H3584.6666666666665" fill="none" stroke="#16a34a" stroke-width="1.8" marker-end="url(#req)"/><text x="2608.333333333333" y="3820" text-anchor="middle" font-size="15" fill="#111827">storage.Store.get(각 observed:root)</text><path d="M3585.6666666666665,3862 H1632.0" fill="none" stroke="#0284c7" stroke-width="1.8" stroke-dasharray="6 4" marker-end="url(#ret)"/><text x="2608.333333333333" y="3858" text-anchor="middle" font-size="15" fill="#0284c7">Observed|None</text><path d="M1631.0,3918 H1735.0 V3936 H1631.0" fill="none" stroke="#16a34a" stroke-width="1.8" marker-end="url(#req)"/><text x="1637.0" y="3896" text-anchor="start" font-size="15" fill="#111827">ticket_run.TicketRunner._capacity(members,</text><text x="1637.0" y="3914" text-anchor="start" font-size="15" fill="#111827">observed, active)</text><rect x="32" y="3960" width="6196" height="38" rx="3" fill="#fffbeb" stroke="#fcd34d"/><text x="3130.0" y="3981" text-anchor="middle" font-size="14" fill="#854d0e">동적 macro: 첫 child만 즉시 실행 판정; 전체 최대 NP는 51-core 한도 검사</text><path d="M1631.0,4022 H1735.0 V4040 H1631.0" fill="none" stroke="#0284c7" stroke-width="1.8" stroke-dasharray="6 4" marker-end="url(#ret)"/><text x="1637.0" y="4018" text-anchor="start" font-size="15" fill="#0284c7">head required + max required</text><path d="M1631.0,4080 H1735.0 V4098 H1631.0" fill="none" stroke="#0284c7" stroke-width="1.8" stroke-dasharray="6 4" marker-end="url(#ret)"/><text x="1637.0" y="4076" text-anchor="start" font-size="15" fill="#0284c7">RunState</text><path d="M1631.0,4138 H4568.0" fill="none" stroke="#16a34a" stroke-width="1.8" marker-end="url(#req)"/><text x="3100.0" y="4134" text-anchor="middle" font-size="15" fill="#111827">tickets.atomic_json(child들, 마지막 부모 queue.submit=True + mode/queue profile)</text><rect x="32" y="4160" width="6196" height="38" rx="3" fill="#fffbeb" stroke="#fcd34d"/><text x="3130.0" y="4181" text-anchor="middle" font-size="14" fill="#854d0e">backup 후 파일별 교체; OSError rollback</text><path d="M4569.0,4222 H1632.0" fill="none" stroke="#0284c7" stroke-width="1.8" stroke-dasharray="6 4" marker-end="url(#ret)"/><text x="3100.0" y="4218" text-anchor="middle" font-size="15" fill="#0284c7">None</text><path d="M1619.0,4260 H1140.3333333333335" fill="none" stroke="#0284c7" stroke-width="1.8" stroke-dasharray="6 4" marker-end="url(#ret)"/><text x="1379.1666666666667" y="4256" text-anchor="middle" font-size="15" fill="#0284c7">RunResult</text><path d="M1139.3333333333335,4298 H4076.3333333333335" fill="none" stroke="#16a34a" stroke-width="1.8" marker-end="url(#req)"/><text x="2608.3333333333335" y="4294" text-anchor="middle" font-size="15" fill="#111827">editor.TicketService.open(name)</text><path d="M4077.3333333333335,4336 H1140.3333333333335" fill="none" stroke="#0284c7" stroke-width="1.8" stroke-dasharray="6 4" marker-end="url(#ret)"/><text x="2608.3333333333335" y="4332" text-anchor="middle" font-size="15" fill="#0284c7">Draft</text><path d="M1139.3333333333335,4392 H1243.3333333333335 V4410 H1139.3333333333335" fill="none" stroke="#16a34a" stroke-width="1.8" marker-end="url(#req)"/><text x="1145.3333333333335" y="4370" text-anchor="start" font-size="15" fill="#111827">ticket_chat.TicketChat.card(실행</text><text x="1145.3333333333335" y="4388" text-anchor="start" font-size="15" fill="#111827">또는 queue id notice)</text><path d="M1139.3333333333335,4486 H1243.3333333333335 V4504 H1139.3333333333335" fill="none" stroke="#16a34a" stroke-width="1.8" marker-end="url(#req)"/><text x="1145.3333333333335" y="4446" text-anchor="start" font-size="15" fill="#111827">ticket_chat.TicketChat.render(chat,</text><text x="1145.3333333333335" y="4464" text-anchor="start" font-size="15" fill="#111827">user, session, text, rows,</text><text x="1145.3333333333335" y="4482" text-anchor="start" font-size="15" fill="#111827">view)</text><rect x="32" y="4528" width="6196" height="38" rx="3" fill="#fffbeb" stroke="#fcd34d"/><text x="3130.0" y="4549" text-anchor="middle" font-size="14" fill="#854d0e">TicketChat RLock 안의 동기 전송</text><path d="M1139.3333333333335,4608 H1243.3333333333335 V4626 H1139.3333333333335" fill="none" stroke="#16a34a" stroke-width="1.8" marker-end="url(#req)"/><text x="1145.3333333333335" y="4586" text-anchor="start" font-size="15" fill="#111827">ticket_chat.TicketChat.persist(새</text><text x="1145.3333333333335" y="4604" text-anchor="start" font-size="15" fill="#111827">token / view)</text><path d="M1139.3333333333335,4666 H3584.6666666666665" fill="none" stroke="#16a34a" stroke-width="1.8" marker-end="url(#req)"/><text x="2362.5" y="4662" text-anchor="middle" font-size="15" fill="#111827">storage.Store.put(session key, session)</text><path d="M3585.6666666666665,4704 H1140.3333333333335" fill="none" stroke="#0284c7" stroke-width="1.8" stroke-dasharray="6 4" marker-end="url(#ret)"/><text x="2362.5" y="4700" text-anchor="middle" font-size="15" fill="#0284c7">None</text><path d="M1139.3333333333335,4742 H1243.3333333333335 V4760 H1139.3333333333335" fill="none" stroke="#0284c7" stroke-width="1.8" stroke-dasharray="6 4" marker-end="url(#ret)"/><text x="1145.3333333333335" y="4738" text-anchor="start" font-size="15" fill="#0284c7">None</text><path d="M1139.3333333333335,4800 H5551.333333333333" fill="none" stroke="#16a34a" stroke-width="1.8" marker-end="url(#req)"/><text x="3345.833333333333" y="4796" text-anchor="middle" font-size="15" fill="#111827">telegram.Telegram.call(panel 존재: editMessageText)</text><rect x="32" y="4822" width="6196" height="38" rx="3" fill="#fffbeb" stroke="#fcd34d"/><text x="3130.0" y="4843" text-anchor="middle" font-size="14" fill="#854d0e">실패하면 Bot.send로 새 메시지</text><path d="M5564.333333333333,4884 H6043.0" fill="none" stroke="#16a34a" stroke-width="1.8" marker-end="url(#req)"/><text x="5804.166666666666" y="4880" text-anchor="middle" font-size="15" fill="#111827">urllib.request.urlopen(HTTPS Telegram Bot API; timeout)</text><rect x="32" y="4906" width="6196" height="38" rx="3" fill="#fffbeb" stroke="#fcd34d"/><text x="3130.0" y="4927" text-anchor="middle" font-size="14" fill="#854d0e">실제 외부 HTTP 요청; token은 표시하지 않음</text><path d="M6044.0,4968 H5565.333333333333" fill="none" stroke="#0284c7" stroke-width="1.8" stroke-dasharray="6 4" marker-end="url(#ret)"/><text x="5804.166666666666" y="4964" text-anchor="middle" font-size="15" fill="#0284c7">HTTP response JSON</text><path d="M5552.333333333333,5006 H1140.3333333333335" fill="none" stroke="#0284c7" stroke-width="1.8" stroke-dasharray="6 4" marker-end="url(#ret)"/><text x="3345.833333333333" y="5002" text-anchor="middle" font-size="15" fill="#0284c7">Message</text><path d="M1127.3333333333335,5044 H648.6666666666667" fill="none" stroke="#16a34a" stroke-width="1.8" marker-end="url(#req)"/><text x="887.5000000000001" y="5040" text-anchor="middle" font-size="15" fill="#111827">bot.Bot.send(panel 없거나 edit 실패: text, markup)</text><path d="M647.6666666666667,5082 H1126.3333333333335" fill="none" stroke="#0284c7" stroke-width="1.8" stroke-dasharray="6 4" marker-end="url(#ret)"/><text x="887.5000000000001" y="5078" text-anchor="middle" font-size="15" fill="#0284c7">list[Message]</text><path d="M1139.3333333333335,5120 H1243.3333333333335 V5138 H1139.3333333333335" fill="none" stroke="#0284c7" stroke-width="1.8" stroke-dasharray="6 4" marker-end="url(#ret)"/><text x="1145.3333333333335" y="5116" text-anchor="start" font-size="15" fill="#0284c7">None</text><path d="M1139.3333333333335,5178 H1243.3333333333335 V5196 H1139.3333333333335" fill="none" stroke="#0284c7" stroke-width="1.8" stroke-dasharray="6 4" marker-end="url(#ret)"/><text x="1145.3333333333335" y="5174" text-anchor="start" font-size="15" fill="#0284c7">None</text><path d="M1139.3333333333335,5236 H1243.3333333333335 V5254 H1139.3333333333335" fill="none" stroke="#0284c7" stroke-width="1.8" stroke-dasharray="6 4" marker-end="url(#ret)"/><text x="1145.3333333333335" y="5232" text-anchor="start" font-size="15" fill="#0284c7">None</text><path d="M1127.3333333333335,5294 H648.6666666666667" fill="none" stroke="#0284c7" stroke-width="1.8" stroke-dasharray="6 4" marker-end="url(#ret)"/><text x="887.5000000000001" y="5290" text-anchor="middle" font-size="15" fill="#0284c7">bool: consumed</text><path d="M635.6666666666667,5332 H157.0" fill="none" stroke="#0284c7" stroke-width="1.8" stroke-dasharray="6 4" marker-end="url(#ret)"/><text x="395.83333333333337" y="5328" text-anchor="middle" font-size="15" fill="#0284c7">None</text><rect x="24" y="5364" width="6212" height="77" fill="#fff1f2" stroke="#fda4af"/><text x="42" y="5386" text-anchor="start" font-size="15" fill="#9f1239" font-weight="700">alt [오류 / 거절 분기]</text><text x="42" y="5411" text-anchor="start" font-size="14" fill="#9f1239">입력/파일 오류 → 오류 메시지; TelegramError 등은 serve 경고 후 offset 진행</text><text x="3130.0" y="5481" text-anchor="middle" font-size="15" fill="#065f46" font-weight="700">최종 응답: 메시지/패널 반영 → handle 반환 → serve가 offset 저장</text></g></svg>
