<svg xmlns="http://www.w3.org/2000/svg" width="2956" height="2824" viewBox="0 0 2956 2824" role="img" aria-label="기본·감시·알림·스크립트 편집"><title>UC-10-tg 기본·감시·알림·스크립트 편집</title><defs><marker id="req" viewBox="0 0 10 10" refX="9" refY="5" markerWidth="7" markerHeight="7" orient="auto-start-reverse"><path d="M0 0 L10 5 L0 10 z" fill="#16a34a"/></marker><marker id="ret" viewBox="0 0 10 10" refX="9" refY="5" markerWidth="7" markerHeight="7" orient="auto-start-reverse"><path d="M0 0 L10 5 L0 10" fill="none" stroke="#0284c7" stroke-width="1.5"/></marker></defs><rect width="100%" height="100%" fill="white"/><g font-family="Noto Sans CJK KR, sans-serif"><text x="1478.0" y="40" text-anchor="middle" font-size="27" fill="#0f172a" font-weight="700">UC-10-tg · 기본·감시·알림·스크립트 편집</text><text x="1478.0" y="71" text-anchor="middle" font-size="15" fill="#475569">Telegram | #20 운영 반영 · 함수 요청은 실선 → / 반환은 점선 ← / 시간은 위에서 아래로</text><text x="1478.0" y="97" text-anchor="middle" font-size="14" fill="#475569">진입: field / event / scripts / scriptdefault</text><path d="M150.0,155 V2714" stroke="#cbd5e1" stroke-dasharray="5 5"/><rect x="40.0" y="112" width="220" height="42" fill="#16a34a"/><text x="150.0" y="139" text-anchor="middle" font-size="15" fill="white" font-weight="700">사용자 / Telegram</text><rect x="40.0" y="2714" width="220" height="42" fill="#16a34a"/><text x="150.0" y="2741" text-anchor="middle" font-size="15" fill="white" font-weight="700">사용자 / Telegram</text><path d="M669.2,155 V2714" stroke="#cbd5e1" stroke-dasharray="5 5"/><rect x="559.2" y="112" width="220" height="42" fill="#16a34a"/><text x="669.2" y="139" text-anchor="middle" font-size="15" fill="white" font-weight="700">Bot</text><rect x="559.2" y="2714" width="220" height="42" fill="#16a34a"/><text x="669.2" y="2741" text-anchor="middle" font-size="15" fill="white" font-weight="700">Bot</text><path d="M1188.4,155 V2714" stroke="#cbd5e1" stroke-dasharray="5 5"/><rect x="1078.4" y="112" width="220" height="42" fill="#16a34a"/><text x="1188.4" y="139" text-anchor="middle" font-size="15" fill="white" font-weight="700">TicketChat</text><rect x="1078.4" y="2714" width="220" height="42" fill="#16a34a"/><text x="1188.4" y="2741" text-anchor="middle" font-size="15" fill="white" font-weight="700">TicketChat</text><path d="M1707.6,155 V2714" stroke="#cbd5e1" stroke-dasharray="5 5"/><rect x="1597.6" y="112" width="220" height="42" fill="#16a34a"/><text x="1707.6" y="139" text-anchor="middle" font-size="15" fill="white" font-weight="700">SQLite Store</text><rect x="1597.6" y="2714" width="220" height="42" fill="#16a34a"/><text x="1707.6" y="2741" text-anchor="middle" font-size="15" fill="white" font-weight="700">SQLite Store</text><path d="M2226.8,155 V2714" stroke="#cbd5e1" stroke-dasharray="5 5"/><rect x="2116.8" y="112" width="220" height="42" fill="#16a34a"/><text x="2226.8" y="139" text-anchor="middle" font-size="15" fill="white" font-weight="700">Telegram client</text><rect x="2116.8" y="2714" width="220" height="42" fill="#16a34a"/><text x="2226.8" y="2741" text-anchor="middle" font-size="15" fill="white" font-weight="700">Telegram client</text><path d="M2746.0,155 V2714" stroke="#cbd5e1" stroke-dasharray="5 5"/><rect x="2636.0" y="112" width="220" height="42" fill="#16a34a"/><text x="2746.0" y="139" text-anchor="middle" font-size="15" fill="white" font-weight="700">Telegram Bot API</text><rect x="2636.0" y="2714" width="220" height="42" fill="#16a34a"/><text x="2746.0" y="2741" text-anchor="middle" font-size="15" fill="white" font-weight="700">Telegram Bot API</text><rect x="663.2" y="198" width="12" height="2272" fill="#f0fdf4" stroke="#86efac"/><rect x="1182.4" y="282" width="12" height="2150" fill="#f0fdf4" stroke="#86efac"/><rect x="1182.4" y="384" width="12" height="966" fill="#f0fdf4" stroke="#86efac"/><rect x="1182.4" y="1426" width="12" height="948" fill="#f0fdf4" stroke="#86efac"/><rect x="1182.4" y="506" width="12" height="786" fill="#f0fdf4" stroke="#86efac"/><rect x="1182.4" y="600" width="12" height="634" fill="#f0fdf4" stroke="#86efac"/><rect x="1182.4" y="1682" width="12" height="634" fill="#f0fdf4" stroke="#86efac"/><rect x="2220.8" y="914" width="12" height="206" fill="#f0fdf4" stroke="#86efac"/><rect x="2220.8" y="1996" width="12" height="206" fill="#f0fdf4" stroke="#86efac"/><rect x="1182.4" y="722" width="12" height="134" fill="#f0fdf4" stroke="#86efac"/><rect x="1182.4" y="1804" width="12" height="134" fill="#f0fdf4" stroke="#86efac"/><rect x="1182.4" y="1484" width="12" height="104" fill="#f0fdf4" stroke="#86efac"/><rect x="2740.0" y="998" width="12" height="84" fill="#f0fdf4" stroke="#86efac"/><rect x="2740.0" y="2080" width="12" height="84" fill="#f0fdf4" stroke="#86efac"/><rect x="1701.6" y="780" width="12" height="38" fill="#f0fdf4" stroke="#86efac"/><rect x="663.2" y="1158" width="12" height="38" fill="#f0fdf4" stroke="#86efac"/><rect x="1701.6" y="1862" width="12" height="38" fill="#f0fdf4" stroke="#86efac"/><rect x="663.2" y="2240" width="12" height="38" fill="#f0fdf4" stroke="#86efac"/><path d="M156.0,198 H662.2" fill="none" stroke="#16a34a" stroke-width="1.8" marker-end="url(#req)"/><text x="409.6" y="194" text-anchor="middle" font-size="15" fill="#111827">bot.Bot.handle(update)</text><rect x="32" y="220" width="2892" height="38" rx="3" fill="#fffbeb" stroke="#fcd34d"/><text x="1478.0" y="241" text-anchor="middle" font-size="14" fill="#854d0e">sender/chat 인증 → ACK thread → 수신 ID journal; 비편집 idle session 쓰기 생략</text><path d="M675.2,282 H1181.4" fill="none" stroke="#16a34a" stroke-width="1.8" marker-end="url(#req)"/><text x="928.8000000000001" y="278" text-anchor="middle" font-size="15" fill="#111827">ticket_chat.TicketChat.handle(update)</text><rect x="32" y="304" width="2892" height="38" rx="3" fill="#fffbeb" stroke="#fcd34d"/><text x="1478.0" y="325" text-anchor="middle" font-size="14" fill="#854d0e">진입/입력 명령은 handle에서 직접 분기</text><path d="M1194.4,384 H1298.4 V402 H1194.4" fill="none" stroke="#16a34a" stroke-width="1.8" marker-end="url(#req)"/><text x="1200.4" y="362" text-anchor="start" font-size="15" fill="#111827">ticket_chat.TicketChat.action(chat,</text><text x="1200.4" y="380" text-anchor="start" font-size="15" fill="#111827">user, session, op, arg)</text><rect x="32" y="426" width="2892" height="38" rx="3" fill="#fffbeb" stroke="#fcd34d"/><text x="1478.0" y="447" text-anchor="middle" font-size="14" fill="#854d0e">token 확인 후 op 분기; RLock 유지</text><path d="M1194.4,506 H1298.4 V524 H1194.4" fill="none" stroke="#16a34a" stroke-width="1.8" marker-end="url(#req)"/><text x="1200.4" y="484" text-anchor="start" font-size="15" fill="#111827">ticket_chat.TicketChat.field(field</text><text x="1200.4" y="502" text-anchor="start" font-size="15" fill="#111827">key)</text><path d="M1194.4,600 H1298.4 V618 H1194.4" fill="none" stroke="#16a34a" stroke-width="1.8" marker-end="url(#req)"/><text x="1200.4" y="560" text-anchor="start" font-size="15" fill="#111827">ticket_chat.TicketChat.render(chat,</text><text x="1200.4" y="578" text-anchor="start" font-size="15" fill="#111827">user, session, text, rows,</text><text x="1200.4" y="596" text-anchor="start" font-size="15" fill="#111827">view)</text><rect x="32" y="642" width="2892" height="38" rx="3" fill="#fffbeb" stroke="#fcd34d"/><text x="1478.0" y="663" text-anchor="middle" font-size="14" fill="#854d0e">TicketChat RLock 안의 동기 전송</text><path d="M1194.4,722 H1298.4 V740 H1194.4" fill="none" stroke="#16a34a" stroke-width="1.8" marker-end="url(#req)"/><text x="1200.4" y="700" text-anchor="start" font-size="15" fill="#111827">ticket_chat.TicketChat.persist(새</text><text x="1200.4" y="718" text-anchor="start" font-size="15" fill="#111827">token / view)</text><path d="M1194.4,780 H1700.6" fill="none" stroke="#16a34a" stroke-width="1.8" marker-end="url(#req)"/><text x="1448.0" y="776" text-anchor="middle" font-size="15" fill="#111827">storage.Store.put(session key, session)</text><path d="M1701.6,818 H1195.4" fill="none" stroke="#0284c7" stroke-width="1.8" stroke-dasharray="6 4" marker-end="url(#ret)"/><text x="1448.0" y="814" text-anchor="middle" font-size="15" fill="#0284c7">None</text><path d="M1194.4,856 H1298.4 V874 H1194.4" fill="none" stroke="#0284c7" stroke-width="1.8" stroke-dasharray="6 4" marker-end="url(#ret)"/><text x="1200.4" y="852" text-anchor="start" font-size="15" fill="#0284c7">None</text><path d="M1194.4,914 H2219.8" fill="none" stroke="#16a34a" stroke-width="1.8" marker-end="url(#req)"/><text x="1707.6000000000001" y="910" text-anchor="middle" font-size="15" fill="#111827">telegram.Telegram.call(panel 존재: editMessageText)</text><rect x="32" y="936" width="2892" height="38" rx="3" fill="#fffbeb" stroke="#fcd34d"/><text x="1478.0" y="957" text-anchor="middle" font-size="14" fill="#854d0e">실패하면 Bot.send로 새 메시지</text><path d="M2232.8,998 H2739.0" fill="none" stroke="#16a34a" stroke-width="1.8" marker-end="url(#req)"/><text x="2486.4" y="994" text-anchor="middle" font-size="15" fill="#111827">urllib.request.urlopen(HTTPS Telegram Bot API; timeout)</text><rect x="32" y="1020" width="2892" height="38" rx="3" fill="#fffbeb" stroke="#fcd34d"/><text x="1478.0" y="1041" text-anchor="middle" font-size="14" fill="#854d0e">실제 외부 HTTP 요청; token은 표시하지 않음</text><path d="M2740.0,1082 H2233.8" fill="none" stroke="#0284c7" stroke-width="1.8" stroke-dasharray="6 4" marker-end="url(#ret)"/><text x="2486.4" y="1078" text-anchor="middle" font-size="15" fill="#0284c7">HTTP response JSON</text><path d="M2220.8,1120 H1195.4" fill="none" stroke="#0284c7" stroke-width="1.8" stroke-dasharray="6 4" marker-end="url(#ret)"/><text x="1707.6000000000001" y="1116" text-anchor="middle" font-size="15" fill="#0284c7">Message</text><path d="M1182.4,1158 H676.2" fill="none" stroke="#16a34a" stroke-width="1.8" marker-end="url(#req)"/><text x="928.8000000000001" y="1154" text-anchor="middle" font-size="15" fill="#111827">bot.Bot.send(panel 없거나 edit 실패: text, markup)</text><path d="M675.2,1196 H1181.4" fill="none" stroke="#0284c7" stroke-width="1.8" stroke-dasharray="6 4" marker-end="url(#ret)"/><text x="928.8000000000001" y="1192" text-anchor="middle" font-size="15" fill="#0284c7">list[Message]</text><path d="M1194.4,1234 H1298.4 V1252 H1194.4" fill="none" stroke="#0284c7" stroke-width="1.8" stroke-dasharray="6 4" marker-end="url(#ret)"/><text x="1200.4" y="1230" text-anchor="start" font-size="15" fill="#0284c7">None</text><path d="M1194.4,1292 H1298.4 V1310 H1194.4" fill="none" stroke="#0284c7" stroke-width="1.8" stroke-dasharray="6 4" marker-end="url(#ret)"/><text x="1200.4" y="1288" text-anchor="start" font-size="15" fill="#0284c7">None</text><path d="M1194.4,1350 H1298.4 V1368 H1194.4" fill="none" stroke="#0284c7" stroke-width="1.8" stroke-dasharray="6 4" marker-end="url(#ret)"/><text x="1200.4" y="1346" text-anchor="start" font-size="15" fill="#0284c7">None</text><path d="M1194.4,1426 H1298.4 V1444 H1194.4" fill="none" stroke="#16a34a" stroke-width="1.8" marker-end="url(#req)"/><text x="1200.4" y="1404" text-anchor="start" font-size="15" fill="#111827">ticket_chat.TicketChat.input(후속</text><text x="1200.4" y="1422" text-anchor="start" font-size="15" fill="#111827">text)</text><path d="M1194.4,1484 H1298.4 V1502 H1194.4" fill="none" stroke="#16a34a" stroke-width="1.8" marker-end="url(#req)"/><text x="1200.4" y="1480" text-anchor="start" font-size="15" fill="#111827">ticket_chat.TicketChat.apply_field(session,key,text)</text><rect x="32" y="1526" width="2892" height="38" rx="3" fill="#fffbeb" stroke="#fcd34d"/><text x="1478.0" y="1547" text-anchor="middle" font-size="14" fill="#854d0e">numeric/regex/path 값 검사; draft.dirty=True</text><path d="M1194.4,1588 H1298.4 V1606 H1194.4" fill="none" stroke="#0284c7" stroke-width="1.8" stroke-dasharray="6 4" marker-end="url(#ret)"/><text x="1200.4" y="1584" text-anchor="start" font-size="15" fill="#0284c7">None</text><path d="M1194.4,1682 H1298.4 V1700 H1194.4" fill="none" stroke="#16a34a" stroke-width="1.8" marker-end="url(#req)"/><text x="1200.4" y="1642" text-anchor="start" font-size="15" fill="#111827">ticket_chat.TicketChat.render(chat,</text><text x="1200.4" y="1660" text-anchor="start" font-size="15" fill="#111827">user, session, text, rows,</text><text x="1200.4" y="1678" text-anchor="start" font-size="15" fill="#111827">view)</text><rect x="32" y="1724" width="2892" height="38" rx="3" fill="#fffbeb" stroke="#fcd34d"/><text x="1478.0" y="1745" text-anchor="middle" font-size="14" fill="#854d0e">TicketChat RLock 안의 동기 전송</text><path d="M1194.4,1804 H1298.4 V1822 H1194.4" fill="none" stroke="#16a34a" stroke-width="1.8" marker-end="url(#req)"/><text x="1200.4" y="1782" text-anchor="start" font-size="15" fill="#111827">ticket_chat.TicketChat.persist(새</text><text x="1200.4" y="1800" text-anchor="start" font-size="15" fill="#111827">token / view)</text><path d="M1194.4,1862 H1700.6" fill="none" stroke="#16a34a" stroke-width="1.8" marker-end="url(#req)"/><text x="1448.0" y="1858" text-anchor="middle" font-size="15" fill="#111827">storage.Store.put(session key, session)</text><path d="M1701.6,1900 H1195.4" fill="none" stroke="#0284c7" stroke-width="1.8" stroke-dasharray="6 4" marker-end="url(#ret)"/><text x="1448.0" y="1896" text-anchor="middle" font-size="15" fill="#0284c7">None</text><path d="M1194.4,1938 H1298.4 V1956 H1194.4" fill="none" stroke="#0284c7" stroke-width="1.8" stroke-dasharray="6 4" marker-end="url(#ret)"/><text x="1200.4" y="1934" text-anchor="start" font-size="15" fill="#0284c7">None</text><path d="M1194.4,1996 H2219.8" fill="none" stroke="#16a34a" stroke-width="1.8" marker-end="url(#req)"/><text x="1707.6000000000001" y="1992" text-anchor="middle" font-size="15" fill="#111827">telegram.Telegram.call(panel 존재: editMessageText)</text><rect x="32" y="2018" width="2892" height="38" rx="3" fill="#fffbeb" stroke="#fcd34d"/><text x="1478.0" y="2039" text-anchor="middle" font-size="14" fill="#854d0e">실패하면 Bot.send로 새 메시지</text><path d="M2232.8,2080 H2739.0" fill="none" stroke="#16a34a" stroke-width="1.8" marker-end="url(#req)"/><text x="2486.4" y="2076" text-anchor="middle" font-size="15" fill="#111827">urllib.request.urlopen(HTTPS Telegram Bot API; timeout)</text><rect x="32" y="2102" width="2892" height="38" rx="3" fill="#fffbeb" stroke="#fcd34d"/><text x="1478.0" y="2123" text-anchor="middle" font-size="14" fill="#854d0e">실제 외부 HTTP 요청; token은 표시하지 않음</text><path d="M2740.0,2164 H2233.8" fill="none" stroke="#0284c7" stroke-width="1.8" stroke-dasharray="6 4" marker-end="url(#ret)"/><text x="2486.4" y="2160" text-anchor="middle" font-size="15" fill="#0284c7">HTTP response JSON</text><path d="M2220.8,2202 H1195.4" fill="none" stroke="#0284c7" stroke-width="1.8" stroke-dasharray="6 4" marker-end="url(#ret)"/><text x="1707.6000000000001" y="2198" text-anchor="middle" font-size="15" fill="#0284c7">Message</text><path d="M1182.4,2240 H676.2" fill="none" stroke="#16a34a" stroke-width="1.8" marker-end="url(#req)"/><text x="928.8000000000001" y="2236" text-anchor="middle" font-size="15" fill="#111827">bot.Bot.send(panel 없거나 edit 실패: text, markup)</text><path d="M675.2,2278 H1181.4" fill="none" stroke="#0284c7" stroke-width="1.8" stroke-dasharray="6 4" marker-end="url(#ret)"/><text x="928.8000000000001" y="2274" text-anchor="middle" font-size="15" fill="#0284c7">list[Message]</text><path d="M1194.4,2316 H1298.4 V2334 H1194.4" fill="none" stroke="#0284c7" stroke-width="1.8" stroke-dasharray="6 4" marker-end="url(#ret)"/><text x="1200.4" y="2312" text-anchor="start" font-size="15" fill="#0284c7">None</text><path d="M1194.4,2374 H1298.4 V2392 H1194.4" fill="none" stroke="#0284c7" stroke-width="1.8" stroke-dasharray="6 4" marker-end="url(#ret)"/><text x="1200.4" y="2370" text-anchor="start" font-size="15" fill="#0284c7">None</text><path d="M1182.4,2432 H676.2" fill="none" stroke="#0284c7" stroke-width="1.8" stroke-dasharray="6 4" marker-end="url(#ret)"/><text x="928.8000000000001" y="2428" text-anchor="middle" font-size="15" fill="#0284c7">bool: consumed</text><path d="M663.2,2470 H157.0" fill="none" stroke="#0284c7" stroke-width="1.8" stroke-dasharray="6 4" marker-end="url(#ret)"/><text x="409.6" y="2466" text-anchor="middle" font-size="15" fill="#0284c7">None</text><rect x="24" y="2502" width="2908" height="77" fill="#fff1f2" stroke="#fda4af"/><text x="42" y="2524" text-anchor="start" font-size="15" fill="#9f1239" font-weight="700">alt [오류 / 거절 분기]</text><text x="42" y="2549" text-anchor="start" font-size="14" fill="#9f1239">입력/파일 오류 → 오류 메시지; TelegramError 등은 serve 경고 후 offset 진행</text><text x="1478.0" y="2619" text-anchor="middle" font-size="15" fill="#065f46" font-weight="700">최종 응답: 메시지/패널 반영 → handle 반환 → offset journal → 다음 polling; SQLite는 background batch</text></g></svg>
