<svg xmlns="http://www.w3.org/2000/svg" width="3180" height="3030" viewBox="0 0 3180 3030" role="img" aria-label="케이스 메뉴 실행(우회 경로)"><title>UC-18-legacy-tg 케이스 메뉴 실행(우회 경로)</title><defs><marker id="req" viewBox="0 0 10 10" refX="9" refY="5" markerWidth="7" markerHeight="7" orient="auto-start-reverse"><path d="M0 0 L10 5 L0 10 z" fill="#16a34a"/></marker><marker id="ret" viewBox="0 0 10 10" refX="9" refY="5" markerWidth="7" markerHeight="7" orient="auto-start-reverse"><path d="M0 0 L10 5 L0 10" fill="none" stroke="#0284c7" stroke-width="1.5"/></marker></defs><rect width="100%" height="100%" fill="white"/><g font-family="Noto Sans CJK KR, sans-serif"><text x="1590.0" y="40" text-anchor="middle" font-size="27" fill="#0f172a" font-weight="700">UC-18-legacy-tg · 케이스 메뉴 실행(우회 경로)</text><text x="1590.0" y="71" text-anchor="middle" font-size="15" fill="#475569">Telegram | #20 운영 반영 · 함수 요청은 실선 → / 반환은 점선 ← / 시간은 위에서 아래로</text><text x="1590.0" y="97" text-anchor="middle" font-size="14" fill="#475569">진입: prepare:cid → enqueue:cid</text><path d="M150.0,155 V2920" stroke="#cbd5e1" stroke-dasharray="5 5"/><rect x="40.0" y="112" width="220" height="42" fill="#16a34a"/><text x="150.0" y="139" text-anchor="middle" font-size="15" fill="white" font-weight="700">사용자 / Telegram</text><rect x="40.0" y="2920" width="220" height="42" fill="#16a34a"/><text x="150.0" y="2947" text-anchor="middle" font-size="15" fill="white" font-weight="700">사용자 / Telegram</text><path d="M463.3333333333333,155 V2920" stroke="#cbd5e1" stroke-dasharray="5 5"/><rect x="353.3333333333333" y="112" width="220" height="42" fill="#16a34a"/><text x="463.3333333333333" y="139" text-anchor="middle" font-size="15" fill="white" font-weight="700">Bot</text><rect x="353.3333333333333" y="2920" width="220" height="42" fill="#16a34a"/><text x="463.3333333333333" y="2947" text-anchor="middle" font-size="15" fill="white" font-weight="700">Bot</text><path d="M776.6666666666666,155 V2920" stroke="#cbd5e1" stroke-dasharray="5 5"/><rect x="666.6666666666666" y="112" width="220" height="42" fill="#16a34a"/><text x="776.6666666666666" y="139" text-anchor="middle" font-size="15" fill="white" font-weight="700">TicketRunner</text><rect x="666.6666666666666" y="2920" width="220" height="42" fill="#16a34a"/><text x="776.6666666666666" y="2947" text-anchor="middle" font-size="15" fill="white" font-weight="700">TicketRunner</text><path d="M1090.0,155 V2920" stroke="#cbd5e1" stroke-dasharray="5 5"/><rect x="980.0" y="112" width="220" height="42" fill="#16a34a"/><text x="1090.0" y="139" text-anchor="middle" font-size="15" fill="white" font-weight="700">processes</text><rect x="980.0" y="2920" width="220" height="42" fill="#16a34a"/><text x="1090.0" y="2947" text-anchor="middle" font-size="15" fill="white" font-weight="700">processes</text><path d="M1403.3333333333333,155 V2920" stroke="#cbd5e1" stroke-dasharray="5 5"/><rect x="1293.3333333333333" y="112" width="220" height="42" fill="#16a34a"/><text x="1403.3333333333333" y="139" text-anchor="middle" font-size="15" fill="white" font-weight="700">subprocess</text><rect x="1293.3333333333333" y="2920" width="220" height="42" fill="#16a34a"/><text x="1403.3333333333333" y="2947" text-anchor="middle" font-size="15" fill="white" font-weight="700">subprocess</text><path d="M1716.6666666666667,155 V2920" stroke="#cbd5e1" stroke-dasharray="5 5"/><rect x="1606.6666666666667" y="112" width="220" height="42" fill="#16a34a"/><text x="1716.6666666666667" y="139" text-anchor="middle" font-size="15" fill="white" font-weight="700">ofps 프로세스</text><rect x="1606.6666666666667" y="2920" width="220" height="42" fill="#16a34a"/><text x="1716.6666666666667" y="2947" text-anchor="middle" font-size="15" fill="white" font-weight="700">ofps 프로세스</text><path d="M2030.0,155 V2920" stroke="#cbd5e1" stroke-dasharray="5 5"/><rect x="1920.0" y="112" width="220" height="42" fill="#16a34a"/><text x="2030.0" y="139" text-anchor="middle" font-size="15" fill="white" font-weight="700">SQLite Store</text><rect x="1920.0" y="2920" width="220" height="42" fill="#16a34a"/><text x="2030.0" y="2947" text-anchor="middle" font-size="15" fill="white" font-weight="700">SQLite Store</text><path d="M2343.3333333333335,155 V2920" stroke="#cbd5e1" stroke-dasharray="5 5"/><rect x="2233.3333333333335" y="112" width="220" height="42" fill="#16a34a"/><text x="2343.3333333333335" y="139" text-anchor="middle" font-size="15" fill="white" font-weight="700">execution</text><rect x="2233.3333333333335" y="2920" width="220" height="42" fill="#16a34a"/><text x="2343.3333333333335" y="2947" text-anchor="middle" font-size="15" fill="white" font-weight="700">execution</text><path d="M2656.6666666666665,155 V2920" stroke="#cbd5e1" stroke-dasharray="5 5"/><rect x="2546.6666666666665" y="112" width="220" height="42" fill="#16a34a"/><text x="2656.6666666666665" y="139" text-anchor="middle" font-size="15" fill="white" font-weight="700">Telegram client</text><rect x="2546.6666666666665" y="2920" width="220" height="42" fill="#16a34a"/><text x="2656.6666666666665" y="2947" text-anchor="middle" font-size="15" fill="white" font-weight="700">Telegram client</text><path d="M2970.0,155 V2920" stroke="#cbd5e1" stroke-dasharray="5 5"/><rect x="2860.0" y="112" width="220" height="42" fill="#16a34a"/><text x="2970.0" y="139" text-anchor="middle" font-size="15" fill="white" font-weight="700">Telegram Bot API</text><rect x="2860.0" y="2920" width="220" height="42" fill="#16a34a"/><text x="2970.0" y="2947" text-anchor="middle" font-size="15" fill="white" font-weight="700">Telegram Bot API</text><rect x="457.3333333333333" y="198" width="12" height="2478" fill="#f0fdf4" stroke="#86efac"/><rect x="457.3333333333333" y="300" width="12" height="2318" fill="#f0fdf4" stroke="#86efac"/><rect x="770.6666666666666" y="358" width="12" height="1330" fill="#f0fdf4" stroke="#86efac"/><rect x="770.6666666666666" y="396" width="12" height="1234" fill="#f0fdf4" stroke="#86efac"/><rect x="1084.0" y="454" width="12" height="1062" fill="#f0fdf4" stroke="#86efac"/><rect x="457.3333333333333" y="1896" width="12" height="664" fill="#f0fdf4" stroke="#86efac"/><rect x="1084.0" y="988" width="12" height="470" fill="#f0fdf4" stroke="#86efac"/><rect x="1397.3333333333333" y="574" width="12" height="358" fill="#f0fdf4" stroke="#86efac"/><rect x="2650.6666666666665" y="1954" width="12" height="358" fill="#f0fdf4" stroke="#86efac"/><rect x="2650.6666666666665" y="2010" width="12" height="244" fill="#f0fdf4" stroke="#86efac"/><rect x="1710.6666666666667" y="676" width="12" height="218" fill="#f0fdf4" stroke="#86efac"/><rect x="457.3333333333333" y="2368" width="12" height="134" fill="#f0fdf4" stroke="#86efac"/><rect x="1084.0" y="1180" width="12" height="104" fill="#f0fdf4" stroke="#86efac"/><rect x="2964.0" y="2132" width="12" height="84" fill="#f0fdf4" stroke="#86efac"/><rect x="1710.6666666666667" y="778" width="12" height="58" fill="#f0fdf4" stroke="#86efac"/><rect x="1084.0" y="1046" width="12" height="58" fill="#f0fdf4" stroke="#86efac"/><rect x="1084.0" y="1342" width="12" height="58" fill="#f0fdf4" stroke="#86efac"/><rect x="2024.0" y="1554" width="12" height="38" fill="#f0fdf4" stroke="#86efac"/><rect x="2337.3333333333335" y="1726" width="12" height="38" fill="#f0fdf4" stroke="#86efac"/><rect x="2024.0" y="1802" width="12" height="38" fill="#f0fdf4" stroke="#86efac"/><rect x="2024.0" y="2426" width="12" height="38" fill="#f0fdf4" stroke="#86efac"/><path d="M156.0,198 H456.3333333333333" fill="none" stroke="#16a34a" stroke-width="1.8" marker-end="url(#req)"/><text x="306.66666666666663" y="194" text-anchor="middle" font-size="15" fill="#111827">bot.Bot.handle(update)</text><rect x="32" y="220" width="3116" height="38" rx="3" fill="#fffbeb" stroke="#fcd34d"/><text x="1590.0" y="241" text-anchor="middle" font-size="14" fill="#854d0e">sender/chat 인증; callback ACK는 별도 thread</text><path d="M469.3333333333333,300 H573.3333333333333 V318 H469.3333333333333" fill="none" stroke="#16a34a" stroke-width="1.8" marker-end="url(#req)"/><text x="475.3333333333333" y="278" text-anchor="start" font-size="15" fill="#111827">bot.Bot.dispatch(chat, action,</text><text x="475.3333333333333" y="296" text-anchor="start" font-size="15" fill="#111827">request_key, user)</text><path d="M469.3333333333333,358 H769.6666666666666" fill="none" stroke="#16a34a" stroke-width="1.8" marker-end="url(#req)"/><text x="620.0" y="354" text-anchor="middle" font-size="15" fill="#111827">ticket_run.TicketRunner.state(name,fresh=True)</text><path d="M782.6666666666666,396 H886.6666666666666 V414 H782.6666666666666" fill="none" stroke="#16a34a" stroke-width="1.8" marker-end="url(#req)"/><text x="788.6666666666666" y="392" text-anchor="start" font-size="15" fill="#111827">ticket_run.TicketRunner._snapshot()</text><path d="M782.6666666666666,454 H1083.0" fill="none" stroke="#16a34a" stroke-width="1.8" marker-end="url(#req)"/><a href="D-04.svg" target="_blank"><text x="933.3333333333333" y="450" text-anchor="middle" font-size="15" fill="#111827">processes.snapshot(ofps_command)</text></a><rect x="32" y="476" width="3116" height="38" rx="3" fill="#fffbeb" stroke="#fcd34d"/><text x="1590.0" y="497" text-anchor="middle" font-size="14" fill="#854d0e">SNAPSHOT_LOCK 획득 대기 → subprocess 실행 중 보유 → 해제 → parse</text><path d="M1096.0,574 H1396.3333333333333" fill="none" stroke="#16a34a" stroke-width="1.8" marker-end="url(#req)"/><text x="1246.6666666666665" y="534" text-anchor="middle" font-size="15" fill="#111827">subprocess.run(command,</text><text x="1246.6666666666665" y="552" text-anchor="middle" font-size="15" fill="#111827">env=managed_scan_environment(),</text><text x="1246.6666666666665" y="570" text-anchor="middle" font-size="15" fill="#111827">timeout=45)</text><rect x="32" y="596" width="3116" height="38" rx="3" fill="#fffbeb" stroke="#fcd34d"/><text x="1590.0" y="617" text-anchor="middle" font-size="14" fill="#854d0e">SNAPSHOT_LOCK 안: 대기 시간 제한 없음; run 시간만 45초</text><path d="M1409.3333333333333,676 H1709.6666666666667" fill="none" stroke="#16a34a" stroke-width="1.8" marker-end="url(#req)"/><text x="1560.0" y="654" text-anchor="middle" font-size="15" fill="#111827">scan_and_sync(새 프로세스;</text><text x="1560.0" y="672" text-anchor="middle" font-size="15" fill="#111827">CFD_BOT_OFPS_MANAGED=1)</text><rect x="32" y="698" width="3116" height="38" rx="3" fill="#fffbeb" stroke="#fcd34d"/><text x="1590.0" y="719" text-anchor="middle" font-size="14" fill="#854d0e">managed 모드: 내부 ticket sync 생략; scan 자체는 실행</text><path d="M1722.6666666666667,778 H1826.6666666666667 V796 H1722.6666666666667" fill="none" stroke="#16a34a" stroke-width="1.8" marker-end="url(#req)"/><text x="1728.6666666666667" y="756" text-anchor="start" font-size="15" fill="#111827">scan_once(records_file; /proc</text><text x="1728.6666666666667" y="774" text-anchor="start" font-size="15" fill="#111827">/ ps 탐색)</text><path d="M1722.6666666666667,836 H1826.6666666666667 V854 H1722.6666666666667" fill="none" stroke="#0284c7" stroke-width="1.8" stroke-dasharray="6 4" marker-end="url(#ret)"/><text x="1728.6666666666667" y="832" text-anchor="start" font-size="15" fill="#0284c7">ENGINE / CASE / process table</text><path d="M1710.6666666666667,894 H1410.3333333333333" fill="none" stroke="#0284c7" stroke-width="1.8" stroke-dasharray="6 4" marker-end="url(#ret)"/><text x="1560.0" y="890" text-anchor="middle" font-size="15" fill="#0284c7">stdout / stderr / exit code</text><path d="M1397.3333333333333,932 H1097.0" fill="none" stroke="#0284c7" stroke-width="1.8" stroke-dasharray="6 4" marker-end="url(#ret)"/><text x="1246.6666666666665" y="928" text-anchor="middle" font-size="15" fill="#0284c7">CompletedProcess</text><path d="M1096.0,988 H1200.0 V1006 H1096.0" fill="none" stroke="#16a34a" stroke-width="1.8" marker-end="url(#req)"/><text x="1102.0" y="966" text-anchor="start" font-size="15" fill="#111827">processes.parse_snapshot(stdout;</text><text x="1102.0" y="984" text-anchor="start" font-size="15" fill="#111827">lock 해제 후)</text><path d="M1096.0,1046 H1200.0 V1064 H1096.0" fill="none" stroke="#16a34a" stroke-width="1.8" marker-end="url(#req)"/><text x="1102.0" y="1042" text-anchor="start" font-size="15" fill="#111827">processes.identity(PID)</text><path d="M1096.0,1104 H1200.0 V1122 H1096.0" fill="none" stroke="#0284c7" stroke-width="1.8" stroke-dasharray="6 4" marker-end="url(#ret)"/><text x="1102.0" y="1100" text-anchor="start" font-size="15" fill="#0284c7">boot:pid:starttick | None</text><path d="M1096.0,1180 H1200.0 V1198 H1096.0" fill="none" stroke="#16a34a" stroke-width="1.8" marker-end="url(#req)"/><text x="1102.0" y="1158" text-anchor="start" font-size="15" fill="#111827">processes.owner_label(supervisor</text><text x="1102.0" y="1176" text-anchor="start" font-size="15" fill="#111827">또는 첫 PID)</text><rect x="32" y="1222" width="3116" height="38" rx="3" fill="#fffbeb" stroke="#fcd34d"/><text x="1590.0" y="1243" text-anchor="middle" font-size="14" fill="#854d0e">/proc 조상 최대 64단계, 환경/TTY 확인</text><path d="M1096.0,1284 H1200.0 V1302 H1096.0" fill="none" stroke="#0284c7" stroke-width="1.8" stroke-dasharray="6 4" marker-end="url(#ret)"/><text x="1102.0" y="1280" text-anchor="start" font-size="15" fill="#0284c7">str</text><path d="M1096.0,1342 H1200.0 V1360 H1096.0" fill="none" stroke="#16a34a" stroke-width="1.8" marker-end="url(#req)"/><text x="1102.0" y="1338" text-anchor="start" font-size="15" fill="#111827">processes.cpu_layout(ProcessRecord)</text><path d="M1096.0,1400 H1200.0 V1418 H1096.0" fill="none" stroke="#0284c7" stroke-width="1.8" stroke-dasharray="6 4" marker-end="url(#ret)"/><text x="1102.0" y="1396" text-anchor="start" font-size="15" fill="#0284c7">(core_count, cpu_ranges)</text><path d="M1096.0,1458 H1200.0 V1476 H1096.0" fill="none" stroke="#0284c7" stroke-width="1.8" stroke-dasharray="6 4" marker-end="url(#ret)"/><text x="1102.0" y="1454" text-anchor="start" font-size="15" fill="#0284c7">dict[root, ProcessRecord]</text><path d="M1084.0,1516 H783.6666666666666" fill="none" stroke="#0284c7" stroke-width="1.8" stroke-dasharray="6 4" marker-end="url(#ret)"/><text x="933.3333333333333" y="1512" text-anchor="middle" font-size="15" fill="#0284c7">{raw, cases}</text><path d="M782.6666666666666,1554 H2023.0" fill="none" stroke="#16a34a" stroke-width="1.8" marker-end="url(#req)"/><text x="1403.3333333333333" y="1550" text-anchor="middle" font-size="15" fill="#111827">storage.Store.put(snapshot, at 포함 current)</text><path d="M2024.0,1592 H783.6666666666666" fill="none" stroke="#0284c7" stroke-width="1.8" stroke-dasharray="6 4" marker-end="url(#ret)"/><text x="1403.3333333333333" y="1588" text-anchor="middle" font-size="15" fill="#0284c7">None</text><path d="M782.6666666666666,1630 H886.6666666666666 V1648 H782.6666666666666" fill="none" stroke="#0284c7" stroke-width="1.8" stroke-dasharray="6 4" marker-end="url(#ret)"/><text x="788.6666666666666" y="1626" text-anchor="start" font-size="15" fill="#0284c7">Snapshot</text><path d="M770.6666666666666,1688 H470.3333333333333" fill="none" stroke="#0284c7" stroke-width="1.8" stroke-dasharray="6 4" marker-end="url(#ret)"/><text x="620.0" y="1684" text-anchor="middle" font-size="15" fill="#0284c7">RunState</text><path d="M469.3333333333333,1726 H2336.3333333333335" fill="none" stroke="#16a34a" stroke-width="1.8" marker-end="url(#req)"/><text x="1403.3333333333335" y="1722" text-anchor="middle" font-size="15" fill="#111827">execution.execution_case(prepare일 때 case)</text><path d="M2337.3333333333335,1764 H470.3333333333333" fill="none" stroke="#0284c7" stroke-width="1.8" stroke-dasharray="6 4" marker-end="url(#ret)"/><text x="1403.3333333333335" y="1760" text-anchor="middle" font-size="15" fill="#0284c7">ExecutionCase</text><path d="M469.3333333333333,1802 H2023.0" fill="none" stroke="#16a34a" stroke-width="1.8" marker-end="url(#req)"/><text x="1246.6666666666667" y="1798" text-anchor="middle" font-size="15" fill="#111827">storage.Store.enqueue(enqueue일 때 case,update_id)</text><path d="M2024.0,1840 H470.3333333333333" fill="none" stroke="#0284c7" stroke-width="1.8" stroke-dasharray="6 4" marker-end="url(#ret)"/><text x="1246.6666666666667" y="1836" text-anchor="middle" font-size="15" fill="#0284c7">Job</text><path d="M469.3333333333333,1896 H573.3333333333333 V1914 H469.3333333333333" fill="none" stroke="#16a34a" stroke-width="1.8" marker-end="url(#req)"/><text x="475.3333333333333" y="1874" text-anchor="start" font-size="15" fill="#111827">bot.Bot.send(chat, text,</text><text x="475.3333333333333" y="1892" text-anchor="start" font-size="15" fill="#111827">keyboard)</text><path d="M469.3333333333333,1954 H2649.6666666666665" fill="none" stroke="#16a34a" stroke-width="1.8" marker-end="url(#req)"/><text x="1560.0" y="1950" text-anchor="middle" font-size="15" fill="#111827">telegram.Telegram.send(chat, text, keyboard)</text><path d="M2662.6666666666665,2010 H2766.6666666666665 V2028 H2662.6666666666665" fill="none" stroke="#16a34a" stroke-width="1.8" marker-end="url(#req)"/><text x="2668.6666666666665" y="1988" text-anchor="start" font-size="15" fill="#111827">telegram.Telegram.call(sendMessage;</text><text x="2668.6666666666665" y="2006" text-anchor="start" font-size="15" fill="#111827">30 s/call)</text><rect x="32" y="2052" width="3116" height="38" rx="3" fill="#fffbeb" stroke="#fcd34d"/><text x="1590.0" y="2073" text-anchor="middle" font-size="14" fill="#854d0e">문자열 분할마다 동기 네트워크</text><path d="M2662.6666666666665,2132 H2963.0" fill="none" stroke="#16a34a" stroke-width="1.8" marker-end="url(#req)"/><text x="2813.333333333333" y="2110" text-anchor="middle" font-size="15" fill="#111827">urllib.request.urlopen(HTTPS</text><text x="2813.333333333333" y="2128" text-anchor="middle" font-size="15" fill="#111827">Telegram Bot API; timeout)</text><rect x="32" y="2154" width="3116" height="38" rx="3" fill="#fffbeb" stroke="#fcd34d"/><text x="1590.0" y="2175" text-anchor="middle" font-size="14" fill="#854d0e">실제 외부 HTTP 요청; token은 표시하지 않음</text><path d="M2964.0,2216 H2663.6666666666665" fill="none" stroke="#0284c7" stroke-width="1.8" stroke-dasharray="6 4" marker-end="url(#ret)"/><text x="2813.333333333333" y="2212" text-anchor="middle" font-size="15" fill="#0284c7">HTTP response JSON</text><path d="M2662.6666666666665,2254 H2766.6666666666665 V2272 H2662.6666666666665" fill="none" stroke="#0284c7" stroke-width="1.8" stroke-dasharray="6 4" marker-end="url(#ret)"/><text x="2668.6666666666665" y="2250" text-anchor="start" font-size="15" fill="#0284c7">Message</text><path d="M2650.6666666666665,2312 H470.3333333333333" fill="none" stroke="#0284c7" stroke-width="1.8" stroke-dasharray="6 4" marker-end="url(#ret)"/><text x="1560.0" y="2308" text-anchor="middle" font-size="15" fill="#0284c7">list[Message]</text><path d="M469.3333333333333,2368 H573.3333333333333 V2386 H469.3333333333333" fill="none" stroke="#16a34a" stroke-width="1.8" marker-end="url(#req)"/><text x="475.3333333333333" y="2346" text-anchor="start" font-size="15" fill="#111827">bot.Bot._remember(chat,</text><text x="475.3333333333333" y="2364" text-anchor="start" font-size="15" fill="#111827">result)</text><path d="M469.3333333333333,2426 H2023.0" fill="none" stroke="#16a34a" stroke-width="1.8" marker-end="url(#req)"/><text x="1246.6666666666667" y="2422" text-anchor="middle" font-size="15" fill="#111827">storage.Store.remember_message(chat, message_id, date)</text><path d="M2024.0,2464 H470.3333333333333" fill="none" stroke="#0284c7" stroke-width="1.8" stroke-dasharray="6 4" marker-end="url(#ret)"/><text x="1246.6666666666667" y="2460" text-anchor="middle" font-size="15" fill="#0284c7">None</text><path d="M469.3333333333333,2502 H573.3333333333333 V2520 H469.3333333333333" fill="none" stroke="#0284c7" stroke-width="1.8" stroke-dasharray="6 4" marker-end="url(#ret)"/><text x="475.3333333333333" y="2498" text-anchor="start" font-size="15" fill="#0284c7">None</text><path d="M469.3333333333333,2560 H573.3333333333333 V2578 H469.3333333333333" fill="none" stroke="#0284c7" stroke-width="1.8" stroke-dasharray="6 4" marker-end="url(#ret)"/><text x="475.3333333333333" y="2556" text-anchor="start" font-size="15" fill="#0284c7">list[Message]</text><path d="M469.3333333333333,2618 H573.3333333333333 V2636 H469.3333333333333" fill="none" stroke="#0284c7" stroke-width="1.8" stroke-dasharray="6 4" marker-end="url(#ret)"/><text x="475.3333333333333" y="2614" text-anchor="start" font-size="15" fill="#0284c7">None</text><path d="M457.3333333333333,2676 H157.0" fill="none" stroke="#0284c7" stroke-width="1.8" stroke-dasharray="6 4" marker-end="url(#ret)"/><text x="306.66666666666663" y="2672" text-anchor="middle" font-size="15" fill="#0284c7">None</text><rect x="24" y="2708" width="3132" height="77" fill="#fff1f2" stroke="#fda4af"/><text x="42" y="2730" text-anchor="start" font-size="15" fill="#9f1239" font-weight="700">alt [오류 / 거절 분기]</text><text x="42" y="2755" text-anchor="start" font-size="14" fill="#9f1239">입력/파일 오류 → 오류 메시지; TelegramError 등은 serve 경고 후 offset 진행</text><text x="1590.0" y="2825" text-anchor="middle" font-size="15" fill="#065f46" font-weight="700">최종 응답: 메시지/패널 반영 → handle 반환 → serve가 offset 저장</text></g></svg>
