<svg xmlns="http://www.w3.org/2000/svg" width="2620" height="2162" viewBox="0 0 2620 2162" role="img" aria-label="큐·이력·매크로 진행"><title>UC-19-tg 큐·이력·매크로 진행</title><defs><marker id="req" viewBox="0 0 10 10" refX="9" refY="5" markerWidth="7" markerHeight="7" orient="auto-start-reverse"><path d="M0 0 L10 5 L0 10 z" fill="#16a34a"/></marker><marker id="ret" viewBox="0 0 10 10" refX="9" refY="5" markerWidth="7" markerHeight="7" orient="auto-start-reverse"><path d="M0 0 L10 5 L0 10" fill="none" stroke="#0284c7" stroke-width="1.5"/></marker></defs><rect width="100%" height="100%" fill="white"/><g font-family="Noto Sans CJK KR, sans-serif"><text x="1310.0" y="40" text-anchor="middle" font-size="27" fill="#0f172a" font-weight="700">UC-19-tg · 큐·이력·매크로 진행</text><text x="1310.0" y="71" text-anchor="middle" font-size="15" fill="#475569">Telegram | #20 운영 반영 · 함수 요청은 실선 → / 반환은 점선 ← / 시간은 위에서 아래로</text><text x="1310.0" y="97" text-anchor="middle" font-size="14" fill="#475569">진입: queue</text><path d="M150.0,155 V2052" stroke="#cbd5e1" stroke-dasharray="5 5"/><rect x="40.0" y="112" width="220" height="42" fill="#16a34a"/><text x="150.0" y="139" text-anchor="middle" font-size="15" fill="white" font-weight="700">사용자 / Telegram</text><rect x="40.0" y="2052" width="220" height="42" fill="#16a34a"/><text x="150.0" y="2079" text-anchor="middle" font-size="15" fill="white" font-weight="700">사용자 / Telegram</text><path d="M472.85714285714283,155 V2052" stroke="#cbd5e1" stroke-dasharray="5 5"/><rect x="362.85714285714283" y="112" width="220" height="42" fill="#16a34a"/><text x="472.85714285714283" y="139" text-anchor="middle" font-size="15" fill="white" font-weight="700">Bot</text><rect x="362.85714285714283" y="2052" width="220" height="42" fill="#16a34a"/><text x="472.85714285714283" y="2079" text-anchor="middle" font-size="15" fill="white" font-weight="700">Bot</text><path d="M795.7142857142857,155 V2052" stroke="#cbd5e1" stroke-dasharray="5 5"/><rect x="685.7142857142857" y="112" width="220" height="42" fill="#16a34a"/><text x="795.7142857142857" y="139" text-anchor="middle" font-size="15" fill="white" font-weight="700">config</text><rect x="685.7142857142857" y="2052" width="220" height="42" fill="#16a34a"/><text x="795.7142857142857" y="2079" text-anchor="middle" font-size="15" fill="white" font-weight="700">config</text><path d="M1118.5714285714284,155 V2052" stroke="#cbd5e1" stroke-dasharray="5 5"/><rect x="1008.5714285714284" y="112" width="220" height="42" fill="#16a34a"/><text x="1118.5714285714284" y="139" text-anchor="middle" font-size="15" fill="white" font-weight="700">SQLite Store</text><rect x="1008.5714285714284" y="2052" width="220" height="42" fill="#16a34a"/><text x="1118.5714285714284" y="2079" text-anchor="middle" font-size="15" fill="white" font-weight="700">SQLite Store</text><path d="M1441.4285714285713,155 V2052" stroke="#cbd5e1" stroke-dasharray="5 5"/><rect x="1331.4285714285713" y="112" width="220" height="42" fill="#16a34a"/><text x="1441.4285714285713" y="139" text-anchor="middle" font-size="15" fill="white" font-weight="700">run_views</text><rect x="1331.4285714285713" y="2052" width="220" height="42" fill="#16a34a"/><text x="1441.4285714285713" y="2079" text-anchor="middle" font-size="15" fill="white" font-weight="700">run_views</text><path d="M1764.2857142857142,155 V2052" stroke="#cbd5e1" stroke-dasharray="5 5"/><rect x="1654.2857142857142" y="112" width="220" height="42" fill="#16a34a"/><text x="1764.2857142857142" y="139" text-anchor="middle" font-size="15" fill="white" font-weight="700">report</text><rect x="1654.2857142857142" y="2052" width="220" height="42" fill="#16a34a"/><text x="1764.2857142857142" y="2079" text-anchor="middle" font-size="15" fill="white" font-weight="700">report</text><path d="M2087.142857142857,155 V2052" stroke="#cbd5e1" stroke-dasharray="5 5"/><rect x="1977.1428571428569" y="112" width="220" height="42" fill="#16a34a"/><text x="2087.142857142857" y="139" text-anchor="middle" font-size="15" fill="white" font-weight="700">Telegram client</text><rect x="1977.1428571428569" y="2052" width="220" height="42" fill="#16a34a"/><text x="2087.142857142857" y="2079" text-anchor="middle" font-size="15" fill="white" font-weight="700">Telegram client</text><path d="M2410.0,155 V2052" stroke="#cbd5e1" stroke-dasharray="5 5"/><rect x="2300.0" y="112" width="220" height="42" fill="#16a34a"/><text x="2410.0" y="139" text-anchor="middle" font-size="15" fill="white" font-weight="700">Telegram Bot API</text><rect x="2300.0" y="2052" width="220" height="42" fill="#16a34a"/><text x="2410.0" y="2079" text-anchor="middle" font-size="15" fill="white" font-weight="700">Telegram Bot API</text><rect x="466.85714285714283" y="198" width="12" height="1610" fill="#f0fdf4" stroke="#86efac"/><rect x="466.85714285714283" y="300" width="12" height="1450" fill="#f0fdf4" stroke="#86efac"/><rect x="466.85714285714283" y="1028" width="12" height="664" fill="#f0fdf4" stroke="#86efac"/><rect x="2081.142857142857" y="1086" width="12" height="358" fill="#f0fdf4" stroke="#86efac"/><rect x="2081.142857142857" y="1142" width="12" height="244" fill="#f0fdf4" stroke="#86efac"/><rect x="466.85714285714283" y="358" width="12" height="180" fill="#f0fdf4" stroke="#86efac"/><rect x="466.85714285714283" y="1500" width="12" height="134" fill="#f0fdf4" stroke="#86efac"/><rect x="789.7142857142857" y="416" width="12" height="84" fill="#f0fdf4" stroke="#86efac"/><rect x="1435.4285714285713" y="766" width="12" height="84" fill="#f0fdf4" stroke="#86efac"/><rect x="1758.2857142857142" y="888" width="12" height="84" fill="#f0fdf4" stroke="#86efac"/><rect x="2404.0" y="1264" width="12" height="84" fill="#f0fdf4" stroke="#86efac"/><rect x="1112.5714285714284" y="596" width="12" height="38" fill="#f0fdf4" stroke="#86efac"/><rect x="789.7142857142857" y="690" width="12" height="38" fill="#f0fdf4" stroke="#86efac"/><rect x="1112.5714285714284" y="1558" width="12" height="38" fill="#f0fdf4" stroke="#86efac"/><path d="M156.0,198 H465.85714285714283" fill="none" stroke="#16a34a" stroke-width="1.8" marker-end="url(#req)"/><text x="311.42857142857144" y="194" text-anchor="middle" font-size="15" fill="#111827">bot.Bot.handle(update)</text><rect x="32" y="220" width="2556" height="38" rx="3" fill="#fffbeb" stroke="#fcd34d"/><text x="1310.0" y="241" text-anchor="middle" font-size="14" fill="#854d0e">sender/chat 인증; callback ACK는 별도 thread</text><path d="M478.85714285714283,300 H582.8571428571429 V318 H478.85714285714283" fill="none" stroke="#16a34a" stroke-width="1.8" marker-end="url(#req)"/><text x="484.85714285714283" y="278" text-anchor="start" font-size="15" fill="#111827">bot.Bot.dispatch(chat, action,</text><text x="484.85714285714283" y="296" text-anchor="start" font-size="15" fill="#111827">request_key, user)</text><path d="M478.85714285714283,358 H582.8571428571429 V376 H478.85714285714283" fill="none" stroke="#16a34a" stroke-width="1.8" marker-end="url(#req)"/><text x="484.85714285714283" y="354" text-anchor="start" font-size="15" fill="#111827">bot.Bot.cases()</text><path d="M478.85714285714283,416 H788.7142857142857" fill="none" stroke="#16a34a" stroke-width="1.8" marker-end="url(#req)"/><a href="D-01.svg" target="_blank"><text x="634.2857142857142" y="412" text-anchor="middle" font-size="15" fill="#111827">config.cases_for(config)</text></a><rect x="32" y="438" width="2556" height="38" rx="3" fill="#fffbeb" stroke="#fcd34d"/><text x="1310.0" y="459" text-anchor="middle" font-size="14" fill="#854d0e">공용 TicketIndex: 최초 전체 검증, 이후 변경 파일만 load_case; warm은 검증 0회. D-01 상세</text><path d="M789.7142857142857,500 H479.85714285714283" fill="none" stroke="#0284c7" stroke-width="1.8" stroke-dasharray="6 4" marker-end="url(#ret)"/><text x="634.2857142857142" y="496" text-anchor="middle" font-size="15" fill="#0284c7">Case[]</text><path d="M478.85714285714283,538 H582.8571428571429 V556 H478.85714285714283" fill="none" stroke="#0284c7" stroke-width="1.8" stroke-dasharray="6 4" marker-end="url(#ret)"/><text x="484.85714285714283" y="534" text-anchor="start" font-size="15" fill="#0284c7">cases</text><path d="M478.85714285714283,596 H1111.5714285714284" fill="none" stroke="#16a34a" stroke-width="1.8" marker-end="url(#req)"/><text x="795.7142857142857" y="592" text-anchor="middle" font-size="15" fill="#111827">storage.Store.jobs()</text><path d="M1112.5714285714284,634 H479.85714285714283" fill="none" stroke="#0284c7" stroke-width="1.8" stroke-dasharray="6 4" marker-end="url(#ret)"/><text x="795.7142857142857" y="630" text-anchor="middle" font-size="15" fill="#0284c7">jobs</text><path d="M478.85714285714283,690 H788.7142857142857" fill="none" stroke="#16a34a" stroke-width="1.8" marker-end="url(#req)"/><text x="634.2857142857142" y="668" text-anchor="middle" font-size="15" fill="#111827">config.tickets_for(macro 목록용 cached</text><text x="634.2857142857142" y="686" text-anchor="middle" font-size="15" fill="#111827">catalog)</text><path d="M789.7142857142857,728 H479.85714285714283" fill="none" stroke="#0284c7" stroke-width="1.8" stroke-dasharray="6 4" marker-end="url(#ret)"/><text x="634.2857142857142" y="724" text-anchor="middle" font-size="15" fill="#0284c7">Ticket[]</text><path d="M478.85714285714283,766 H1434.4285714285713" fill="none" stroke="#16a34a" stroke-width="1.8" marker-end="url(#req)"/><a href="D-14.svg" target="_blank"><text x="957.1428571428571" y="762" text-anchor="middle" font-size="15" fill="#111827">run_views.running_macro_views(macros,cases,jobs,store)</text></a><rect x="32" y="788" width="2556" height="38" rx="3" fill="#fffbeb" stroke="#fcd34d"/><text x="1310.0" y="809" text-anchor="middle" font-size="14" fill="#854d0e">각 미완료 row의 _remaining → estimate → unknown이면 history 조회. 뒤의 queue_text와 중복; D-14 상세</text><path d="M1435.4285714285713,850 H479.85714285714283" fill="none" stroke="#0284c7" stroke-width="1.8" stroke-dasharray="6 4" marker-end="url(#ret)"/><text x="957.1428571428571" y="846" text-anchor="middle" font-size="15" fill="#0284c7">MacroView[]</text><path d="M478.85714285714283,888 H1757.2857142857142" fill="none" stroke="#16a34a" stroke-width="1.8" marker-end="url(#req)"/><a href="D-13.svg" target="_blank"><text x="1118.5714285714284" y="884" text-anchor="middle" font-size="15" fill="#111827">report.queue_text(store,enabled)</text></a><rect x="32" y="910" width="2556" height="38" rx="3" fill="#fffbeb" stroke="#fcd34d"/><text x="1310.0" y="931" text-anchor="middle" font-size="14" fill="#854d0e">전체 queued job마다 runtime_history 2연결 + ETA; 18:51 표본 5.535초, 본문 35조각</text><path d="M1758.2857142857142,972 H479.85714285714283" fill="none" stroke="#0284c7" stroke-width="1.8" stroke-dasharray="6 4" marker-end="url(#ret)"/><text x="1118.5714285714284" y="968" text-anchor="middle" font-size="15" fill="#0284c7">text</text><path d="M478.85714285714283,1028 H582.8571428571429 V1046 H478.85714285714283" fill="none" stroke="#16a34a" stroke-width="1.8" marker-end="url(#req)"/><text x="484.85714285714283" y="1006" text-anchor="start" font-size="15" fill="#111827">bot.Bot.send(chat, text,</text><text x="484.85714285714283" y="1024" text-anchor="start" font-size="15" fill="#111827">keyboard)</text><path d="M478.85714285714283,1086 H2080.142857142857" fill="none" stroke="#16a34a" stroke-width="1.8" marker-end="url(#req)"/><text x="1279.9999999999998" y="1082" text-anchor="middle" font-size="15" fill="#111827">telegram.Telegram.send(chat, text, keyboard)</text><path d="M2093.142857142857,1142 H2197.142857142857 V1160 H2093.142857142857" fill="none" stroke="#16a34a" stroke-width="1.8" marker-end="url(#req)"/><text x="2099.142857142857" y="1120" text-anchor="start" font-size="15" fill="#111827">telegram.Telegram.call(sendMessage;</text><text x="2099.142857142857" y="1138" text-anchor="start" font-size="15" fill="#111827">30 s/call)</text><rect x="32" y="1184" width="2556" height="38" rx="3" fill="#fffbeb" stroke="#fcd34d"/><text x="1310.0" y="1205" text-anchor="middle" font-size="14" fill="#854d0e">문자열 분할마다 동기 네트워크</text><path d="M2093.142857142857,1264 H2403.0" fill="none" stroke="#16a34a" stroke-width="1.8" marker-end="url(#req)"/><text x="2248.5714285714284" y="1242" text-anchor="middle" font-size="15" fill="#111827">urllib.request.urlopen(HTTPS</text><text x="2248.5714285714284" y="1260" text-anchor="middle" font-size="15" fill="#111827">Telegram Bot API; timeout)</text><rect x="32" y="1286" width="2556" height="38" rx="3" fill="#fffbeb" stroke="#fcd34d"/><text x="1310.0" y="1307" text-anchor="middle" font-size="14" fill="#854d0e">실제 외부 HTTP 요청; token은 표시하지 않음</text><path d="M2404.0,1348 H2094.142857142857" fill="none" stroke="#0284c7" stroke-width="1.8" stroke-dasharray="6 4" marker-end="url(#ret)"/><text x="2248.5714285714284" y="1344" text-anchor="middle" font-size="15" fill="#0284c7">HTTP response JSON</text><path d="M2093.142857142857,1386 H2197.142857142857 V1404 H2093.142857142857" fill="none" stroke="#0284c7" stroke-width="1.8" stroke-dasharray="6 4" marker-end="url(#ret)"/><text x="2099.142857142857" y="1382" text-anchor="start" font-size="15" fill="#0284c7">Message</text><path d="M2081.142857142857,1444 H479.85714285714283" fill="none" stroke="#0284c7" stroke-width="1.8" stroke-dasharray="6 4" marker-end="url(#ret)"/><text x="1279.9999999999998" y="1440" text-anchor="middle" font-size="15" fill="#0284c7">list[Message]</text><path d="M478.85714285714283,1500 H582.8571428571429 V1518 H478.85714285714283" fill="none" stroke="#16a34a" stroke-width="1.8" marker-end="url(#req)"/><text x="484.85714285714283" y="1478" text-anchor="start" font-size="15" fill="#111827">bot.Bot._remember(chat,</text><text x="484.85714285714283" y="1496" text-anchor="start" font-size="15" fill="#111827">result)</text><path d="M478.85714285714283,1558 H1111.5714285714284" fill="none" stroke="#16a34a" stroke-width="1.8" marker-end="url(#req)"/><text x="795.7142857142857" y="1554" text-anchor="middle" font-size="15" fill="#111827">storage.Store.remember_message(chat, message_id, date)</text><path d="M1112.5714285714284,1596 H479.85714285714283" fill="none" stroke="#0284c7" stroke-width="1.8" stroke-dasharray="6 4" marker-end="url(#ret)"/><text x="795.7142857142857" y="1592" text-anchor="middle" font-size="15" fill="#0284c7">None</text><path d="M478.85714285714283,1634 H582.8571428571429 V1652 H478.85714285714283" fill="none" stroke="#0284c7" stroke-width="1.8" stroke-dasharray="6 4" marker-end="url(#ret)"/><text x="484.85714285714283" y="1630" text-anchor="start" font-size="15" fill="#0284c7">None</text><path d="M478.85714285714283,1692 H582.8571428571429 V1710 H478.85714285714283" fill="none" stroke="#0284c7" stroke-width="1.8" stroke-dasharray="6 4" marker-end="url(#ret)"/><text x="484.85714285714283" y="1688" text-anchor="start" font-size="15" fill="#0284c7">list[Message]</text><path d="M478.85714285714283,1750 H582.8571428571429 V1768 H478.85714285714283" fill="none" stroke="#0284c7" stroke-width="1.8" stroke-dasharray="6 4" marker-end="url(#ret)"/><text x="484.85714285714283" y="1746" text-anchor="start" font-size="15" fill="#0284c7">None</text><path d="M466.85714285714283,1808 H157.0" fill="none" stroke="#0284c7" stroke-width="1.8" stroke-dasharray="6 4" marker-end="url(#ret)"/><text x="311.42857142857144" y="1804" text-anchor="middle" font-size="15" fill="#0284c7">None</text><rect x="24" y="1840" width="2572" height="77" fill="#fff1f2" stroke="#fda4af"/><text x="42" y="1862" text-anchor="start" font-size="15" fill="#9f1239" font-weight="700">alt [오류 / 거절 분기]</text><text x="42" y="1887" text-anchor="start" font-size="14" fill="#9f1239">입력/파일 오류 → 오류 메시지; TelegramError 등은 serve 경고 후 offset 진행</text><text x="1310.0" y="1957" text-anchor="middle" font-size="15" fill="#065f46" font-weight="700">최종 응답: 메시지/패널 반영 → handle 반환 → serve가 offset 저장</text></g></svg>
