<svg xmlns="http://www.w3.org/2000/svg" width="1600" height="636" viewBox="0 0 1600 636" role="img" aria-label="실행 설정·상속·monitor opt-in"><title>UC-17-gui 실행 설정·상속·monitor opt-in</title><defs><marker id="req" viewBox="0 0 10 10" refX="9" refY="5" markerWidth="7" markerHeight="7" orient="auto-start-reverse"><path d="M0 0 L10 5 L0 10 z" fill="#16a34a"/></marker><marker id="ret" viewBox="0 0 10 10" refX="9" refY="5" markerWidth="7" markerHeight="7" orient="auto-start-reverse"><path d="M0 0 L10 5 L0 10" fill="none" stroke="#0284c7" stroke-width="1.5"/></marker></defs><rect width="100%" height="100%" fill="white"/><g font-family="Noto Sans CJK KR, sans-serif"><text x="800.0" y="40" text-anchor="middle" font-size="27" fill="#0f172a" font-weight="700">UC-17-gui · 실행 설정·상속·monitor opt-in</text><text x="800.0" y="71" text-anchor="middle" font-size="15" fill="#475569">cfd-ticket-gui | #20 운영 반영 · 함수 요청은 실선 → / 반환은 점선 ← / 시간은 위에서 아래로</text><text x="800.0" y="97" text-anchor="middle" font-size="14" fill="#475569">진입: Tk event → update_execution_visibility</text><path d="M150.0,155 V526" stroke="#cbd5e1" stroke-dasharray="5 5"/><rect x="40.0" y="112" width="220" height="42" fill="#16a34a"/><text x="150.0" y="139" text-anchor="middle" font-size="15" fill="white" font-weight="700">사용자 / cfd-ticket-gui</text><rect x="40.0" y="526" width="220" height="42" fill="#16a34a"/><text x="150.0" y="553" text-anchor="middle" font-size="15" fill="white" font-weight="700">사용자 / cfd-ticket-gui</text><path d="M1390.0,155 V526" stroke="#cbd5e1" stroke-dasharray="5 5"/><rect x="1280.0" y="112" width="220" height="42" fill="#16a34a"/><text x="1390.0" y="139" text-anchor="middle" font-size="15" fill="white" font-weight="700">TicketEditor</text><rect x="1280.0" y="526" width="220" height="42" fill="#16a34a"/><text x="1390.0" y="553" text-anchor="middle" font-size="15" fill="white" font-weight="700">TicketEditor</text><rect x="1384.0" y="198" width="12" height="84" fill="#f0fdf4" stroke="#86efac"/><path d="M156.0,198 H1383.0" fill="none" stroke="#16a34a" stroke-width="1.8" marker-end="url(#req)"/><text x="770.0" y="194" text-anchor="middle" font-size="15" fill="#111827">gui.TicketEditor.update_execution_visibility(event 또는 현재 폼)</text><rect x="32" y="220" width="1536" height="38" rx="3" fill="#fffbeb" stroke="#fcd34d"/><text x="800.0" y="241" text-anchor="middle" font-size="14" fill="#854d0e">execution_source/task_type/role/cpu_policy/monitoring_cpu로 위젯 표시; child는 상속 표시; 저장 D-11</text><path d="M1384.0,282 H157.0" fill="none" stroke="#0284c7" stroke-width="1.8" stroke-dasharray="6 4" marker-end="url(#ret)"/><text x="770.0" y="278" text-anchor="middle" font-size="15" fill="#0284c7">None</text><rect x="24" y="314" width="1552" height="77" fill="#fff1f2" stroke="#fda4af"/><text x="42" y="336" text-anchor="start" font-size="15" fill="#9f1239" font-weight="700">alt [오류 / 거절 분기]</text><text x="42" y="361" text-anchor="start" font-size="14" fill="#9f1239">ValueError/OSError → messagebox; 초안 유지</text><text x="800.0" y="431" text-anchor="middle" font-size="15" fill="#065f46" font-weight="700">최종 응답: Tk status / widget / dialog 반영</text></g></svg>
