<svg xmlns="http://www.w3.org/2000/svg" width="2340" height="1930" viewBox="0 0 2340 1930" role="img" aria-label="매크로 구성원 선택"><title>UC-16-tg 매크로 구성원 선택</title><defs><marker id="req" viewBox="0 0 10 10" refX="9" refY="5" markerWidth="7" markerHeight="7" orient="auto-start-reverse"><path d="M0 0 L10 5 L0 10 z" fill="#16a34a"/></marker><marker id="ret" viewBox="0 0 10 10" refX="9" refY="5" markerWidth="7" markerHeight="7" orient="auto-start-reverse"><path d="M0 0 L10 5 L0 10" fill="none" stroke="#0284c7" stroke-width="1.5"/></marker></defs><rect width="100%" height="100%" fill="white"/><g font-family="Noto Sans CJK KR, sans-serif"><text x="1170.0" y="40" text-anchor="middle" font-size="27" fill="#0f172a" font-weight="700">UC-16-tg · 매크로 구성원 선택</text><text x="1170.0" y="71" text-anchor="middle" font-size="15" fill="#475569">Telegram | #20 운영 반영 · 함수 요청은 실선 → / 반환은 점선 ← / 시간은 위에서 아래로</text><text x="1170.0" y="97" text-anchor="middle" font-size="14" fill="#475569">진입: members / remove</text><path d="M150.0,155 V1820" stroke="#cbd5e1" stroke-dasharray="5 5"/><rect x="40.0" y="112" width="220" height="42" fill="#16a34a"/><text x="150.0" y="139" text-anchor="middle" font-size="15" fill="white" font-weight="700">사용자 / Telegram</text><rect x="40.0" y="1820" width="220" height="42" fill="#16a34a"/><text x="150.0" y="1847" text-anchor="middle" font-size="15" fill="white" font-weight="700">사용자 / Telegram</text><path d="M480.0,155 V1820" stroke="#cbd5e1" stroke-dasharray="5 5"/><rect x="370.0" y="112" width="220" height="42" fill="#16a34a"/><text x="480.0" y="139" text-anchor="middle" font-size="15" fill="white" font-weight="700">Bot</text><rect x="370.0" y="1820" width="220" height="42" fill="#16a34a"/><text x="480.0" y="1847" text-anchor="middle" font-size="15" fill="white" font-weight="700">Bot</text><path d="M810.0,155 V1820" stroke="#cbd5e1" stroke-dasharray="5 5"/><rect x="700.0" y="112" width="220" height="42" fill="#16a34a"/><text x="810.0" y="139" text-anchor="middle" font-size="15" fill="white" font-weight="700">TicketChat</text><rect x="700.0" y="1820" width="220" height="42" fill="#16a34a"/><text x="810.0" y="1847" text-anchor="middle" font-size="15" fill="white" font-weight="700">TicketChat</text><path d="M1140.0,155 V1820" stroke="#cbd5e1" stroke-dasharray="5 5"/><rect x="1030.0" y="112" width="220" height="42" fill="#16a34a"/><text x="1140.0" y="139" text-anchor="middle" font-size="15" fill="white" font-weight="700">tickets</text><rect x="1030.0" y="1820" width="220" height="42" fill="#16a34a"/><text x="1140.0" y="1847" text-anchor="middle" font-size="15" fill="white" font-weight="700">tickets</text><path d="M1470.0,155 V1820" stroke="#cbd5e1" stroke-dasharray="5 5"/><rect x="1360.0" y="112" width="220" height="42" fill="#16a34a"/><text x="1470.0" y="139" text-anchor="middle" font-size="15" fill="white" font-weight="700">SQLite Store</text><rect x="1360.0" y="1820" width="220" height="42" fill="#16a34a"/><text x="1470.0" y="1847" text-anchor="middle" font-size="15" fill="white" font-weight="700">SQLite Store</text><path d="M1800.0,155 V1820" stroke="#cbd5e1" stroke-dasharray="5 5"/><rect x="1690.0" y="112" width="220" height="42" fill="#16a34a"/><text x="1800.0" y="139" text-anchor="middle" font-size="15" fill="white" font-weight="700">Telegram client</text><rect x="1690.0" y="1820" width="220" height="42" fill="#16a34a"/><text x="1800.0" y="1847" text-anchor="middle" font-size="15" fill="white" font-weight="700">Telegram client</text><path d="M2130.0,155 V1820" stroke="#cbd5e1" stroke-dasharray="5 5"/><rect x="2020.0" y="112" width="220" height="42" fill="#16a34a"/><text x="2130.0" y="139" text-anchor="middle" font-size="15" fill="white" font-weight="700">Telegram Bot API</text><rect x="2020.0" y="1820" width="220" height="42" fill="#16a34a"/><text x="2130.0" y="1847" text-anchor="middle" font-size="15" fill="white" font-weight="700">Telegram Bot API</text><rect x="474.0" y="198" width="12" height="1378" fill="#f0fdf4" stroke="#86efac"/><rect x="804.0" y="282" width="12" height="1256" fill="#f0fdf4" stroke="#86efac"/><rect x="804.0" y="384" width="12" height="1096" fill="#f0fdf4" stroke="#86efac"/><rect x="804.0" y="506" width="12" height="916" fill="#f0fdf4" stroke="#86efac"/><rect x="804.0" y="694" width="12" height="670" fill="#f0fdf4" stroke="#86efac"/><rect x="1794.0" y="1008" width="12" height="224" fill="#f0fdf4" stroke="#86efac"/><rect x="804.0" y="816" width="12" height="134" fill="#f0fdf4" stroke="#86efac"/><rect x="2124.0" y="1110" width="12" height="84" fill="#f0fdf4" stroke="#86efac"/><rect x="1134.0" y="582" width="12" height="38" fill="#f0fdf4" stroke="#86efac"/><rect x="1464.0" y="874" width="12" height="38" fill="#f0fdf4" stroke="#86efac"/><rect x="474.0" y="1288" width="12" height="38" fill="#f0fdf4" stroke="#86efac"/><path d="M156.0,198 H473.0" fill="none" stroke="#16a34a" stroke-width="1.8" marker-end="url(#req)"/><text x="315.0" y="194" text-anchor="middle" font-size="15" fill="#111827">bot.Bot.handle(update)</text><rect x="32" y="220" width="2276" height="38" rx="3" fill="#fffbeb" stroke="#fcd34d"/><text x="1170.0" y="241" text-anchor="middle" font-size="14" fill="#854d0e">sender/chat 인증; callback ACK는 별도 thread</text><path d="M486.0,282 H803.0" fill="none" stroke="#16a34a" stroke-width="1.8" marker-end="url(#req)"/><text x="645.0" y="278" text-anchor="middle" font-size="15" fill="#111827">ticket_chat.TicketChat.handle(update)</text><rect x="32" y="304" width="2276" height="38" rx="3" fill="#fffbeb" stroke="#fcd34d"/><text x="1170.0" y="325" text-anchor="middle" font-size="14" fill="#854d0e">진입/입력 명령은 handle에서 직접 분기</text><path d="M816.0,384 H920.0 V402 H816.0" fill="none" stroke="#16a34a" stroke-width="1.8" marker-end="url(#req)"/><text x="822.0" y="362" text-anchor="start" font-size="15" fill="#111827">ticket_chat.TicketChat.action(chat,</text><text x="822.0" y="380" text-anchor="start" font-size="15" fill="#111827">user, session, op, arg)</text><rect x="32" y="426" width="2276" height="38" rx="3" fill="#fffbeb" stroke="#fcd34d"/><text x="1170.0" y="447" text-anchor="middle" font-size="14" fill="#854d0e">token 확인 후 op 분기; RLock 유지</text><path d="M816.0,506 H920.0 V524 H816.0" fill="none" stroke="#16a34a" stroke-width="1.8" marker-end="url(#req)"/><text x="822.0" y="484" text-anchor="start" font-size="15" fill="#111827">ticket_chat.TicketChat.members(session,</text><text x="822.0" y="502" text-anchor="start" font-size="15" fill="#111827">page)</text><path d="M816.0,582 H1133.0" fill="none" stroke="#16a34a" stroke-width="1.8" marker-end="url(#req)"/><text x="975.0" y="560" text-anchor="middle" font-size="15" fill="#111827">tickets.has_postprocessing(각 보이는</text><text x="975.0" y="578" text-anchor="middle" font-size="15" fill="#111827">root)</text><path d="M1134.0,620 H817.0" fill="none" stroke="#0284c7" stroke-width="1.8" stroke-dasharray="6 4" marker-end="url(#ret)"/><text x="975.0" y="616" text-anchor="middle" font-size="15" fill="#0284c7">bool</text><path d="M816.0,694 H920.0 V712 H816.0" fill="none" stroke="#16a34a" stroke-width="1.8" marker-end="url(#req)"/><text x="822.0" y="654" text-anchor="start" font-size="15" fill="#111827">ticket_chat.TicketChat.render(chat,</text><text x="822.0" y="672" text-anchor="start" font-size="15" fill="#111827">user, session, text, rows,</text><text x="822.0" y="690" text-anchor="start" font-size="15" fill="#111827">view)</text><rect x="32" y="736" width="2276" height="38" rx="3" fill="#fffbeb" stroke="#fcd34d"/><text x="1170.0" y="757" text-anchor="middle" font-size="14" fill="#854d0e">TicketChat RLock 안의 동기 전송</text><path d="M816.0,816 H920.0 V834 H816.0" fill="none" stroke="#16a34a" stroke-width="1.8" marker-end="url(#req)"/><text x="822.0" y="794" text-anchor="start" font-size="15" fill="#111827">ticket_chat.TicketChat.persist(새</text><text x="822.0" y="812" text-anchor="start" font-size="15" fill="#111827">token / view)</text><path d="M816.0,874 H1463.0" fill="none" stroke="#16a34a" stroke-width="1.8" marker-end="url(#req)"/><text x="1140.0" y="870" text-anchor="middle" font-size="15" fill="#111827">storage.Store.put(session key, session)</text><path d="M1464.0,912 H817.0" fill="none" stroke="#0284c7" stroke-width="1.8" stroke-dasharray="6 4" marker-end="url(#ret)"/><text x="1140.0" y="908" text-anchor="middle" font-size="15" fill="#0284c7">None</text><path d="M816.0,950 H920.0 V968 H816.0" fill="none" stroke="#0284c7" stroke-width="1.8" stroke-dasharray="6 4" marker-end="url(#ret)"/><text x="822.0" y="946" text-anchor="start" font-size="15" fill="#0284c7">None</text><path d="M816.0,1008 H1793.0" fill="none" stroke="#16a34a" stroke-width="1.8" marker-end="url(#req)"/><text x="1305.0" y="1004" text-anchor="middle" font-size="15" fill="#111827">telegram.Telegram.call(panel 존재: editMessageText)</text><rect x="32" y="1030" width="2276" height="38" rx="3" fill="#fffbeb" stroke="#fcd34d"/><text x="1170.0" y="1051" text-anchor="middle" font-size="14" fill="#854d0e">실패하면 Bot.send로 새 메시지</text><path d="M1806.0,1110 H2123.0" fill="none" stroke="#16a34a" stroke-width="1.8" marker-end="url(#req)"/><text x="1965.0" y="1088" text-anchor="middle" font-size="15" fill="#111827">urllib.request.urlopen(HTTPS</text><text x="1965.0" y="1106" text-anchor="middle" font-size="15" fill="#111827">Telegram Bot API; timeout)</text><rect x="32" y="1132" width="2276" height="38" rx="3" fill="#fffbeb" stroke="#fcd34d"/><text x="1170.0" y="1153" text-anchor="middle" font-size="14" fill="#854d0e">실제 외부 HTTP 요청; token은 표시하지 않음</text><path d="M2124.0,1194 H1807.0" fill="none" stroke="#0284c7" stroke-width="1.8" stroke-dasharray="6 4" marker-end="url(#ret)"/><text x="1965.0" y="1190" text-anchor="middle" font-size="15" fill="#0284c7">HTTP response JSON</text><path d="M1794.0,1232 H817.0" fill="none" stroke="#0284c7" stroke-width="1.8" stroke-dasharray="6 4" marker-end="url(#ret)"/><text x="1305.0" y="1228" text-anchor="middle" font-size="15" fill="#0284c7">Message</text><path d="M804.0,1288 H487.0" fill="none" stroke="#16a34a" stroke-width="1.8" marker-end="url(#req)"/><text x="645.0" y="1266" text-anchor="middle" font-size="15" fill="#111827">bot.Bot.send(panel 없거나 edit 실패:</text><text x="645.0" y="1284" text-anchor="middle" font-size="15" fill="#111827">text, markup)</text><path d="M486.0,1326 H803.0" fill="none" stroke="#0284c7" stroke-width="1.8" stroke-dasharray="6 4" marker-end="url(#ret)"/><text x="645.0" y="1322" text-anchor="middle" font-size="15" fill="#0284c7">list[Message]</text><path d="M816.0,1364 H920.0 V1382 H816.0" fill="none" stroke="#0284c7" stroke-width="1.8" stroke-dasharray="6 4" marker-end="url(#ret)"/><text x="822.0" y="1360" text-anchor="start" font-size="15" fill="#0284c7">None</text><path d="M816.0,1422 H920.0 V1440 H816.0" fill="none" stroke="#0284c7" stroke-width="1.8" stroke-dasharray="6 4" marker-end="url(#ret)"/><text x="822.0" y="1418" text-anchor="start" font-size="15" fill="#0284c7">None</text><path d="M816.0,1480 H920.0 V1498 H816.0" fill="none" stroke="#0284c7" stroke-width="1.8" stroke-dasharray="6 4" marker-end="url(#ret)"/><text x="822.0" y="1476" text-anchor="start" font-size="15" fill="#0284c7">None</text><path d="M804.0,1538 H487.0" fill="none" stroke="#0284c7" stroke-width="1.8" stroke-dasharray="6 4" marker-end="url(#ret)"/><text x="645.0" y="1534" text-anchor="middle" font-size="15" fill="#0284c7">bool: consumed</text><path d="M474.0,1576 H157.0" fill="none" stroke="#0284c7" stroke-width="1.8" stroke-dasharray="6 4" marker-end="url(#ret)"/><text x="315.0" y="1572" text-anchor="middle" font-size="15" fill="#0284c7">None</text><rect x="24" y="1608" width="2292" height="77" fill="#fff1f2" stroke="#fda4af"/><text x="42" y="1630" text-anchor="start" font-size="15" fill="#9f1239" font-weight="700">alt [오류 / 거절 분기]</text><text x="42" y="1655" text-anchor="start" font-size="14" fill="#9f1239">입력/파일 오류 → 오류 메시지; TelegramError 등은 serve 경고 후 offset 진행</text><text x="1170.0" y="1725" text-anchor="middle" font-size="15" fill="#065f46" font-weight="700">최종 응답: 메시지/패널 반영 → handle 반환 → serve가 offset 저장</text></g></svg>
