<svg xmlns="http://www.w3.org/2000/svg" width="4412" height="4078" viewBox="0 0 4412 4078" role="img" aria-label="매크로 검색·필터·취소"><title>UC-15-tg 매크로 검색·필터·취소</title><defs><marker id="req" viewBox="0 0 10 10" refX="9" refY="5" markerWidth="7" markerHeight="7" orient="auto-start-reverse"><path d="M0 0 L10 5 L0 10 z" fill="#16a34a"/></marker><marker id="ret" viewBox="0 0 10 10" refX="9" refY="5" markerWidth="7" markerHeight="7" orient="auto-start-reverse"><path d="M0 0 L10 5 L0 10" fill="none" stroke="#0284c7" stroke-width="1.5"/></marker></defs><rect width="100%" height="100%" fill="white"/><g font-family="Noto Sans CJK KR, sans-serif"><text x="2206.0" y="40" text-anchor="middle" font-size="27" fill="#0f172a" font-weight="700">UC-15-tg · 매크로 검색·필터·취소</text><text x="2206.0" y="71" text-anchor="middle" font-size="15" fill="#475569">Telegram | #20 운영 반영 · 함수 요청은 실선 → / 반환은 점선 ← / 시간은 위에서 아래로</text><text x="2206.0" y="97" text-anchor="middle" font-size="14" fill="#475569">진입: scan / stopscan</text><path d="M150.0,155 V3968" stroke="#cbd5e1" stroke-dasharray="5 5"/><rect x="40.0" y="112" width="220" height="42" fill="#16a34a"/><text x="150.0" y="139" text-anchor="middle" font-size="15" fill="white" font-weight="700">사용자 / Telegram</text><rect x="40.0" y="3968" width="220" height="42" fill="#16a34a"/><text x="150.0" y="3995" text-anchor="middle" font-size="15" fill="white" font-weight="700">사용자 / Telegram</text><path d="M555.2,155 V3968" stroke="#cbd5e1" stroke-dasharray="5 5"/><rect x="445.20000000000005" y="112" width="220" height="42" fill="#16a34a"/><text x="555.2" y="139" text-anchor="middle" font-size="15" fill="white" font-weight="700">Bot</text><rect x="445.20000000000005" y="3968" width="220" height="42" fill="#16a34a"/><text x="555.2" y="3995" text-anchor="middle" font-size="15" fill="white" font-weight="700">Bot</text><path d="M960.4,155 V3968" stroke="#cbd5e1" stroke-dasharray="5 5"/><rect x="850.4" y="112" width="220" height="42" fill="#16a34a"/><text x="960.4" y="139" text-anchor="middle" font-size="15" fill="white" font-weight="700">TicketChat</text><rect x="850.4" y="3968" width="220" height="42" fill="#16a34a"/><text x="960.4" y="3995" text-anchor="middle" font-size="15" fill="white" font-weight="700">TicketChat</text><path d="M1365.6,155 V3968" stroke="#cbd5e1" stroke-dasharray="5 5"/><rect x="1255.6" y="112" width="220" height="42" fill="#16a34a"/><text x="1365.6" y="139" text-anchor="middle" font-size="15" fill="white" font-weight="700">SQLite Store</text><rect x="1255.6" y="3968" width="220" height="42" fill="#16a34a"/><text x="1365.6" y="3995" text-anchor="middle" font-size="15" fill="white" font-weight="700">SQLite Store</text><path d="M1770.8,155 V3968" stroke="#cbd5e1" stroke-dasharray="5 5"/><rect x="1660.8" y="112" width="220" height="42" fill="#16a34a"/><text x="1770.8" y="139" text-anchor="middle" font-size="15" fill="white" font-weight="700">Telegram client</text><rect x="1660.8" y="3968" width="220" height="42" fill="#16a34a"/><text x="1770.8" y="3995" text-anchor="middle" font-size="15" fill="white" font-weight="700">Telegram client</text><path d="M2176.0,155 V3968" stroke="#cbd5e1" stroke-dasharray="5 5"/><rect x="2066.0" y="112" width="220" height="42" fill="#16a34a"/><text x="2176.0" y="139" text-anchor="middle" font-size="15" fill="white" font-weight="700">Telegram Bot API</text><rect x="2066.0" y="3968" width="220" height="42" fill="#16a34a"/><text x="2176.0" y="3995" text-anchor="middle" font-size="15" fill="white" font-weight="700">Telegram Bot API</text><path d="M2581.2,155 V3968" stroke="#cbd5e1" stroke-dasharray="5 5"/><rect x="2471.2" y="112" width="220" height="42" fill="#16a34a"/><text x="2581.2" y="139" text-anchor="middle" font-size="15" fill="white" font-weight="700">검색 worker</text><rect x="2471.2" y="3968" width="220" height="42" fill="#16a34a"/><text x="2581.2" y="3995" text-anchor="middle" font-size="15" fill="white" font-weight="700">검색 worker</text><path d="M2986.4,155 V3968" stroke="#cbd5e1" stroke-dasharray="5 5"/><rect x="2876.4" y="112" width="220" height="42" fill="#16a34a"/><text x="2986.4" y="139" text-anchor="middle" font-size="15" fill="white" font-weight="700">processes</text><rect x="2876.4" y="3968" width="220" height="42" fill="#16a34a"/><text x="2986.4" y="3995" text-anchor="middle" font-size="15" fill="white" font-weight="700">processes</text><path d="M3391.6,155 V3968" stroke="#cbd5e1" stroke-dasharray="5 5"/><rect x="3281.6" y="112" width="220" height="42" fill="#16a34a"/><text x="3391.6" y="139" text-anchor="middle" font-size="15" fill="white" font-weight="700">subprocess</text><rect x="3281.6" y="3968" width="220" height="42" fill="#16a34a"/><text x="3391.6" y="3995" text-anchor="middle" font-size="15" fill="white" font-weight="700">subprocess</text><path d="M3796.8,155 V3968" stroke="#cbd5e1" stroke-dasharray="5 5"/><rect x="3686.8" y="112" width="220" height="42" fill="#16a34a"/><text x="3796.8" y="139" text-anchor="middle" font-size="15" fill="white" font-weight="700">ofps 프로세스</text><rect x="3686.8" y="3968" width="220" height="42" fill="#16a34a"/><text x="3796.8" y="3995" text-anchor="middle" font-size="15" fill="white" font-weight="700">ofps 프로세스</text><path d="M4202.0,155 V3968" stroke="#cbd5e1" stroke-dasharray="5 5"/><rect x="4092.0" y="112" width="220" height="42" fill="#16a34a"/><text x="4202.0" y="139" text-anchor="middle" font-size="15" fill="white" font-weight="700">tickets</text><rect x="4092.0" y="3968" width="220" height="42" fill="#16a34a"/><text x="4202.0" y="3995" text-anchor="middle" font-size="15" fill="white" font-weight="700">tickets</text><rect x="549.2" y="198" width="12" height="1350" fill="#f0fdf4" stroke="#86efac"/><rect x="954.4" y="282" width="12" height="1228" fill="#f0fdf4" stroke="#86efac"/><rect x="954.4" y="384" width="12" height="1068" fill="#f0fdf4" stroke="#86efac"/><rect x="2980.4" y="1678" width="12" height="1026" fill="#f0fdf4" stroke="#86efac"/><rect x="954.4" y="506" width="12" height="888" fill="#f0fdf4" stroke="#86efac"/><rect x="954.4" y="2894" width="12" height="784" fill="#f0fdf4" stroke="#86efac"/><rect x="954.4" y="646" width="12" height="652" fill="#f0fdf4" stroke="#86efac"/><rect x="954.4" y="2968" width="12" height="652" fill="#f0fdf4" stroke="#86efac"/><rect x="2980.4" y="2176" width="12" height="470" fill="#f0fdf4" stroke="#86efac"/><rect x="3385.6" y="1780" width="12" height="340" fill="#f0fdf4" stroke="#86efac"/><rect x="1764.8" y="960" width="12" height="224" fill="#f0fdf4" stroke="#86efac"/><rect x="1764.8" y="3282" width="12" height="224" fill="#f0fdf4" stroke="#86efac"/><rect x="3790.8" y="1864" width="12" height="218" fill="#f0fdf4" stroke="#86efac"/><rect x="954.4" y="768" width="12" height="134" fill="#f0fdf4" stroke="#86efac"/><rect x="954.4" y="3090" width="12" height="134" fill="#f0fdf4" stroke="#86efac"/><rect x="2980.4" y="2368" width="12" height="104" fill="#f0fdf4" stroke="#86efac"/><rect x="2170.0" y="1062" width="12" height="84" fill="#f0fdf4" stroke="#86efac"/><rect x="2170.0" y="3384" width="12" height="84" fill="#f0fdf4" stroke="#86efac"/><rect x="3790.8" y="1966" width="12" height="58" fill="#f0fdf4" stroke="#86efac"/><rect x="2980.4" y="2234" width="12" height="58" fill="#f0fdf4" stroke="#86efac"/><rect x="2980.4" y="2530" width="12" height="58" fill="#f0fdf4" stroke="#86efac"/><rect x="1359.6" y="826" width="12" height="38" fill="#f0fdf4" stroke="#86efac"/><rect x="549.2" y="1222" width="12" height="38" fill="#f0fdf4" stroke="#86efac"/><rect x="4196.0" y="2742" width="12" height="38" fill="#f0fdf4" stroke="#86efac"/><rect x="954.4" y="2818" width="12" height="38" fill="#f0fdf4" stroke="#86efac"/><rect x="1359.6" y="3148" width="12" height="38" fill="#f0fdf4" stroke="#86efac"/><rect x="549.2" y="3544" width="12" height="38" fill="#f0fdf4" stroke="#86efac"/><path d="M156.0,198 H548.2" fill="none" stroke="#16a34a" stroke-width="1.8" marker-end="url(#req)"/><text x="352.6" y="194" text-anchor="middle" font-size="15" fill="#111827">bot.Bot.handle(update)</text><rect x="32" y="220" width="4348" height="38" rx="3" fill="#fffbeb" stroke="#fcd34d"/><text x="2206.0" y="241" text-anchor="middle" font-size="14" fill="#854d0e">sender/chat 인증; callback ACK는 별도 thread</text><path d="M561.2,282 H953.4" fill="none" stroke="#16a34a" stroke-width="1.8" marker-end="url(#req)"/><text x="757.8" y="278" text-anchor="middle" font-size="15" fill="#111827">ticket_chat.TicketChat.handle(update)</text><rect x="32" y="304" width="4348" height="38" rx="3" fill="#fffbeb" stroke="#fcd34d"/><text x="2206.0" y="325" text-anchor="middle" font-size="14" fill="#854d0e">진입/입력 명령은 handle에서 직접 분기</text><path d="M966.4,384 H1070.4 V402 H966.4" fill="none" stroke="#16a34a" stroke-width="1.8" marker-end="url(#req)"/><text x="972.4" y="362" text-anchor="start" font-size="15" fill="#111827">ticket_chat.TicketChat.action(chat,</text><text x="972.4" y="380" text-anchor="start" font-size="15" fill="#111827">user, session, op, arg)</text><rect x="32" y="426" width="4348" height="38" rx="3" fill="#fffbeb" stroke="#fcd34d"/><text x="2206.0" y="447" text-anchor="middle" font-size="14" fill="#854d0e">token 확인 후 op 분기; RLock 유지</text><path d="M966.4,506 H1070.4 V524 H966.4" fill="none" stroke="#16a34a" stroke-width="1.8" marker-end="url(#req)"/><text x="972.4" y="484" text-anchor="start" font-size="15" fill="#111827">ticket_chat.TicketChat.scan(session</text><text x="972.4" y="502" text-anchor="start" font-size="15" fill="#111827">filters)</text><rect x="32" y="548" width="4348" height="38" rx="3" fill="#fffbeb" stroke="#fcd34d"/><text x="2206.0" y="569" text-anchor="middle" font-size="14" fill="#854d0e">stopscan은 scan_id 무효화; 실행 중 subprocess를 kill하지 않음</text><path d="M966.4,646 H1070.4 V664 H966.4" fill="none" stroke="#16a34a" stroke-width="1.8" marker-end="url(#req)"/><text x="972.4" y="606" text-anchor="start" font-size="15" fill="#111827">ticket_chat.TicketChat.render(chat,</text><text x="972.4" y="624" text-anchor="start" font-size="15" fill="#111827">user, session, text, rows,</text><text x="972.4" y="642" text-anchor="start" font-size="15" fill="#111827">view)</text><rect x="32" y="688" width="4348" height="38" rx="3" fill="#fffbeb" stroke="#fcd34d"/><text x="2206.0" y="709" text-anchor="middle" font-size="14" fill="#854d0e">TicketChat RLock 안의 동기 전송</text><path d="M966.4,768 H1070.4 V786 H966.4" fill="none" stroke="#16a34a" stroke-width="1.8" marker-end="url(#req)"/><text x="972.4" y="746" text-anchor="start" font-size="15" fill="#111827">ticket_chat.TicketChat.persist(새</text><text x="972.4" y="764" text-anchor="start" font-size="15" fill="#111827">token / view)</text><path d="M966.4,826 H1358.6" fill="none" stroke="#16a34a" stroke-width="1.8" marker-end="url(#req)"/><text x="1163.0" y="822" text-anchor="middle" font-size="15" fill="#111827">storage.Store.put(session key, session)</text><path d="M1359.6,864 H967.4" fill="none" stroke="#0284c7" stroke-width="1.8" stroke-dasharray="6 4" marker-end="url(#ret)"/><text x="1163.0" y="860" text-anchor="middle" font-size="15" fill="#0284c7">None</text><path d="M966.4,902 H1070.4 V920 H966.4" fill="none" stroke="#0284c7" stroke-width="1.8" stroke-dasharray="6 4" marker-end="url(#ret)"/><text x="972.4" y="898" text-anchor="start" font-size="15" fill="#0284c7">None</text><path d="M966.4,960 H1763.8" fill="none" stroke="#16a34a" stroke-width="1.8" marker-end="url(#req)"/><text x="1365.6" y="956" text-anchor="middle" font-size="15" fill="#111827">telegram.Telegram.call(panel 존재: editMessageText)</text><rect x="32" y="982" width="4348" height="38" rx="3" fill="#fffbeb" stroke="#fcd34d"/><text x="2206.0" y="1003" text-anchor="middle" font-size="14" fill="#854d0e">실패하면 Bot.send로 새 메시지</text><path d="M1776.8,1062 H2169.0" fill="none" stroke="#16a34a" stroke-width="1.8" marker-end="url(#req)"/><text x="1973.4" y="1040" text-anchor="middle" font-size="15" fill="#111827">urllib.request.urlopen(HTTPS Telegram Bot</text><text x="1973.4" y="1058" text-anchor="middle" font-size="15" fill="#111827">API; timeout)</text><rect x="32" y="1084" width="4348" height="38" rx="3" fill="#fffbeb" stroke="#fcd34d"/><text x="2206.0" y="1105" text-anchor="middle" font-size="14" fill="#854d0e">실제 외부 HTTP 요청; token은 표시하지 않음</text><path d="M2170.0,1146 H1777.8" fill="none" stroke="#0284c7" stroke-width="1.8" stroke-dasharray="6 4" marker-end="url(#ret)"/><text x="1973.4" y="1142" text-anchor="middle" font-size="15" fill="#0284c7">HTTP response JSON</text><path d="M1764.8,1184 H967.4" fill="none" stroke="#0284c7" stroke-width="1.8" stroke-dasharray="6 4" marker-end="url(#ret)"/><text x="1365.6" y="1180" text-anchor="middle" font-size="15" fill="#0284c7">Message</text><path d="M954.4,1222 H562.2" fill="none" stroke="#16a34a" stroke-width="1.8" marker-end="url(#req)"/><text x="757.8" y="1218" text-anchor="middle" font-size="15" fill="#111827">bot.Bot.send(panel 없거나 edit 실패: text, markup)</text><path d="M561.2,1260 H953.4" fill="none" stroke="#0284c7" stroke-width="1.8" stroke-dasharray="6 4" marker-end="url(#ret)"/><text x="757.8" y="1256" text-anchor="middle" font-size="15" fill="#0284c7">list[Message]</text><path d="M966.4,1298 H1070.4 V1316 H966.4" fill="none" stroke="#0284c7" stroke-width="1.8" stroke-dasharray="6 4" marker-end="url(#ret)"/><text x="972.4" y="1294" text-anchor="start" font-size="15" fill="#0284c7">None</text><path d="M966.4,1356 H2574.2" fill="none" stroke="#16a34a" stroke-width="1.8" marker-end="url(#ret)"/><text x="1770.8" y="1352" text-anchor="middle" font-size="15" fill="#111827">Thread.start → ticket_chat.TicketChat.scan.work (비동기)</text><path d="M966.4,1394 H1070.4 V1412 H966.4" fill="none" stroke="#0284c7" stroke-width="1.8" stroke-dasharray="6 4" marker-end="url(#ret)"/><text x="972.4" y="1390" text-anchor="start" font-size="15" fill="#0284c7">None</text><path d="M966.4,1452 H1070.4 V1470 H966.4" fill="none" stroke="#0284c7" stroke-width="1.8" stroke-dasharray="6 4" marker-end="url(#ret)"/><text x="972.4" y="1448" text-anchor="start" font-size="15" fill="#0284c7">None</text><path d="M954.4,1510 H562.2" fill="none" stroke="#0284c7" stroke-width="1.8" stroke-dasharray="6 4" marker-end="url(#ret)"/><text x="757.8" y="1506" text-anchor="middle" font-size="15" fill="#0284c7">bool: consumed</text><path d="M549.2,1548 H157.0" fill="none" stroke="#0284c7" stroke-width="1.8" stroke-dasharray="6 4" marker-end="url(#ret)"/><text x="352.6" y="1544" text-anchor="middle" font-size="15" fill="#0284c7">None</text><rect x="32" y="1570" width="4348" height="38" rx="3" fill="#fffbeb" stroke="#fcd34d"/><text x="2206.0" y="1591" text-anchor="middle" font-size="14" fill="#854d0e">비동기 후속 처리: 부모 요청 반환과 별개로 실행 / 결과 반영</text><rect x="32" y="1616" width="4348" height="38" rx="3" fill="#fffbeb" stroke="#fcd34d"/><text x="2206.0" y="1637" text-anchor="middle" font-size="14" fill="#854d0e">ticket_chat.TicketChat.scan.work</text><path d="M2587.2,1678 H2979.4" fill="none" stroke="#16a34a" stroke-width="1.8" marker-end="url(#req)"/><a href="D-04.svg" target="_blank"><text x="2783.8" y="1674" text-anchor="middle" font-size="15" fill="#111827">processes.snapshot(ofps_command)</text></a><rect x="32" y="1700" width="4348" height="38" rx="3" fill="#fffbeb" stroke="#fcd34d"/><text x="2206.0" y="1721" text-anchor="middle" font-size="14" fill="#854d0e">SNAPSHOT_LOCK 획득 대기 → subprocess 실행 중 보유 → 해제 → parse</text><path d="M2992.4,1780 H3384.6" fill="none" stroke="#16a34a" stroke-width="1.8" marker-end="url(#req)"/><text x="3189.0" y="1758" text-anchor="middle" font-size="15" fill="#111827">subprocess.run(command,</text><text x="3189.0" y="1776" text-anchor="middle" font-size="15" fill="#111827">env=managed_scan_environment(), timeout=45)</text><rect x="32" y="1802" width="4348" height="38" rx="3" fill="#fffbeb" stroke="#fcd34d"/><text x="2206.0" y="1823" text-anchor="middle" font-size="14" fill="#854d0e">SNAPSHOT_LOCK 안: 대기 시간 제한 없음; run 시간만 45초</text><path d="M3397.6,1864 H3789.8" fill="none" stroke="#16a34a" stroke-width="1.8" marker-end="url(#req)"/><text x="3594.2" y="1860" text-anchor="middle" font-size="15" fill="#111827">scan_and_sync(새 프로세스; CFD_BOT_OFPS_MANAGED=1)</text><rect x="32" y="1886" width="4348" height="38" rx="3" fill="#fffbeb" stroke="#fcd34d"/><text x="2206.0" y="1907" text-anchor="middle" font-size="14" fill="#854d0e">managed 모드: 내부 ticket sync 생략; scan 자체는 실행</text><path d="M3802.8,1966 H3906.8 V1984 H3802.8" fill="none" stroke="#16a34a" stroke-width="1.8" marker-end="url(#req)"/><text x="3808.8" y="1944" text-anchor="start" font-size="15" fill="#111827">scan_once(records_file; /proc</text><text x="3808.8" y="1962" text-anchor="start" font-size="15" fill="#111827">/ ps 탐색)</text><path d="M3802.8,2024 H3906.8 V2042 H3802.8" fill="none" stroke="#0284c7" stroke-width="1.8" stroke-dasharray="6 4" marker-end="url(#ret)"/><text x="3808.8" y="2020" text-anchor="start" font-size="15" fill="#0284c7">ENGINE / CASE / process table</text><path d="M3790.8,2082 H3398.6" fill="none" stroke="#0284c7" stroke-width="1.8" stroke-dasharray="6 4" marker-end="url(#ret)"/><text x="3594.2" y="2078" text-anchor="middle" font-size="15" fill="#0284c7">stdout / stderr / exit code</text><path d="M3385.6,2120 H2993.4" fill="none" stroke="#0284c7" stroke-width="1.8" stroke-dasharray="6 4" marker-end="url(#ret)"/><text x="3189.0" y="2116" text-anchor="middle" font-size="15" fill="#0284c7">CompletedProcess</text><path d="M2992.4,2176 H3096.4 V2194 H2992.4" fill="none" stroke="#16a34a" stroke-width="1.8" marker-end="url(#req)"/><text x="2998.4" y="2154" text-anchor="start" font-size="15" fill="#111827">processes.parse_snapshot(stdout;</text><text x="2998.4" y="2172" text-anchor="start" font-size="15" fill="#111827">lock 해제 후)</text><path d="M2992.4,2234 H3096.4 V2252 H2992.4" fill="none" stroke="#16a34a" stroke-width="1.8" marker-end="url(#req)"/><text x="2998.4" y="2230" text-anchor="start" font-size="15" fill="#111827">processes.identity(PID)</text><path d="M2992.4,2292 H3096.4 V2310 H2992.4" fill="none" stroke="#0284c7" stroke-width="1.8" stroke-dasharray="6 4" marker-end="url(#ret)"/><text x="2998.4" y="2288" text-anchor="start" font-size="15" fill="#0284c7">boot:pid:starttick | None</text><path d="M2992.4,2368 H3096.4 V2386 H2992.4" fill="none" stroke="#16a34a" stroke-width="1.8" marker-end="url(#req)"/><text x="2998.4" y="2346" text-anchor="start" font-size="15" fill="#111827">processes.owner_label(supervisor</text><text x="2998.4" y="2364" text-anchor="start" font-size="15" fill="#111827">또는 첫 PID)</text><rect x="32" y="2410" width="4348" height="38" rx="3" fill="#fffbeb" stroke="#fcd34d"/><text x="2206.0" y="2431" text-anchor="middle" font-size="14" fill="#854d0e">/proc 조상 최대 64단계, 환경/TTY 확인</text><path d="M2992.4,2472 H3096.4 V2490 H2992.4" fill="none" stroke="#0284c7" stroke-width="1.8" stroke-dasharray="6 4" marker-end="url(#ret)"/><text x="2998.4" y="2468" text-anchor="start" font-size="15" fill="#0284c7">str</text><path d="M2992.4,2530 H3096.4 V2548 H2992.4" fill="none" stroke="#16a34a" stroke-width="1.8" marker-end="url(#req)"/><text x="2998.4" y="2526" text-anchor="start" font-size="15" fill="#111827">processes.cpu_layout(ProcessRecord)</text><path d="M2992.4,2588 H3096.4 V2606 H2992.4" fill="none" stroke="#0284c7" stroke-width="1.8" stroke-dasharray="6 4" marker-end="url(#ret)"/><text x="2998.4" y="2584" text-anchor="start" font-size="15" fill="#0284c7">(core_count, cpu_ranges)</text><path d="M2992.4,2646 H3096.4 V2664 H2992.4" fill="none" stroke="#0284c7" stroke-width="1.8" stroke-dasharray="6 4" marker-end="url(#ret)"/><text x="2998.4" y="2642" text-anchor="start" font-size="15" fill="#0284c7">dict[root, ProcessRecord]</text><path d="M2980.4,2704 H2588.2" fill="none" stroke="#0284c7" stroke-width="1.8" stroke-dasharray="6 4" marker-end="url(#ret)"/><text x="2783.8" y="2700" text-anchor="middle" font-size="15" fill="#0284c7">{raw, cases}</text><path d="M2587.2,2742 H4195.0" fill="none" stroke="#16a34a" stroke-width="1.8" marker-end="url(#req)"/><a href="D-06.svg" target="_blank"><text x="3391.6" y="2738" text-anchor="middle" font-size="15" fill="#111827">tickets.discover_cases(root,snap.cases,end,include,exclude)</text></a><path d="M4196.0,2780 H2588.2" fill="none" stroke="#0284c7" stroke-width="1.8" stroke-dasharray="6 4" marker-end="url(#ret)"/><text x="3391.6" y="2776" text-anchor="middle" font-size="15" fill="#0284c7">(rows,skipped)</text><path d="M2575.2,2818 H967.4" fill="none" stroke="#16a34a" stroke-width="1.8" marker-end="url(#req)"/><text x="1770.8" y="2814" text-anchor="middle" font-size="15" fill="#111827">ticket_chat.TicketChat.load(lock 재획득 후 session)</text><path d="M966.4,2856 H2574.2" fill="none" stroke="#0284c7" stroke-width="1.8" stroke-dasharray="6 4" marker-end="url(#ret)"/><text x="1770.8" y="2852" text-anchor="middle" font-size="15" fill="#0284c7">session</text><path d="M2575.2,2894 H967.4" fill="none" stroke="#16a34a" stroke-width="1.8" marker-end="url(#req)"/><text x="1770.8" y="2890" text-anchor="middle" font-size="15" fill="#111827">ticket_chat.TicketChat.members(scan_id/입력 일치 시)</text><path d="M966.4,2968 H1070.4 V2986 H966.4" fill="none" stroke="#16a34a" stroke-width="1.8" marker-end="url(#req)"/><text x="972.4" y="2928" text-anchor="start" font-size="15" fill="#111827">ticket_chat.TicketChat.render(chat,</text><text x="972.4" y="2946" text-anchor="start" font-size="15" fill="#111827">user, session, text, rows,</text><text x="972.4" y="2964" text-anchor="start" font-size="15" fill="#111827">view)</text><rect x="32" y="3010" width="4348" height="38" rx="3" fill="#fffbeb" stroke="#fcd34d"/><text x="2206.0" y="3031" text-anchor="middle" font-size="14" fill="#854d0e">TicketChat RLock 안의 동기 전송</text><path d="M966.4,3090 H1070.4 V3108 H966.4" fill="none" stroke="#16a34a" stroke-width="1.8" marker-end="url(#req)"/><text x="972.4" y="3068" text-anchor="start" font-size="15" fill="#111827">ticket_chat.TicketChat.persist(새</text><text x="972.4" y="3086" text-anchor="start" font-size="15" fill="#111827">token / view)</text><path d="M966.4,3148 H1358.6" fill="none" stroke="#16a34a" stroke-width="1.8" marker-end="url(#req)"/><text x="1163.0" y="3144" text-anchor="middle" font-size="15" fill="#111827">storage.Store.put(session key, session)</text><path d="M1359.6,3186 H967.4" fill="none" stroke="#0284c7" stroke-width="1.8" stroke-dasharray="6 4" marker-end="url(#ret)"/><text x="1163.0" y="3182" text-anchor="middle" font-size="15" fill="#0284c7">None</text><path d="M966.4,3224 H1070.4 V3242 H966.4" fill="none" stroke="#0284c7" stroke-width="1.8" stroke-dasharray="6 4" marker-end="url(#ret)"/><text x="972.4" y="3220" text-anchor="start" font-size="15" fill="#0284c7">None</text><path d="M966.4,3282 H1763.8" fill="none" stroke="#16a34a" stroke-width="1.8" marker-end="url(#req)"/><text x="1365.6" y="3278" text-anchor="middle" font-size="15" fill="#111827">telegram.Telegram.call(panel 존재: editMessageText)</text><rect x="32" y="3304" width="4348" height="38" rx="3" fill="#fffbeb" stroke="#fcd34d"/><text x="2206.0" y="3325" text-anchor="middle" font-size="14" fill="#854d0e">실패하면 Bot.send로 새 메시지</text><path d="M1776.8,3384 H2169.0" fill="none" stroke="#16a34a" stroke-width="1.8" marker-end="url(#req)"/><text x="1973.4" y="3362" text-anchor="middle" font-size="15" fill="#111827">urllib.request.urlopen(HTTPS Telegram Bot</text><text x="1973.4" y="3380" text-anchor="middle" font-size="15" fill="#111827">API; timeout)</text><rect x="32" y="3406" width="4348" height="38" rx="3" fill="#fffbeb" stroke="#fcd34d"/><text x="2206.0" y="3427" text-anchor="middle" font-size="14" fill="#854d0e">실제 외부 HTTP 요청; token은 표시하지 않음</text><path d="M2170.0,3468 H1777.8" fill="none" stroke="#0284c7" stroke-width="1.8" stroke-dasharray="6 4" marker-end="url(#ret)"/><text x="1973.4" y="3464" text-anchor="middle" font-size="15" fill="#0284c7">HTTP response JSON</text><path d="M1764.8,3506 H967.4" fill="none" stroke="#0284c7" stroke-width="1.8" stroke-dasharray="6 4" marker-end="url(#ret)"/><text x="1365.6" y="3502" text-anchor="middle" font-size="15" fill="#0284c7">Message</text><path d="M954.4,3544 H562.2" fill="none" stroke="#16a34a" stroke-width="1.8" marker-end="url(#req)"/><text x="757.8" y="3540" text-anchor="middle" font-size="15" fill="#111827">bot.Bot.send(panel 없거나 edit 실패: text, markup)</text><path d="M561.2,3582 H953.4" fill="none" stroke="#0284c7" stroke-width="1.8" stroke-dasharray="6 4" marker-end="url(#ret)"/><text x="757.8" y="3578" text-anchor="middle" font-size="15" fill="#0284c7">list[Message]</text><path d="M966.4,3620 H1070.4 V3638 H966.4" fill="none" stroke="#0284c7" stroke-width="1.8" stroke-dasharray="6 4" marker-end="url(#ret)"/><text x="972.4" y="3616" text-anchor="start" font-size="15" fill="#0284c7">None</text><path d="M966.4,3678 H2574.2" fill="none" stroke="#0284c7" stroke-width="1.8" stroke-dasharray="6 4" marker-end="url(#ret)"/><text x="1770.8" y="3674" text-anchor="middle" font-size="15" fill="#0284c7">None</text><rect x="32" y="3700" width="4348" height="38" rx="3" fill="#fffbeb" stroke="#fcd34d"/><text x="2206.0" y="3721" text-anchor="middle" font-size="14" fill="#854d0e">worker 종료; session 저장 또는 Queue 결과 → UI 갱신</text><rect x="24" y="3756" width="4364" height="77" fill="#fff1f2" stroke="#fda4af"/><text x="42" y="3778" text-anchor="start" font-size="15" fill="#9f1239" font-weight="700">alt [오류 / 거절 분기]</text><text x="42" y="3803" text-anchor="start" font-size="14" fill="#9f1239">입력/파일 오류 → 오류 메시지; TelegramError 등은 serve 경고 후 offset 진행</text><text x="2206.0" y="3873" text-anchor="middle" font-size="15" fill="#065f46" font-weight="700">최종 응답: 메시지/패널 반영 → handle 반환 → serve가 offset 저장</text></g></svg>
