<svg xmlns="http://www.w3.org/2000/svg" width="1600" height="730" viewBox="0 0 1600 730"><title>전체 유즈케이스 함수 요청 응답 그림 탐색</title><rect width="1600" height="730" fill="#f8fafc"/><g font-family="Noto Sans CJK KR, sans-serif"><text x="50" y="60" font-size="30" font-weight="700">전체 유즈케이스 → 플랫폼별 함수 요청·응답 시퀀스</text><text x="50" y="100" font-size="18" fill="#475569">각 상자를 눌러 실제 함수명·입력·반환·외부 호출·오류가 표시된 그림으로 이동</text><a href="lld/flows.md"><rect x="50" y="140" width="355" height="135" rx="10" fill="white" stroke="#86efac"/><rect x="50" y="140" width="355" height="44" rx="10" fill="#16a34a"/><text x="68" y="170" fill="white" font-size="20" font-weight="700">UC-01~06</text><text x="68" y="223" font-size="17">진입 · 현황 · 상세 · 결과</text><text x="68" y="252" font-size="14" fill="#047857">요청 → 실제 함수 → 반환</text></a><a href="lld/flows.md"><rect x="435" y="140" width="355" height="135" rx="10" fill="white" stroke="#86efac"/><rect x="435" y="140" width="355" height="44" rx="10" fill="#16a34a"/><text x="453" y="170" fill="white" font-size="20" font-weight="700">UC-07~14</text><text x="453" y="223" font-size="17">티켓 CRUD · 검증 · 저장</text><text x="453" y="252" font-size="14" fill="#047857">요청 → 실제 함수 → 반환</text></a><a href="lld/flows.md"><rect x="820" y="140" width="355" height="135" rx="10" fill="white" stroke="#86efac"/><rect x="820" y="140" width="355" height="44" rx="10" fill="#16a34a"/><text x="838" y="170" fill="white" font-size="20" font-weight="700">UC-15~18</text><text x="838" y="223" font-size="17">매크로 · 실행 설정 · 실행</text><text x="838" y="252" font-size="14" fill="#047857">요청 → 실제 함수 → 반환</text></a><a href="lld/flows.md"><rect x="1205" y="140" width="355" height="135" rx="10" fill="white" stroke="#86efac"/><rect x="1205" y="140" width="355" height="44" rx="10" fill="#16a34a"/><text x="1223" y="170" fill="white" font-size="20" font-weight="700">UC-19~25</text><text x="1223" y="223" font-size="17">큐 · 템플릿 · 취소 · 정리</text><text x="1223" y="252" font-size="14" fill="#047857">요청 → 실제 함수 → 반환</text></a><a href="lld/telegram.md"><rect x="50" y="315" width="355" height="135" rx="10" fill="white" stroke="#86efac"/><rect x="50" y="315" width="355" height="44" rx="10" fill="#16a34a"/><text x="68" y="345" fill="white" font-size="20" font-weight="700">Telegram</text><text x="68" y="398" font-size="17">명령 / callback / session</text><text x="68" y="427" font-size="14" fill="#047857">요청 → 실제 함수 → 반환</text></a><a href="lld/gui.md"><rect x="435" y="315" width="355" height="135" rx="10" fill="white" stroke="#86efac"/><rect x="435" y="315" width="355" height="44" rx="10" fill="#16a34a"/><text x="453" y="345" fill="white" font-size="20" font-weight="700">cfd-ticket-gui</text><text x="453" y="398" font-size="17">Tk callback / worker / UI</text><text x="453" y="427" font-size="14" fill="#047857">요청 → 실제 함수 → 반환</text></a><a href="lld/web.md"><rect x="820" y="315" width="355" height="135" rx="10" fill="white" stroke="#86efac"/><rect x="820" y="315" width="355" height="44" rx="10" fill="#16a34a"/><text x="838" y="345" fill="white" font-size="20" font-weight="700">Web</text><text x="838" y="398" font-size="17">Browser / HTTP / domain</text><text x="838" y="427" font-size="14" fill="#047857">요청 → 실제 함수 → 반환</text></a><a href="lld/runtime.md"><rect x="1205" y="315" width="355" height="135" rx="10" fill="white" stroke="#86efac"/><rect x="1205" y="315" width="355" height="44" rx="10" fill="#16a34a"/><text x="1223" y="345" fill="white" font-size="20" font-weight="700">CLI / launcher</text><text x="1223" y="398" font-size="17">운영 명령 / SSH / 브라우저</text><text x="1223" y="427" font-size="14" fill="#047857">요청 → 실제 함수 → 반환</text></a><a href="lld/domain.md"><rect x="50" y="490" width="355" height="135" rx="10" fill="white" stroke="#86efac"/><rect x="50" y="490" width="355" height="44" rx="10" fill="#16a34a"/><text x="68" y="520" fill="white" font-size="20" font-weight="700">D-01~15</text><text x="68" y="573" font-size="17">공용 함수 요청 · 반환</text><text x="68" y="602" font-size="14" fill="#047857">요청 → 실제 함수 → 반환</text></a><a href="lld/runtime.md"><rect x="435" y="490" width="355" height="135" rx="10" fill="white" stroke="#86efac"/><rect x="435" y="490" width="355" height="44" rx="10" fill="#16a34a"/><text x="453" y="520" fill="white" font-size="20" font-weight="700">BG-01~03</text><text x="453" y="573" font-size="17">scan / 관측 / 제출 접수</text><text x="453" y="602" font-size="14" fill="#047857">요청 → 실제 함수 → 반환</text></a><a href="lld/runtime.md"><rect x="820" y="490" width="355" height="135" rx="10" fill="white" stroke="#86efac"/><rect x="820" y="490" width="355" height="44" rx="10" fill="#16a34a"/><text x="838" y="520" fill="white" font-size="20" font-weight="700">BG-04~07</text><text x="838" y="573" font-size="17">admission / worker / 알림 / 복구</text><text x="838" y="602" font-size="14" fill="#047857">요청 → 실제 함수 → 반환</text></a><a href="analysis/performance.md"><rect x="1205" y="490" width="355" height="135" rx="10" fill="white" stroke="#86efac"/><rect x="1205" y="490" width="355" height="44" rx="10" fill="#16a34a"/><text x="1223" y="520" fill="white" font-size="20" font-weight="700">성능 분석</text><text x="1223" y="573" font-size="17">반복 호출 · lock · I/O · 개선안</text><text x="1223" y="602" font-size="14" fill="#047857">요청 → 실제 함수 → 반환</text></a><text x="50" y="704" font-size="15" fill="#64748b">#24 NP 기반 자동 quota·동적 macro 반영 · 2026-10-07 · 미지원 플랫폼 기능은 ARCHITECTURE 표에서 N/A로 구분</text></g></svg>
