<?xml version="1.0" encoding="UTF-8" standalone="no"?>
<!DOCTYPE svg PUBLIC "-//W3C//DTD SVG 1.1//EN"
 "http://www.w3.org/Graphics/SVG/1.1/DTD/svg11.dtd">
<!-- Generated by graphviz version 2.44.0 (0)
 -->
<!-- Title: platform Pages: 1 -->
<svg width="2556pt" height="485pt"
 viewBox="0.00 0.00 2556.20 484.70" xmlns="http://www.w3.org/2000/svg" xmlns:xlink="http://www.w3.org/1999/xlink">
<g id="graph0" class="graph" transform="scale(1 1) rotate(0) translate(21.6 463.1)">
<title>platform</title>
<polygon fill="white" stroke="transparent" points="-21.6,21.6 -21.6,-463.1 2534.6,-463.1 2534.6,21.6 -21.6,21.6"/>
<text text-anchor="middle" x="1256.5" y="-418.3" font-family="Noto Sans CJK KR" font-size="24.00">플랫폼별 함수 경계와 solver·monitor 공용 snapshot · #25</text>
<!-- tg -->
<g id="node1" class="node">
<title>tg</title>
<g id="a_node1"><a xlink:href="lld/telegram.md" xlink:title="Telegram\nBot / TicketChat">
<path fill="#f0fdf4" stroke="#86efac" d="M193,-343.5C193,-343.5 63,-343.5 63,-343.5 57,-343.5 51,-337.5 51,-331.5 51,-331.5 51,-299.5 51,-299.5 51,-293.5 57,-287.5 63,-287.5 63,-287.5 193,-287.5 193,-287.5 199,-287.5 205,-293.5 205,-299.5 205,-299.5 205,-331.5 205,-331.5 205,-337.5 199,-343.5 193,-343.5"/>
<text text-anchor="middle" x="128" y="-320.9" font-family="Noto Sans CJK KR" font-size="17.00">Telegram</text>
<text text-anchor="middle" x="128" y="-301.9" font-family="Noto Sans CJK KR" font-size="17.00">Bot / TicketChat</text>
</a>
</g>
</g>
<!-- service -->
<g id="node5" class="node">
<title>service</title>
<g id="a_node5"><a xlink:href="diagrams/D-02.svg" xlink:title="TicketService\n폼·검증·저장·복제·삭제">
<path fill="#f0fdf4" stroke="#86efac" d="M532,-171.5C532,-171.5 349,-171.5 349,-171.5 343,-171.5 337,-165.5 337,-159.5 337,-159.5 337,-127.5 337,-127.5 337,-121.5 343,-115.5 349,-115.5 349,-115.5 532,-115.5 532,-115.5 538,-115.5 544,-121.5 544,-127.5 544,-127.5 544,-159.5 544,-159.5 544,-165.5 538,-171.5 532,-171.5"/>
<text text-anchor="middle" x="440.5" y="-148.9" font-family="Noto Sans CJK KR" font-size="17.00">TicketService</text>
<text text-anchor="middle" x="440.5" y="-129.9" font-family="Noto Sans CJK KR" font-size="17.00">폼·검증·저장·복제·삭제</text>
</a>
</g>
</g>
<!-- tg&#45;&gt;service -->
<g id="edge1" class="edge">
<title>tg&#45;&gt;service</title>
<path fill="none" stroke="#16a34a" d="M205.07,-290.1C222.68,-282.39 240.72,-272.87 256,-261.5 288.92,-237.01 281.59,-214.31 315,-190.5 322.46,-185.18 330.6,-180.38 339.02,-176.07"/>
<polygon fill="#16a34a" stroke="#16a34a" points="340.79,-179.1 348.26,-171.58 337.73,-172.81 340.79,-179.1"/>
</g>
<!-- run -->
<g id="node6" class="node">
<title>run</title>
<g id="a_node6"><a xlink:href="diagrams/D-03.svg" xlink:title="TicketRunner\ncached state / fresh request\n동적 macro: 첫 child 즉시 판정">
<path fill="#f0fdf4" stroke="#86efac" d="M554,-283C554,-283 327,-283 327,-283 321,-283 315,-277 315,-271 315,-271 315,-220 315,-220 315,-214 321,-208 327,-208 327,-208 554,-208 554,-208 560,-208 566,-214 566,-220 566,-220 566,-271 566,-271 566,-277 560,-283 554,-283"/>
<text text-anchor="middle" x="440.5" y="-260.4" font-family="Noto Sans CJK KR" font-size="17.00">TicketRunner</text>
<text text-anchor="middle" x="440.5" y="-241.4" font-family="Noto Sans CJK KR" font-size="17.00">cached state / fresh request</text>
<text text-anchor="middle" x="440.5" y="-222.4" font-family="Noto Sans CJK KR" font-size="17.00">동적 macro: 첫 child 즉시 판정</text>
</a>
</g>
</g>
<!-- tg&#45;&gt;run -->
<g id="edge4" class="edge">
<title>tg&#45;&gt;run</title>
<path fill="none" stroke="#16a34a" d="M205.35,-298.29C235.34,-291.53 270.68,-283.56 304.69,-275.89"/>
<polygon fill="#16a34a" stroke="#16a34a" points="305.73,-279.25 314.72,-273.63 304.19,-272.42 305.73,-279.25"/>
</g>
<!-- store -->
<g id="node7" class="node">
<title>store</title>
<path fill="#f0fdf4" stroke="#86efac" d="M2471.5,-287.74C2471.5,-292.92 2419.73,-297.13 2356,-297.13 2292.27,-297.13 2240.5,-292.92 2240.5,-287.74 2240.5,-287.74 2240.5,-203.26 2240.5,-203.26 2240.5,-198.08 2292.27,-193.87 2356,-193.87 2419.73,-193.87 2471.5,-198.08 2471.5,-203.26 2471.5,-203.26 2471.5,-287.74 2471.5,-287.74"/>
<path fill="none" stroke="#86efac" d="M2471.5,-287.74C2471.5,-282.56 2419.73,-278.35 2356,-278.35 2292.27,-278.35 2240.5,-282.56 2240.5,-287.74"/>
<text text-anchor="middle" x="2356" y="-260.4" font-family="Noto Sans CJK KR" font-size="17.00">Store / SQLite</text>
<text text-anchor="middle" x="2356" y="-241.4" font-family="Noto Sans CJK KR" font-size="17.00">job CAS / terminal marker</text>
<text text-anchor="middle" x="2356" y="-222.4" font-family="Noto Sans CJK KR" font-size="17.00">outbox / session</text>
</g>
<!-- tg&#45;&gt;store -->
<g id="edge15" class="edge">
<title>tg&#45;&gt;store</title>
<path fill="none" stroke="#dc2626" stroke-dasharray="5,2" d="M198.96,-343.55C261.09,-365.91 354.88,-393.5 439.5,-393.5 439.5,-393.5 439.5,-393.5 1917.5,-393.5 2038.89,-393.5 2169.71,-341.74 2256.36,-299.44"/>
<polygon fill="#dc2626" stroke="#dc2626" points="2257.96,-302.55 2265.39,-294.99 2254.87,-296.27 2257.96,-302.55"/>
<text text-anchor="middle" x="1129.5" y="-397.1" font-family="Noto Sans CJK KR" font-size="13.00">legacy enqueue 직접 경로</text>
</g>
<!-- gui -->
<g id="node2" class="node">
<title>gui</title>
<g id="a_node2"><a xlink:href="lld/gui.md" xlink:title="cfd&#45;ticket&#45;gui\nTicketEditor">
<path fill="#f0fdf4" stroke="#86efac" d="M182,-243.5C182,-243.5 74,-243.5 74,-243.5 68,-243.5 62,-237.5 62,-231.5 62,-231.5 62,-199.5 62,-199.5 62,-193.5 68,-187.5 74,-187.5 74,-187.5 182,-187.5 182,-187.5 188,-187.5 194,-193.5 194,-199.5 194,-199.5 194,-231.5 194,-231.5 194,-237.5 188,-243.5 182,-243.5"/>
<text text-anchor="middle" x="128" y="-220.9" font-family="Noto Sans CJK KR" font-size="17.00">cfd&#45;ticket&#45;gui</text>
<text text-anchor="middle" x="128" y="-201.9" font-family="Noto Sans CJK KR" font-size="17.00">TicketEditor</text>
</a>
</g>
</g>
<!-- gui&#45;&gt;service -->
<g id="edge2" class="edge">
<title>gui&#45;&gt;service</title>
<path fill="none" stroke="#16a34a" d="M194.03,-192.57C221.79,-183.44 254.71,-173.47 285,-166.5 298.4,-163.42 312.55,-160.66 326.63,-158.21"/>
<polygon fill="#16a34a" stroke="#16a34a" points="327.58,-161.59 336.86,-156.48 326.41,-154.69 327.58,-161.59"/>
</g>
<!-- gui&#45;&gt;run -->
<g id="edge5" class="edge">
<title>gui&#45;&gt;run</title>
<path fill="none" stroke="#16a34a" d="M194.14,-232.97C221.92,-239.56 254.82,-246.25 285,-249.5 291.3,-250.18 297.76,-250.7 304.28,-251.08"/>
<polygon fill="#16a34a" stroke="#16a34a" points="304.43,-254.59 314.58,-251.58 304.76,-247.6 304.43,-254.59"/>
</g>
<!-- web -->
<g id="node3" class="node">
<title>web</title>
<g id="a_node3"><a xlink:href="lld/web.md" xlink:title="Web\napp.js → Handler → WebApp">
<path fill="#f0fdf4" stroke="#86efac" d="M244,-136.5C244,-136.5 12,-136.5 12,-136.5 6,-136.5 0,-130.5 0,-124.5 0,-124.5 0,-92.5 0,-92.5 0,-86.5 6,-80.5 12,-80.5 12,-80.5 244,-80.5 244,-80.5 250,-80.5 256,-86.5 256,-92.5 256,-92.5 256,-124.5 256,-124.5 256,-130.5 250,-136.5 244,-136.5"/>
<text text-anchor="middle" x="128" y="-113.9" font-family="Noto Sans CJK KR" font-size="17.00">Web</text>
<text text-anchor="middle" x="128" y="-94.9" font-family="Noto Sans CJK KR" font-size="17.00">app.js → Handler → WebApp</text>
</a>
</g>
</g>
<!-- web&#45;&gt;service -->
<g id="edge3" class="edge">
<title>web&#45;&gt;service</title>
<path fill="none" stroke="#16a34a" d="M256.28,-120.29C266.34,-121.33 276.34,-122.41 286,-123.5 299.22,-124.99 313.06,-126.65 326.79,-128.37"/>
<polygon fill="#16a34a" stroke="#16a34a" points="326.4,-131.84 336.76,-129.62 327.28,-124.9 326.4,-131.84"/>
</g>
<!-- web&#45;&gt;run -->
<g id="edge6" class="edge">
<title>web&#45;&gt;run</title>
<path fill="none" stroke="#16a34a" d="M192.58,-136.55C236.5,-155.93 295.67,-182.04 345.08,-203.84"/>
<polygon fill="#16a34a" stroke="#16a34a" points="343.94,-207.16 354.5,-208 346.77,-200.76 343.94,-207.16"/>
</g>
<!-- cli -->
<g id="node4" class="node">
<title>cli</title>
<g id="a_node4"><a xlink:href="lld/runtime.md" xlink:title="CLI / launcher">
<path fill="#f0fdf4" stroke="#86efac" d="M1973,-338C1973,-338 1860,-338 1860,-338 1854,-338 1848,-332 1848,-326 1848,-326 1848,-313 1848,-313 1848,-307 1854,-301 1860,-301 1860,-301 1973,-301 1973,-301 1979,-301 1985,-307 1985,-313 1985,-313 1985,-326 1985,-326 1985,-332 1979,-338 1973,-338"/>
<text text-anchor="middle" x="1916.5" y="-315.4" font-family="Noto Sans CJK KR" font-size="17.00">CLI / launcher</text>
</a>
</g>
</g>
<!-- cli&#45;&gt;store -->
<g id="edge16" class="edge">
<title>cli&#45;&gt;store</title>
<path fill="none" stroke="#dc2626" stroke-dasharray="5,2" d="M1985.38,-308.02C2050.52,-297 2150.45,-280.1 2229.99,-266.64"/>
<polygon fill="#dc2626" stroke="#dc2626" points="2230.81,-270.06 2240.08,-264.94 2229.64,-263.15 2230.81,-270.06"/>
<text text-anchor="middle" x="2104" y="-301.1" font-family="Noto Sans CJK KR" font-size="13.00">CLI enqueue 직접 경로</text>
</g>
<!-- json -->
<g id="node8" class="node">
<title>json</title>
<polygon fill="#f0fdf4" stroke="#86efac" points="1025,-186 1022,-190 1001,-190 998,-186 740,-186 740,-111 1025,-111 1025,-186"/>
<text text-anchor="middle" x="882.5" y="-163.4" font-family="Noto Sans CJK KR" font-size="17.00">tickets/*.json</text>
<text text-anchor="middle" x="882.5" y="-144.4" font-family="Noto Sans CJK KR" font-size="17.00">queue id / cores / dynamic cores</text>
<text text-anchor="middle" x="882.5" y="-125.4" font-family="Noto Sans CJK KR" font-size="17.00">submission / 표시 상태</text>
</g>
<!-- service&#45;&gt;json -->
<g id="edge7" class="edge">
<title>service&#45;&gt;json</title>
<path fill="none" stroke="#16a34a" d="M554.36,-144.08C602.61,-144.4 659.57,-144.86 711,-145.5 716.97,-145.57 723.07,-145.66 729.22,-145.74"/>
<polygon fill="#16a34a" stroke="#16a34a" points="554.22,-140.58 544.2,-144.02 554.18,-147.58 554.22,-140.58"/>
<polygon fill="#16a34a" stroke="#16a34a" points="729.57,-149.25 739.62,-145.89 729.67,-142.25 729.57,-149.25"/>
<text text-anchor="middle" x="653" y="-149.1" font-family="Noto Sans CJK KR" font-size="13.00">read / atomic write</text>
</g>
<!-- run&#45;&gt;store -->
<g id="edge10" class="edge">
<title>run&#45;&gt;store</title>
<path fill="none" stroke="#16a34a" d="M566.2,-245.5C654.29,-245.5 775.13,-245.5 881.5,-245.5 881.5,-245.5 881.5,-245.5 1917.5,-245.5 2022.89,-245.5 2142.57,-245.5 2230.08,-245.5"/>
<polygon fill="#16a34a" stroke="#16a34a" points="2230.32,-249 2240.32,-245.5 2230.32,-242 2230.32,-249"/>
<text text-anchor="middle" x="1382" y="-249.1" font-family="Noto Sans CJK KR" font-size="13.00">state 읽기</text>
</g>
<!-- run&#45;&gt;json -->
<g id="edge9" class="edge">
<title>run&#45;&gt;json</title>
<path fill="none" stroke="#16a34a" d="M566.12,-210.54C575.87,-208.06 585.58,-205.69 595,-203.5 638.57,-193.37 686.18,-183.69 729.85,-175.34"/>
<polygon fill="#16a34a" stroke="#16a34a" points="730.52,-178.78 739.69,-173.47 729.21,-171.9 730.52,-178.78"/>
<text text-anchor="middle" x="653" y="-207.1" font-family="Noto Sans CJK KR" font-size="13.00">submit=True</text>
</g>
<!-- snapshot -->
<g id="node9" class="node">
<title>snapshot</title>
<g id="a_node9"><a xlink:href="diagrams/D-04.svg" xlink:title="processes.snapshot\nsolver + 표식 monitor ofps scan\nCASE별 affinity 병합">
<path fill="#f0fdf4" stroke="#86efac" d="M1006,-75C1006,-75 759,-75 759,-75 753,-75 747,-69 747,-63 747,-63 747,-12 747,-12 747,-6 753,0 759,0 759,0 1006,0 1006,0 1012,0 1018,-6 1018,-12 1018,-12 1018,-63 1018,-63 1018,-69 1012,-75 1006,-75"/>
<text text-anchor="middle" x="882.5" y="-52.4" font-family="Noto Sans CJK KR" font-size="17.00">processes.snapshot</text>
<text text-anchor="middle" x="882.5" y="-33.4" font-family="Noto Sans CJK KR" font-size="17.00">solver + 표식 monitor ofps scan</text>
<text text-anchor="middle" x="882.5" y="-14.4" font-family="Noto Sans CJK KR" font-size="17.00">CASE별 affinity 병합</text>
</a>
</g>
</g>
<!-- run&#45;&gt;snapshot -->
<g id="edge8" class="edge">
<title>run&#45;&gt;snapshot</title>
<path fill="none" stroke="#16a34a" d="M543.39,-207.87C551.6,-202.47 559.3,-196.37 566,-189.5 589.23,-165.69 570.16,-142.62 595,-120.5 634.16,-85.63 687.16,-65.36 736.93,-53.6"/>
<polygon fill="#16a34a" stroke="#16a34a" points="737.85,-56.98 746.83,-51.36 736.31,-50.15 737.85,-56.98"/>
<text text-anchor="middle" x="653" y="-124.1" font-family="Noto Sans CJK KR" font-size="13.00">fresh 실행 전 검사</text>
</g>
<!-- monitor -->
<g id="node10" class="node">
<title>monitor</title>
<g id="a_node10"><a xlink:href="diagrams/BG-04.svg" xlink:title="Monitor / Scheduler\n미발행 terminal 1회 처리\nbatch별 head admission / fair turn">
<path fill="#f0fdf4" stroke="#86efac" d="M1518,-173C1518,-173 1246,-173 1246,-173 1240,-173 1234,-167 1234,-161 1234,-161 1234,-110 1234,-110 1234,-104 1240,-98 1246,-98 1246,-98 1518,-98 1518,-98 1524,-98 1530,-104 1530,-110 1530,-110 1530,-161 1530,-161 1530,-167 1524,-173 1518,-173"/>
<text text-anchor="middle" x="1382" y="-150.4" font-family="Noto Sans CJK KR" font-size="17.00">Monitor / Scheduler</text>
<text text-anchor="middle" x="1382" y="-131.4" font-family="Noto Sans CJK KR" font-size="17.00">미발행 terminal 1회 처리</text>
<text text-anchor="middle" x="1382" y="-112.4" font-family="Noto Sans CJK KR" font-size="17.00">batch별 head admission / fair turn</text>
</a>
</g>
</g>
<!-- json&#45;&gt;monitor -->
<g id="edge11" class="edge">
<title>json&#45;&gt;monitor</title>
<path fill="none" stroke="#16a34a" d="M1025.07,-144.8C1087.09,-143.18 1160.12,-141.27 1223.82,-139.61"/>
<polygon fill="#16a34a" stroke="#16a34a" points="1224.06,-143.1 1233.97,-139.34 1223.88,-136.1 1224.06,-143.1"/>
<text text-anchor="middle" x="1129.5" y="-147.1" font-family="Noto Sans CJK KR" font-size="13.00">accept_submissions</text>
</g>
<!-- monitor&#45;&gt;store -->
<g id="edge12" class="edge">
<title>monitor&#45;&gt;store</title>
<path fill="none" stroke="#16a34a" d="M1530.1,-148.77C1688.37,-163.53 1947.38,-189.07 2170,-217.5 2189.43,-219.98 2209.98,-222.85 2230.03,-225.78"/>
<polygon fill="#16a34a" stroke="#16a34a" points="2229.74,-229.28 2240.15,-227.27 2230.76,-222.35 2229.74,-229.28"/>
<text text-anchor="middle" x="1916.5" y="-200.1" font-family="Noto Sans CJK KR" font-size="13.00">enqueue_batch / observe</text>
</g>
<!-- worker -->
<g id="node11" class="node">
<title>worker</title>
<g id="a_node11"><a xlink:href="diagrams/BG-05.svg" xlink:title="worker\nhooks / solver / 판정\nDB lock 재시도">
<path fill="#f0fdf4" stroke="#86efac" d="M1997,-104C1997,-104 1836,-104 1836,-104 1830,-104 1824,-98 1824,-92 1824,-92 1824,-41 1824,-41 1824,-35 1830,-29 1836,-29 1836,-29 1997,-29 1997,-29 2003,-29 2009,-35 2009,-41 2009,-41 2009,-92 2009,-92 2009,-98 2003,-104 1997,-104"/>
<text text-anchor="middle" x="1916.5" y="-81.4" font-family="Noto Sans CJK KR" font-size="17.00">worker</text>
<text text-anchor="middle" x="1916.5" y="-62.4" font-family="Noto Sans CJK KR" font-size="17.00">hooks / solver / 판정</text>
<text text-anchor="middle" x="1916.5" y="-43.4" font-family="Noto Sans CJK KR" font-size="17.00">DB lock 재시도</text>
</a>
</g>
</g>
<!-- monitor&#45;&gt;worker -->
<g id="edge13" class="edge">
<title>monitor&#45;&gt;worker</title>
<path fill="none" stroke="#16a34a" d="M1530.27,-116.42C1620.45,-104.73 1733.56,-90.08 1813.83,-79.67"/>
<polygon fill="#16a34a" stroke="#16a34a" points="1814.48,-83.12 1823.95,-78.36 1813.58,-76.18 1814.48,-83.12"/>
<text text-anchor="middle" x="1677" y="-115.1" font-family="Noto Sans CJK KR" font-size="13.00">파생 quota 또는 borrow CPU 승인 뒤 실행</text>
</g>
<!-- worker&#45;&gt;store -->
<g id="edge14" class="edge">
<title>worker&#45;&gt;store</title>
<path fill="none" stroke="#16a34a" d="M2009.23,-82.32C2069.1,-93.37 2141.28,-108.28 2170,-120.5 2210.11,-137.58 2250.69,-163.77 2283.57,-187.78"/>
<polygon fill="#16a34a" stroke="#16a34a" points="2281.64,-190.71 2291.77,-193.83 2285.8,-185.08 2281.64,-190.71"/>
<text text-anchor="middle" x="2104" y="-138.1" font-family="Noto Sans CJK KR" font-size="13.00">진행 / terminal</text>
<text text-anchor="middle" x="2104" y="-124.1" font-family="Noto Sans CJK KR" font-size="13.00">locked면 child 유지</text>
</g>
<!-- note -->
<g id="node12" class="node">
<title>note</title>
<polygon fill="#fff7ed" stroke="#fbbf24" points="2507,-102 2199,-102 2199,-27 2513,-27 2513,-96 2507,-102"/>
<polyline fill="none" stroke="#fbbf24" points="2507,-102 2507,-96 "/>
<polyline fill="none" stroke="#fbbf24" points="2513,-96 2507,-96 "/>
<text text-anchor="middle" x="2356" y="-79.4" font-family="Noto Sans CJK KR" font-size="17.00">지원 범위는 UC × 플랫폼 표 참조</text>
<text text-anchor="middle" x="2356" y="-60.4" font-family="Noto Sans CJK KR" font-size="17.00">GUI pause/resume 등 없는 기능은 N/A</text>
<text text-anchor="middle" x="2356" y="-41.4" font-family="Noto Sans CJK KR" font-size="17.00">실행 요청 수락 ≠ 계산 시작</text>
</g>
<!-- worker&#45;&gt;note -->
</g>
</svg>
